<?xml version="1.0" encoding="UTF-8" standalone="no"?>
<!-- Created with Inkscape (http://www.inkscape.org/) -->

<svg
   xmlns:dc="http://purl.org/dc/elements/1.1/"
   xmlns:cc="http://creativecommons.org/ns#"
   xmlns:rdf="http://www.w3.org/1999/02/22-rdf-syntax-ns#"
   xmlns:svg="http://www.w3.org/2000/svg"
   xmlns="http://www.w3.org/2000/svg"
   xmlns:sodipodi="http://sodipodi.sourceforge.net/DTD/sodipodi-0.dtd"
   xmlns:inkscape="http://www.inkscape.org/namespaces/inkscape"
   width="87.771111mm"
   height="132.92667mm"
   viewBox="0 0 311 471"
   id="svg2"
   version="1.1"
   inkscape:version="0.91 r13725"
   sodipodi:docname="Drachenkurve.svg">
  <sodipodi:namedview
     id="base"
     pagecolor="#ffffff"
     bordercolor="#666666"
     borderopacity="1.0"
     inkscape:pageopacity="0.0"
     inkscape:pageshadow="2"
     inkscape:zoom="0.7"
     inkscape:cx="173.71066"
     inkscape:cy="283.67006"
     inkscape:document-units="px"
     inkscape:current-layer="layer1"
     showgrid="false"
     inkscape:window-width="1205"
     inkscape:window-height="697"
     inkscape:window-x="67"
     inkscape:window-y="-8"
     inkscape:window-maximized="1"
     inkscape:snap-bbox="true"
     inkscape:object-paths="true"
     inkscape:snap-intersection-paths="true"
     inkscape:object-nodes="true"
     inkscape:snap-smooth-nodes="true"
     inkscape:snap-midpoints="true"
     inkscape:bbox-paths="true"
     inkscape:bbox-nodes="true"
     inkscape:snap-bbox-edge-midpoints="true"
     inkscape:snap-bbox-midpoints="true"
     fit-margin-top="0"
     fit-margin-left="0"
     fit-margin-right="0"
     fit-margin-bottom="0"
     inkscape:snap-global="false" />
  <defs
     id="defs4" />
  <metadata
     id="metadata7">
    <rdf:RDF>
      <cc:Work
         rdf:about="">
        <dc:format>image/svg+xml</dc:format>
        <dc:type
           rdf:resource="http://purl.org/dc/dcmitype/StillImage" />
        <dc:title></dc:title>
      </cc:Work>
    </rdf:RDF>
  </metadata>
  <g
     inkscape:label="Ebene 1"
     inkscape:groupmode="layer"
     id="layer1"
     transform="translate(-289.83364,-234.93217)">
    <path
       id="path4336"
       d="m 500.33364,605.43217 -10,0 0,-10 10,0 0,-10 10,0 0,10 10,0 0,-10 10,0 0,10 -10,0 0,10 10,0 0,10 10,0 0,-10 10,0 0,10 -10,0 0,10 -10,0 0,-10 -10,0 0,10 10,0 0,10 -10,0 0,10 10,0 0,10 10,0 0,-10 10,0 0,10 -10,0 0,10 -10,0 0,-10 -10,0 0,10 -10,0 0,-10 10,0 0,-10 -10,0 0,-10 -10,0 0,10 10,0 0,10 -10,0 0,10 -10,0 0,-10 -10,0 0,10 10,0 0,10 -10,0 0,10 10,0 0,10 10,0 0,-10 10,0 0,10 -10,0 0,10 -10,0 0,-10 -10,0 0,10 -10,0 0,-10 10,0 0,-10 -10,0 0,-10 -10,0 0,10 -10,0 0,-10 10,0 0,-10 10,0 0,10 10,0 0,-10 -10,0 0,-10 10,0 0,-10 -10,0 0,-10 -10,0 0,10 10,0 0,10 -10,0 0,10 -10,0 0,-10 -10,0 0,10 -10,0 0,-10 10,0 0,-10 -10,0 0,-10 -10,0 0,10 10,0 0,10 -10,0 0,10 -10,0 0,-10 -10,0 0,10 10,0 0,10 -10,0 0,10 10,0 0,10 10,0 0,-10 10,0 0,10 -10,0 0,10 -10,0 0,-10 -10,0 0,10 -10,0 0,-10 10,0 0,-10 -10,0 0,-10 -10,0 0,10 -10,0 0,-10 10,0 0,-10 10,0 0,10 10,0 0,-10 -10,0 0,-10 10,0 0,-10 -10,0 0,-10 -10,0 0,10 -10,0 0,-10 10,0 0,-10 10,0 0,10 10,0 0,-10 10,0 0,10 -10,0 0,10 10,0 0,10 10,0 0,-10 -10,0 0,-10 10,0 0,-10 10,0 0,10 10,0 0,-10 -10,0 0,-10 10,0 0,-10 -10,0 0,-10 -10,0 0,10 10,0 0,10 -10,0 0,10 -10,0 0,-10 -10,0 0,10 -10,0 0,-10 10,0 0,-10 -10,0 0,-10 -10,0 0,10 -10,0 0,-10 10,0 0,-10 10,0 0,10 10,0 0,-10 -10,0 0,-10 10,0 0,-10 -10,0 0,-10 -10,0 0,10 10,0 0,10 -10,0 0,10 -10,0 0,-10 -10,0 0,10 -10,0 0,-10 10,0 0,-10 -10,0 0,-10 -10,0 0,10 10,0 0,10 -10,0 0,10 -10,0 0,-10 -10,0 0,10 10,0 0,10 -10,0 0,10 10,0 0,10 10,0 0,-10 10,0 0,10 -10,0 0,10 -10,0 0,-10 -10,0 0,10 -10,0 0,-10 10,0 0,-10 -10,0 0,-10 -10,0 0,10 -10,0 0,-10 10,0 0,-10 10,0 0,10 10,0 0,-10 -10,0 0,-10 10,0 0,-10 -10,0 0,-10 -10,0 0,10 -10,0 0,-10 10,0 0,-10 10,0 0,10 10,0 0,-10 10,0 0,10 -10,0 0,10 10,0 0,10 10,0 0,-10 -10,0 0,-10 10,0 0,-10 10,0 0,10 10,0 0,-10 -10,0 0,-10 10,0 0,-10 -10,0 0,-10 -10,0 0,10 -10,0 0,-10 10,0 0,-10 10,0 0,10 10,0 0,-10 10,0 0,10 -10,0 0,10 10,0 0,10 10,0 0,-10 10,0 0,10 -10,0 0,10 -10,0 0,-10 -10,0 0,10 10,0 0,10 -10,0 0,10 10,0 0,10 10,0 0,-10 -10,0 0,-10 10,0 0,-10 10,0 0,10 10,0 0,-10 10,0 0,10 -10,0 0,10 10,0 0,10 10,0 0,-10 -10,0 0,-10 10,0 0,-10 10,0 0,10 10,0 0,-10 -10,0 0,-10 10,0 0,-10 -10,0 0,-10 -10,0 0,10 10,0 0,10 -10,0 0,10 -10,0 0,-10 -10,0 0,10 -10,0 0,-10 10,0 0,-10 -10,0 0,-10 -10,0 0,10 -10,0 0,-10 10,0 0,-10 10,0 0,10 10,0 0,-10 -10,0 0,-10 10,0 0,-10 -10,0 0,-10 -10,0 0,10 -10,0 0,-10 10,0 0,-10 10,0 0,10 10,0 0,-10 10,0 0,10 -10,0 0,10 10,0 0,10 10,0 0,-10 -10,0 0,-10 10,0 0,-10 10,0 0,10 10,0 0,-10 -10,0 0,-10 10,0 0,-10 -10,0 0,-10 -10,0 0,10 10,0 0,10 -10,0 0,10 -10,0 0,-10 -10,0 0,10 -10,0 0,-10 10,0 0,-10 -10,0 0,-10 -10,0 0,10 -10,0 0,-10 10,0 0,-10 10,0 0,10 10,0 0,-10 -10,0 0,-10 10,0 0,-10 -10,0 0,-10 -10,0 0,10 10,0 0,10 -10,0 0,10 -10,0 0,-10 -10,0 0,10 -10,0 0,-10 10,0 0,-10 -10,0 0,-10 -10,0 0,10 10,0 0,10 -10,0 0,10 -10,0 0,-10 -10,0 0,10 10,0 0,10 -10,0 0,10 10,0 0,10 10,0 0,-10 10,0 0,10 -10,0 0,10 -10,0 0,-10 -10,0 0,10 -10,0 0,-10 10,0 0,-10 -10,0 0,-10 -10,0 0,10 -10,0 0,-10 10,0 0,-10 10,0 0,10 10,0 0,-10 -10,0 0,-10 10,0 0,-10 -10,0 0,-10 -10,0 0,10 -10,0 0,-10 10,0 0,-10 10,0 0,10 10,0 0,-10 10,0 0,10 -10,0 0,10 10,0 0,10 10,0 0,-10 -10,0 0,-10 10,0 0,-10 10,0 0,10 10,0 0,-10 -10,0 0,-10 10,0 0,-10 -10,0 0,-10 -10,0 0,10 -10,0 0,-10 10,0 0,-10 10,0 0,10 10,0 0,-10 10,0 0,10 -10,0 0,10 10,0 0,10 10,0 0,-10 10,0 0,10 -10,0 0,10 -10,0 0,-10 -10,0 0,10 10,0 0,10 -10,0 0,10 10,0 0,10 10,0 0,-10 -10,0 0,-10 10,0 0,-10 10,0 0,10 10,0 0,-10 10,0 0,10 -10,0 0,10 10,0 0,10 10,0 0,-10 -10,0 0,-10 10,0 0,-10 10,0 0,10 10,0 0,-10 -10,0 0,-10 10,0 0,-10 -10,0 0,-10 -10,0 0,10 -10,0 0,-10 10,0 0,-10 10,0 0,10 10,0 0,-10 10,0 0,10 -10,0 0,10 10,0 0,10 10,0 0,-10 10,0 0,10 -10,0 0,10 -10,0 0,-10 -10,0 0,10 10,0 0,10 -10,0 0,10 10,0 0,10 10,0 0,-10 10,0 0,10 -10,0 0,10 -10,0 0,-10 -10,0 0,10 -10,0 0,-10 10,0 0,-10 -10,0 0,-10 -10,0 0,10 10,0 0,10 -10,0 0,10 -10,0 0,-10 -10,0 0,10 10,0 0,10 -10,0 0,10 10,0 0,10 10,0 0,-10 -10,0 0,-10 10,0 0,-10 10,0 0,10 10,0 0,-10 10,0 0,10 -10,0 0,10 10,0 0,10 10,0 0,-10 10,0 0,10 -10,0 0,10 -10,0 0,-10 -10,0 0,10 10,0 0,10 -10,0 0,10 10,0 0,10 10,0 0,-10 -10,0 0,-10 10,0 0,-10 10,0 0,10 10,0 0,-10 10,0 0,10 -10,0 0,10 10,0 0,10 10,0 0,-10 -10,0 0,-10 10,0 0,-10 10,0 0,10 10,0 0,-10 -10,0 0,-10 10,0 0,-10 -10,0 0,-10 -10,0 0,10 10,0 0,10 -10,0 0,10 -10,0 0,-10 -10,0 0,10 -10,0 0,-10 10,0 0,-10 -10,0 0,-10 -10,0 0,10 -10,0 0,-10 10,0 0,-10 10,0 0,10 10,0 0,-10 -10,0 0,-10 10,0 0,-10 -10,0 0,-10 -10,0 0,10 -10,0 0,-10 10,0 0,-10 10,0 0,10 10,0 0,-10 10,0 0,10 -10,0 0,10 10,0 0,10 10,0 0,-10 -10,0 0,-10 10,0 0,-10 10,0 0,10 10,0 0,-10 -10,0 0,-10 10,0 0,-10 -10,0 0,-10 -10,0 0,10 -10,0 0,-10 10,0 0,-10 10,0 0,10 10,0 0,-10 10,0 0,10 -10,0 0,10 10,0 0,10 10,0 0,-10 10,0 0,10 -10,0 0,10 -10,0 0,-10 -10,0 0,10 10,0 0,10 -10,0 0,10 10,0 0,10 10,0 0,-10 -10,0 0,-10 10,0 0,-10 10,0 0,10 10,0 0,-10 10,0 0,10 -10,0 0,10 10,0 0,10 10,0 0,-10 -10,0 0,-10 10,0 0,-10 10,0 0,10 10,0 0,-10 -10,0 0,-10 10,0 0,-10 -10,0 0,-10 -10,0 0,10 10,0 0,10 -10,0 0,10 -10,0 0,-10 -10,0 0,10 -10,0 0,-10 10,0 0,-10 -10,0 0,-10 -10,0 0,10 -10,0 0,-10 10,0 0,-10 10,0 0,10 10,0 0,-10 -10,0 0,-10 10,0 0,-10 -10,0 0,-10 -10,0 0,10 -10,0 0,-10 10,0 0,-10 10,0 0,10 10,0 0,-10 10,0 0,10 -10,0 0,10 10,0 0,10 10,0 0,-10 -10,0 0,-10 10,0 0,-10 10,0 0,10 10,0 0,-10 -10,0 0,-10 10,0 0,-10 -10,0 0,-10 -10,0 0,10 10,0 0,10 -10,0 0,10 -10,0 0,-10 -10,0 0,10 -10,0 0,-10 10,0 0,-10 -10,0 0,-10 -10,0 0,10 -10,0 0,-10 10,0 0,-10 10,0 0,10 10,0 0,-10 -10,0 0,-10 10,0 0,-10 -10,0 0,-10 -10,0 0,10 10,0 0,10 -10,0 0,10 -10,0 0,-10 -10,0 0,10 -10,0 0,-10 10,0 0,-10 -10,0 0,-10 -10,0 0,10 10,0 0,10 -10,0 0,10 -10,0 0,-10 -10,0 0,10 10,0 0,10 -10,0 0,10 10,0 0,10 10,0 0,-10"
       style="fill:none;fill-opacity:1;stroke:#000000;stroke-width:1;stroke-linecap:butt;stroke-linejoin:miter;stroke-opacity:1"
       inkscape:connector-curvature="0" />
  </g>
</svg>
