<?xml version="1.0" encoding="UTF-8" standalone="no"?>
<!-- Created with Inkscape (http://www.inkscape.org/) -->

<svg
   xmlns:dc="http://purl.org/dc/elements/1.1/"
   xmlns:cc="http://creativecommons.org/ns#"
   xmlns:rdf="http://www.w3.org/1999/02/22-rdf-syntax-ns#"
   xmlns:svg="http://www.w3.org/2000/svg"
   xmlns="http://www.w3.org/2000/svg"
   xmlns:sodipodi="http://sodipodi.sourceforge.net/DTD/sodipodi-0.dtd"
   xmlns:inkscape="http://www.inkscape.org/namespaces/inkscape"
   width="147.33223mm"
   height="28.234444mm"
   viewBox="0 0 522.04333 100.0433"
   id="svg4490"
   version="1.1"
   inkscape:version="0.91 r13725"
   sodipodi:docname="Nicht-Fraktal-mehr-Schritte.svg">
  <sodipodi:namedview
     id="base"
     pagecolor="#ffffff"
     bordercolor="#666666"
     borderopacity="1.0"
     inkscape:pageopacity="0.0"
     inkscape:pageshadow="2"
     inkscape:zoom="0.49497475"
     inkscape:cx="564.37796"
     inkscape:cy="410.13805"
     inkscape:document-units="px"
     inkscape:current-layer="layer1"
     showgrid="true"
     inkscape:window-width="1205"
     inkscape:window-height="697"
     inkscape:window-x="67"
     inkscape:window-y="-8"
     inkscape:window-maximized="1"
     inkscape:snap-grids="true"
     inkscape:object-nodes="true"
     fit-margin-top="0.5"
     fit-margin-left="0.5"
     fit-margin-right="0.5"
     fit-margin-bottom="0.5"
     inkscape:snap-intersection-paths="true">
    <inkscape:grid
       id="grid5073"
       type="xygrid"
       originx="29.771653"
       originy="-525.72832" />
  </sodipodi:namedview>
  <defs
     id="defs4492">
    <marker
       inkscape:stockid="Arrow1Mend"
       orient="auto"
       refY="0"
       refX="0"
       id="Arrow1Mend"
       style="overflow:visible"
       inkscape:isstock="true">
      <path
         id="path4205"
         d="M 0,0 5,-5 -12.5,0 5,5 0,0 Z"
         style="fill:#000000;fill-opacity:1;fill-rule:evenodd;stroke:#000000;stroke-width:1pt;stroke-opacity:1"
         transform="matrix(-0.4,0,0,-0.4,-4,0)"
         inkscape:connector-curvature="0" />
    </marker>
    <marker
       inkscape:stockid="Arrow1Mend"
       orient="auto"
       refY="0"
       refX="0"
       id="Arrow1Mend-2"
       style="overflow:visible"
       inkscape:isstock="true">
      <path
         inkscape:connector-curvature="0"
         id="path4205-5"
         d="M 0,0 5,-5 -12.5,0 5,5 0,0 Z"
         style="fill:#000000;fill-opacity:1;fill-rule:evenodd;stroke:#000000;stroke-width:1pt;stroke-opacity:1"
         transform="matrix(-0.4,0,0,-0.4,-4,0)" />
    </marker>
    <marker
       inkscape:stockid="Arrow1Mend"
       orient="auto"
       refY="0"
       refX="0"
       id="Arrow1Mend-2-3"
       style="overflow:visible"
       inkscape:isstock="true">
      <path
         inkscape:connector-curvature="0"
         id="path4205-5-6"
         d="M 0,0 5,-5 -12.5,0 5,5 0,0 Z"
         style="fill:#000000;fill-opacity:1;fill-rule:evenodd;stroke:#000000;stroke-width:1pt;stroke-opacity:1"
         transform="matrix(-0.4,0,0,-0.4,-4,0)" />
    </marker>
  </defs>
  <metadata
     id="metadata4495">
    <rdf:RDF>
      <cc:Work
         rdf:about="">
        <dc:format>image/svg+xml</dc:format>
        <dc:type
           rdf:resource="http://purl.org/dc/dcmitype/StillImage" />
        <dc:title></dc:title>
      </cc:Work>
    </rdf:RDF>
  </metadata>
  <g
     inkscape:label="Ebene 1"
     inkscape:groupmode="layer"
     id="layer1"
     transform="translate(29.771648,-426.59056)">
    <path
       id="path4202"
       d="m 337.00001,524.36221 0,-3 3,0 m -3,0 -3,0 m 3,0 0,-3 3,0 0,3 m 0,-3 0,-3 m 0,3 3,0 m -6,0 -3,0 0,-3 m 0,3 0,3 m 0,-3 -3,0 m 6,0 0,-3 3,0 m -3,0 -3,0 m 3,0 0,-3 3,0 0,3 m 0,-3 0,-3 m 0,3 3,0 0,3 -3,0 m 3,0 3,0 m -3,0 0,3 m 0,-6 0,-3 3,0 m -3,0 -3,0 m 3,0 0,-3 m 0,6 3,0 0,3 m 0,-3 0,-3 m 0,3 3,0 m -12,0 -3,0 0,-3 m 0,3 0,3 m 0,-3 -3,0 0,-3 3,0 m -3,0 -3,0 m 3,0 0,-3 m 0,6 0,3 -3,0 m 3,0 3,0 m -3,0 0,3 m 0,-6 -3,0 0,-3 m 0,3 0,3 m 0,-3 -3,0 m 12,0 0,-3 3,0 m -3,0 -3,0 m 3,0 0,-3 3,0 0,3 m 0,-3 0,-3 m 0,3 3,0 m -6,0 -3,0 0,-3 m 0,3 0,3 m 0,-3 -3,0 m 6,0 0,-3 3,0 m -3,0 -3,0 m 3,0 0,-3 3,0 0,3 m 0,-3 0,-3 m 0,3 3,0 0,3 -3,0 m 3,0 3,0 m -3,0 0,3 m 0,-6 0,-3 3,0 m -3,0 -3,0 m 3,0 0,-3 m 0,6 3,0 0,3 m 0,-3 0,-3 m 0,3 3,0 0,3 -3,0 m 3,0 3,0 m -3,0 0,3 -3,0 0,-3 m 0,3 0,3 m 0,-3 -3,0 m 6,0 3,0 0,3 m 0,-3 0,-3 m 0,3 3,0 m -6,0 0,3 -3,0 m 3,0 3,0 m -3,0 0,3 m 0,-12 0,-3 3,0 m -3,0 -3,0 m 3,0 0,-3 3,0 0,3 m 0,-3 0,-3 m 0,3 3,0 m -6,0 -3,0 0,-3 m 0,3 0,3 m 0,-3 -3,0 m 6,0 0,-3 3,0 m -3,0 -3,0 m 3,0 0,-3 m 0,12 3,0 0,3 m 0,-3 0,-3 m 0,3 3,0 0,3 -3,0 m 3,0 3,0 m -3,0 0,3 m 0,-6 0,-3 3,0 m -3,0 -3,0 m 3,0 0,-3 m 0,6 3,0 0,3 m 0,-3 0,-3 m 0,3 3,0 m -24,0 -3,0 0,-3 m 0,3 0,3 m 0,-3 -3,0 0,-3 3,0 m -3,0 -3,0 m 3,0 0,-3 m 0,6 0,3 -3,0 m 3,0 3,0 m -3,0 0,3 m 0,-6 -3,0 0,-3 m 0,3 0,3 m 0,-3 -3,0 0,-3 3,0 m -3,0 -3,0 m 3,0 0,-3 3,0 0,3 m 0,-3 0,-3 m 0,3 3,0 m -6,0 -3,0 0,-3 m 0,3 0,3 m 0,-3 -3,0 m 6,0 0,-3 3,0 m -3,0 -3,0 m 3,0 0,-3 m 0,12 0,3 -3,0 m 3,0 3,0 m -3,0 0,3 -3,0 0,-3 m 0,3 0,3 m 0,-3 -3,0 m 6,0 3,0 0,3 m 0,-3 0,-3 m 0,3 3,0 m -6,0 0,3 -3,0 m 3,0 3,0 m -3,0 0,3 m 0,-12 -3,0 0,-3 m 0,3 0,3 m 0,-3 -3,0 0,-3 3,0 m -3,0 -3,0 m 3,0 0,-3 m 0,6 0,3 -3,0 m 3,0 3,0 m -3,0 0,3 m 0,-6 -3,0 0,-3 m 0,3 0,3 m 0,-3 -3,0 m 24,0 0,-3 3,0 m -3,0 -3,0 m 3,0 0,-3 3,0 0,3 m 0,-3 0,-3 m 0,3 3,0 m -6,0 -3,0 0,-3 m 0,3 0,3 m 0,-3 -3,0 m 6,0 0,-3 3,0 m -3,0 -3,0 m 3,0 0,-3 3,0 0,3 m 0,-3 0,-3 m 0,3 3,0 0,3 -3,0 m 3,0 3,0 m -3,0 0,3 m 0,-6 0,-3 3,0 m -3,0 -3,0 m 3,0 0,-3 m 0,6 3,0 0,3 m 0,-3 0,-3 m 0,3 3,0 m -12,0 -3,0 0,-3 m 0,3 0,3 m 0,-3 -3,0 0,-3 3,0 m -3,0 -3,0 m 3,0 0,-3 m 0,6 0,3 -3,0 m 3,0 3,0 m -3,0 0,3 m 0,-6 -3,0 0,-3 m 0,3 0,3 m 0,-3 -3,0 m 12,0 0,-3 3,0 m -3,0 -3,0 m 3,0 0,-3 3,0 0,3 m 0,-3 0,-3 m 0,3 3,0 m -6,0 -3,0 0,-3 m 0,3 0,3 m 0,-3 -3,0 m 6,0 0,-3 3,0 m -3,0 -3,0 m 3,0 0,-3 3,0 0,3 m 0,-3 0,-3 m 0,3 3,0 0,3 -3,0 m 3,0 3,0 m -3,0 0,3 m 0,-6 0,-3 3,0 m -3,0 -3,0 m 3,0 0,-3 m 0,6 3,0 0,3 m 0,-3 0,-3 m 0,3 3,0 0,3 -3,0 m 3,0 3,0 m -3,0 0,3 -3,0 0,-3 m 0,3 0,3 m 0,-3 -3,0 m 6,0 3,0 0,3 m 0,-3 0,-3 m 0,3 3,0 m -6,0 0,3 -3,0 m 3,0 3,0 m -3,0 0,3 m 0,-12 0,-3 3,0 m -3,0 -3,0 m 3,0 0,-3 3,0 0,3 m 0,-3 0,-3 m 0,3 3,0 m -6,0 -3,0 0,-3 m 0,3 0,3 m 0,-3 -3,0 m 6,0 0,-3 3,0 m -3,0 -3,0 m 3,0 0,-3 m 0,12 3,0 0,3 m 0,-3 0,-3 m 0,3 3,0 0,3 -3,0 m 3,0 3,0 m -3,0 0,3 m 0,-6 0,-3 3,0 m -3,0 -3,0 m 3,0 0,-3 m 0,6 3,0 0,3 m 0,-3 0,-3 m 0,3 3,0 0,3 -3,0 m 3,0 3,0 m -3,0 0,3 -3,0 0,-3 m 0,3 0,3 m 0,-3 -3,0 m 6,0 3,0 0,3 m 0,-3 0,-3 m 0,3 3,0 m -6,0 0,3 -3,0 m 3,0 3,0 m -3,0 0,3 -3,0 0,-3 m 0,3 0,3 m 0,-3 -3,0 0,-3 3,0 m -3,0 -3,0 m 3,0 0,-3 m 0,6 0,3 -3,0 m 3,0 3,0 m -3,0 0,3 m 0,-6 -3,0 0,-3 m 0,3 0,3 m 0,-3 -3,0 m 12,0 3,0 0,3 m 0,-3 0,-3 m 0,3 3,0 0,3 -3,0 m 3,0 3,0 m -3,0 0,3 m 0,-6 0,-3 3,0 m -3,0 -3,0 m 3,0 0,-3 m 0,6 3,0 0,3 m 0,-3 0,-3 m 0,3 3,0 m -12,0 0,3 -3,0 m 3,0 3,0 m -3,0 0,3 -3,0 0,-3 m 0,3 0,3 m 0,-3 -3,0 m 6,0 3,0 0,3 m 0,-3 0,-3 m 0,3 3,0 m -6,0 0,3 -3,0 m 3,0 3,0 m -3,0 0,3 m 0,-24 0,-3 3,0 m -3,0 -3,0 m 3,0 0,-3 3,0 0,3 m 0,-3 0,-3 m 0,3 3,0 m -6,0 -3,0 0,-3 m 0,3 0,3 m 0,-3 -3,0 m 6,0 0,-3 3,0 m -3,0 -3,0 m 3,0 0,-3 3,0 0,3 m 0,-3 0,-3 m 0,3 3,0 0,3 -3,0 m 3,0 3,0 m -3,0 0,3 m 0,-6 0,-3 3,0 m -3,0 -3,0 m 3,0 0,-3 m 0,6 3,0 0,3 m 0,-3 0,-3 m 0,3 3,0 m -12,0 -3,0 0,-3 m 0,3 0,3 m 0,-3 -3,0 0,-3 3,0 m -3,0 -3,0 m 3,0 0,-3 m 0,6 0,3 -3,0 m 3,0 3,0 m -3,0 0,3 m 0,-6 -3,0 0,-3 m 0,3 0,3 m 0,-3 -3,0 m 12,0 0,-3 3,0 m -3,0 -3,0 m 3,0 0,-3 3,0 0,3 m 0,-3 0,-3 m 0,3 3,0 m -6,0 -3,0 0,-3 m 0,3 0,3 m 0,-3 -3,0 m 6,0 0,-3 3,0 m -3,0 -3,0 m 3,0 0,-3 m 0,24 3,0 0,3 m 0,-3 0,-3 m 0,3 3,0 0,3 -3,0 m 3,0 3,0 m -3,0 0,3 m 0,-6 0,-3 3,0 m -3,0 -3,0 m 3,0 0,-3 m 0,6 3,0 0,3 m 0,-3 0,-3 m 0,3 3,0 0,3 -3,0 m 3,0 3,0 m -3,0 0,3 -3,0 0,-3 m 0,3 0,3 m 0,-3 -3,0 m 6,0 3,0 0,3 m 0,-3 0,-3 m 0,3 3,0 m -6,0 0,3 -3,0 m 3,0 3,0 m -3,0 0,3 m 0,-12 0,-3 3,0 m -3,0 -3,0 m 3,0 0,-3 3,0 0,3 m 0,-3 0,-3 m 0,3 3,0 m -6,0 -3,0 0,-3 m 0,3 0,3 m 0,-3 -3,0 m 6,0 0,-3 3,0 m -3,0 -3,0 m 3,0 0,-3 m 0,12 3,0 0,3 m 0,-3 0,-3 m 0,3 3,0 0,3 -3,0 m 3,0 3,0 m -3,0 0,3 m 0,-6 0,-3 3,0 m -3,0 -3,0 m 3,0 0,-3 m 0,6 3,0 0,3 m 0,-3 0,-3 m 0,3 3,0 m -48,0 -3,0 0,-3 m 0,3 0,3 m 0,-3 -3,0 0,-3 3,0 m -3,0 -3,0 m 3,0 0,-3 m 0,6 0,3 -3,0 m 3,0 3,0 m -3,0 0,3 m 0,-6 -3,0 0,-3 m 0,3 0,3 m 0,-3 -3,0 0,-3 3,0 m -3,0 -3,0 m 3,0 0,-3 3,0 0,3 m 0,-3 0,-3 m 0,3 3,0 m -6,0 -3,0 0,-3 m 0,3 0,3 m 0,-3 -3,0 m 6,0 0,-3 3,0 m -3,0 -3,0 m 3,0 0,-3 m 0,12 0,3 -3,0 m 3,0 3,0 m -3,0 0,3 -3,0 0,-3 m 0,3 0,3 m 0,-3 -3,0 m 6,0 3,0 0,3 m 0,-3 0,-3 m 0,3 3,0 m -6,0 0,3 -3,0 m 3,0 3,0 m -3,0 0,3 m 0,-12 -3,0 0,-3 m 0,3 0,3 m 0,-3 -3,0 0,-3 3,0 m -3,0 -3,0 m 3,0 0,-3 m 0,6 0,3 -3,0 m 3,0 3,0 m -3,0 0,3 m 0,-6 -3,0 0,-3 m 0,3 0,3 m 0,-3 -3,0 0,-3 3,0 m -3,0 -3,0 m 3,0 0,-3 3,0 0,3 m 0,-3 0,-3 m 0,3 3,0 m -6,0 -3,0 0,-3 m 0,3 0,3 m 0,-3 -3,0 m 6,0 0,-3 3,0 m -3,0 -3,0 m 3,0 0,-3 3,0 0,3 m 0,-3 0,-3 m 0,3 3,0 0,3 -3,0 m 3,0 3,0 m -3,0 0,3 m 0,-6 0,-3 3,0 m -3,0 -3,0 m 3,0 0,-3 m 0,6 3,0 0,3 m 0,-3 0,-3 m 0,3 3,0 m -12,0 -3,0 0,-3 m 0,3 0,3 m 0,-3 -3,0 0,-3 3,0 m -3,0 -3,0 m 3,0 0,-3 m 0,6 0,3 -3,0 m 3,0 3,0 m -3,0 0,3 m 0,-6 -3,0 0,-3 m 0,3 0,3 m 0,-3 -3,0 m 12,0 0,-3 3,0 m -3,0 -3,0 m 3,0 0,-3 3,0 0,3 m 0,-3 0,-3 m 0,3 3,0 m -6,0 -3,0 0,-3 m 0,3 0,3 m 0,-3 -3,0 m 6,0 0,-3 3,0 m -3,0 -3,0 m 3,0 0,-3 m 0,24 0,3 -3,0 m 3,0 3,0 m -3,0 0,3 -3,0 0,-3 m 0,3 0,3 m 0,-3 -3,0 m 6,0 3,0 0,3 m 0,-3 0,-3 m 0,3 3,0 m -6,0 0,3 -3,0 m 3,0 3,0 m -3,0 0,3 -3,0 0,-3 m 0,3 0,3 m 0,-3 -3,0 0,-3 3,0 m -3,0 -3,0 m 3,0 0,-3 m 0,6 0,3 -3,0 m 3,0 3,0 m -3,0 0,3 m 0,-6 -3,0 0,-3 m 0,3 0,3 m 0,-3 -3,0 m 12,0 3,0 0,3 m 0,-3 0,-3 m 0,3 3,0 0,3 -3,0 m 3,0 3,0 m -3,0 0,3 m 0,-6 0,-3 3,0 m -3,0 -3,0 m 3,0 0,-3 m 0,6 3,0 0,3 m 0,-3 0,-3 m 0,3 3,0 m -12,0 0,3 -3,0 m 3,0 3,0 m -3,0 0,3 -3,0 0,-3 m 0,3 0,3 m 0,-3 -3,0 m 6,0 3,0 0,3 m 0,-3 0,-3 m 0,3 3,0 m -6,0 0,3 -3,0 m 3,0 3,0 m -3,0 0,3 m 0,-24 -3,0 0,-3 m 0,3 0,3 m 0,-3 -3,0 0,-3 3,0 m -3,0 -3,0 m 3,0 0,-3 m 0,6 0,3 -3,0 m 3,0 3,0 m -3,0 0,3 m 0,-6 -3,0 0,-3 m 0,3 0,3 m 0,-3 -3,0 0,-3 3,0 m -3,0 -3,0 m 3,0 0,-3 3,0 0,3 m 0,-3 0,-3 m 0,3 3,0 m -6,0 -3,0 0,-3 m 0,3 0,3 m 0,-3 -3,0 m 6,0 0,-3 3,0 m -3,0 -3,0 m 3,0 0,-3 m 0,12 0,3 -3,0 m 3,0 3,0 m -3,0 0,3 -3,0 0,-3 m 0,3 0,3 m 0,-3 -3,0 m 6,0 3,0 0,3 m 0,-3 0,-3 m 0,3 3,0 m -6,0 0,3 -3,0 m 3,0 3,0 m -3,0 0,3 m 0,-12 -3,0 0,-3 m 0,3 0,3 m 0,-3 -3,0 0,-3 3,0 m -3,0 -3,0 m 3,0 0,-3 m 0,6 0,3 -3,0 m 3,0 3,0 m -3,0 0,3 m 0,-6 -3,0 0,-3 m 0,3 0,3 m 0,-3 -3,0 m 48,0 0,-3 3,0 m -3,0 -3,0 m 3,0 0,-3 3,0 0,3 m 0,-3 0,-3 m 0,3 3,0 m -6,0 -3,0 0,-3 m 0,3 0,3 m 0,-3 -3,0 m 6,0 0,-3 3,0 m -3,0 -3,0 m 3,0 0,-3 3,0 0,3 m 0,-3 0,-3 m 0,3 3,0 0,3 -3,0 m 3,0 3,0 m -3,0 0,3 m 0,-6 0,-3 3,0 m -3,0 -3,0 m 3,0 0,-3 m 0,6 3,0 0,3 m 0,-3 0,-3 m 0,3 3,0 m -12,0 -3,0 0,-3 m 0,3 0,3 m 0,-3 -3,0 0,-3 3,0 m -3,0 -3,0 m 3,0 0,-3 m 0,6 0,3 -3,0 m 3,0 3,0 m -3,0 0,3 m 0,-6 -3,0 0,-3 m 0,3 0,3 m 0,-3 -3,0 m 12,0 0,-3 3,0 m -3,0 -3,0 m 3,0 0,-3 3,0 0,3 m 0,-3 0,-3 m 0,3 3,0 m -6,0 -3,0 0,-3 m 0,3 0,3 m 0,-3 -3,0 m 6,0 0,-3 3,0 m -3,0 -3,0 m 3,0 0,-3 3,0 0,3 m 0,-3 0,-3 m 0,3 3,0 0,3 -3,0 m 3,0 3,0 m -3,0 0,3 m 0,-6 0,-3 3,0 m -3,0 -3,0 m 3,0 0,-3 m 0,6 3,0 0,3 m 0,-3 0,-3 m 0,3 3,0 0,3 -3,0 m 3,0 3,0 m -3,0 0,3 -3,0 0,-3 m 0,3 0,3 m 0,-3 -3,0 m 6,0 3,0 0,3 m 0,-3 0,-3 m 0,3 3,0 m -6,0 0,3 -3,0 m 3,0 3,0 m -3,0 0,3 m 0,-12 0,-3 3,0 m -3,0 -3,0 m 3,0 0,-3 3,0 0,3 m 0,-3 0,-3 m 0,3 3,0 m -6,0 -3,0 0,-3 m 0,3 0,3 m 0,-3 -3,0 m 6,0 0,-3 3,0 m -3,0 -3,0 m 3,0 0,-3 m 0,12 3,0 0,3 m 0,-3 0,-3 m 0,3 3,0 0,3 -3,0 m 3,0 3,0 m -3,0 0,3 m 0,-6 0,-3 3,0 m -3,0 -3,0 m 3,0 0,-3 m 0,6 3,0 0,3 m 0,-3 0,-3 m 0,3 3,0 m -24,0 -3,0 0,-3 m 0,3 0,3 m 0,-3 -3,0 0,-3 3,0 m -3,0 -3,0 m 3,0 0,-3 m 0,6 0,3 -3,0 m 3,0 3,0 m -3,0 0,3 m 0,-6 -3,0 0,-3 m 0,3 0,3 m 0,-3 -3,0 0,-3 3,0 m -3,0 -3,0 m 3,0 0,-3 3,0 0,3 m 0,-3 0,-3 m 0,3 3,0 m -6,0 -3,0 0,-3 m 0,3 0,3 m 0,-3 -3,0 m 6,0 0,-3 3,0 m -3,0 -3,0 m 3,0 0,-3 m 0,12 0,3 -3,0 m 3,0 3,0 m -3,0 0,3 -3,0 0,-3 m 0,3 0,3 m 0,-3 -3,0 m 6,0 3,0 0,3 m 0,-3 0,-3 m 0,3 3,0 m -6,0 0,3 -3,0 m 3,0 3,0 m -3,0 0,3 m 0,-12 -3,0 0,-3 m 0,3 0,3 m 0,-3 -3,0 0,-3 3,0 m -3,0 -3,0 m 3,0 0,-3 m 0,6 0,3 -3,0 m 3,0 3,0 m -3,0 0,3 m 0,-6 -3,0 0,-3 m 0,3 0,3 m 0,-3 -3,0 m 24,0 0,-3 3,0 m -3,0 -3,0 m 3,0 0,-3 3,0 0,3 m 0,-3 0,-3 m 0,3 3,0 m -6,0 -3,0 0,-3 m 0,3 0,3 m 0,-3 -3,0 m 6,0 0,-3 3,0 m -3,0 -3,0 m 3,0 0,-3 3,0 0,3 m 0,-3 0,-3 m 0,3 3,0 0,3 -3,0 m 3,0 3,0 m -3,0 0,3 m 0,-6 0,-3 3,0 m -3,0 -3,0 m 3,0 0,-3 m 0,6 3,0 0,3 m 0,-3 0,-3 m 0,3 3,0 m -12,0 -3,0 0,-3 m 0,3 0,3 m 0,-3 -3,0 0,-3 3,0 m -3,0 -3,0 m 3,0 0,-3 m 0,6 0,3 -3,0 m 3,0 3,0 m -3,0 0,3 m 0,-6 -3,0 0,-3 m 0,3 0,3 m 0,-3 -3,0 m 12,0 0,-3 3,0 m -3,0 -3,0 m 3,0 0,-3 3,0 0,3 m 0,-3 0,-3 m 0,3 3,0 m -6,0 -3,0 0,-3 m 0,3 0,3 m 0,-3 -3,0 m 6,0 0,-3 3,0 m -3,0 -3,0 m 3,0 0,-3"
       style="fill:none;fill-opacity:1;stroke:#000000;stroke-width:1;stroke-linecap:butt;stroke-linejoin:miter;stroke-opacity:1"
       inkscape:connector-curvature="0" />
    <path
       inkscape:connector-curvature="0"
       style="fill:none;fill-opacity:1;stroke:#000000;stroke-width:1;stroke-linecap:butt;stroke-linejoin:miter;stroke-opacity:1"
       d="m 234.00001,524.36221 0,-6 6,0 m -6,0 -6,0 m 6,0 0,-6 6,0 0,6 m 0,-6 0,-6 m 0,6 6,0 m -12,0 -6,0 0,-6 m 0,6 0,6 m 0,-6 -6,0 m 12,0 0,-6 6,0 m -6,0 -6,0 m 6,0 0,-6 6,0 0,6 m 0,-6 0,-6 m 0,6 6,0 0,6 -6,0 m 6,0 6,0 m -6,0 0,6 m 0,-12 0,-6 6,0 m -6,0 -6,0 m 6,0 0,-6 m 0,12 6,0 0,6 m 0,-6 0,-6 m 0,6 6,0 m -24,0 -6,0 0,-6 m 0,6 0,6 m 0,-6 -6,0 0,-6 6,0 m -6,0 -6,0 m 6,0 0,-6 m 0,12 0,6 -6,0 m 6,0 6,0 m -6,0 0,6 m 0,-12 -6,0 0,-6 m 0,6 0,6 m 0,-6 -6,0 m 24,0 0,-6 6,0 m -6,0 -6,0 m 6,0 0,-6 6,0 0,6 m 0,-6 0,-6 m 0,6 6,0 m -12,0 -6,0 0,-6 m 0,6 0,6 m 0,-6 -6,0 m 12,0 0,-6 6,0 m -6,0 -6,0 m 6,0 0,-6 6,0 0,6 m 0,-6 0,-6 m 0,6 6,0 0,6 -6,0 m 6,0 6,0 m -6,0 0,6 m 0,-12 0,-6 6,0 m -6,0 -6,0 m 6,0 0,-6 m 0,12 6,0 0,6 m 0,-6 0,-6 m 0,6 6,0 0,6 -6,0 m 6,0 6,0 m -6,0 0,6 -6,0 0,-6 m 0,6 0,6 m 0,-6 -6,0 m 12,0 6,0 0,6 m 0,-6 0,-6 m 0,6 6,0 m -12,0 0,6 -6,0 m 6,0 6,0 m -6,0 0,6 m 0,-24 0,-6 6,0 m -6,0 -6,0 m 6,0 0,-6 6,0 0,6 m 0,-6 0,-6 m 0,6 6,0 m -12,0 -6,0 0,-6 m 0,6 0,6 m 0,-6 -6,0 m 12,0 0,-6 6,0 m -6,0 -6,0 m 6,0 0,-6 m 0,24 6,0 0,6 m 0,-6 0,-6 m 0,6 6,0 0,6 -6,0 m 6,0 6,0 m -6,0 0,6 m 0,-12 0,-6 6,0 m -6,0 -6,0 m 6,0 0,-6 m 0,12 6,0 0,6 m 0,-6 0,-6 m 0,6 6,0 m -48,0 -6,0 0,-6 m 0,6 0,6 m 0,-6 -6,0 0,-6 6,0 m -6,0 -6,0 m 6,0 0,-6 m 0,12 0,6 -6,0 m 6,0 6,0 m -6,0 0,6 m 0,-12 -6,0 0,-6 m 0,6 0,6 m 0,-6 -6,0 0,-6 6,0 m -6,0 -6,0 m 6,0 0,-6 6,0 0,6 m 0,-6 0,-6 m 0,6 6,0 m -12,0 -6,0 0,-6 m 0,6 0,6 m 0,-6 -6,0 m 12,0 0,-6 6,0 m -6,0 -6,0 m 6,0 0,-6 m 0,24 0,6 -6,0 m 6,0 6,0 m -6,0 0,6 -6,0 0,-6 m 0,6 0,6 m 0,-6 -6,0 m 12,0 6,0 0,6 m 0,-6 0,-6 m 0,6 6,0 m -12,0 0,6 -6,0 m 6,0 6,0 m -6,0 0,6 m 0,-24 -6,0 0,-6 m 0,6 0,6 m 0,-6 -6,0 0,-6 6,0 m -6,0 -6,0 m 6,0 0,-6 m 0,12 0,6 -6,0 m 6,0 6,0 m -6,0 0,6 m 0,-12 -6,0 0,-6 m 0,6 0,6 m 0,-6 -6,0 m 48,0 0,-6 6,0 m -6,0 -6,0 m 6,0 0,-6 6,0 0,6 m 0,-6 0,-6 m 0,6 6,0 m -12,0 -6,0 0,-6 m 0,6 0,6 m 0,-6 -6,0 m 12,0 0,-6 6,0 m -6,0 -6,0 m 6,0 0,-6 6,0 0,6 m 0,-6 0,-6 m 0,6 6,0 0,6 -6,0 m 6,0 6,0 m -6,0 0,6 m 0,-12 0,-6 6,0 m -6,0 -6,0 m 6,0 0,-6 m 0,12 6,0 0,6 m 0,-6 0,-6 m 0,6 6,0 m -24,0 -6,0 0,-6 m 0,6 0,6 m 0,-6 -6,0 0,-6 6,0 m -6,0 -6,0 m 6,0 0,-6 m 0,12 0,6 -6,0 m 6,0 6,0 m -6,0 0,6 m 0,-12 -6,0 0,-6 m 0,6 0,6 m 0,-6 -6,0 m 24,0 0,-6 6,0 m -6,0 -6,0 m 6,0 0,-6 6,0 0,6 m 0,-6 0,-6 m 0,6 6,0 m -12,0 -6,0 0,-6 m 0,6 0,6 m 0,-6 -6,0 m 12,0 0,-6 6,0 m -6,0 -6,0 m 6,0 0,-6"
       id="path4228" />
    <path
       id="path4256"
       d="m 130.00001,524.36221 0,-12 12,0 m -12,0 -12,0 m 12,0 0,-12 12,0 0,12 m 0,-12 0,-12 m 0,12 12,0 m -24,0 -12,0 0,-12 m 0,12 0,12 m 0,-12 -12,0 m 24,0 0,-12 12,0 m -12,0 -12,0 m 12,0 0,-12 12,0 0,12 m 0,-12 0,-12 m 0,12 12,0 0,12 -12,0 m 12,0 12,0 m -12,0 0,12 m 0,-24 0,-12 12,0 m -12,0 -12,0 m 12,0 0,-12 m 0,24 12,0 0,12 m 0,-12 0,-12 m 0,12 12,0 m -48,0 -12,0 0,-12 m 0,12 0,12 m 0,-12 -12,0 0,-12 12,0 m -12,0 -12.00002,0 m 12.00002,0 0,-12 m 0,24 0,12 -12.00002,0 m 12.00002,0 12,0 m -12,0 0,12 m 0,-24 -12.00002,0 0,-12 m 0,12 0,12 m 0,-12 -12,0 m 48.00002,0 0,-12 12,0 m -12,0 -12,0 m 12,0 0,-12 12,0 0,12 m 0,-12 0,-12 m 0,12 12,0 m -24,0 -12,0 0,-12 m 0,12 0,12 m 0,-12 -12,0 m 24,0 0,-12 12,0 m -12,0 -12,0 m 12,0 0,-12"
       style="fill:none;fill-opacity:1;stroke:#000000;stroke-width:1;stroke-linecap:butt;stroke-linejoin:miter;stroke-opacity:1"
       inkscape:connector-curvature="0" />
    <path
       inkscape:connector-curvature="0"
       style="fill:none;fill-opacity:1;stroke:#000000;stroke-width:1;stroke-linecap:butt;stroke-linejoin:miter;stroke-opacity:1"
       d="m 20.000006,524.36221 0,-24 24,0 m -24,0 -24.0000009,0 m 24.0000009,0 0,-24 24,0 0,24 m 0,-24 0,-24 m 0,24 24,0 m -48,0 -24.0000009,0 0,-24 m 0,24 0,24 m 0,-24 -23.9999991,0 m 48,0 0,-24 24,0 m -24,0 -24.0000009,0 m 24.0000009,0 0,-24"
       id="path4286" />
    <path
       id="path4318"
       d="m 442.50001,524.86221 0,-1.5 1.5,0 m -1.5,0 -1.5,0 m 1.5,0 0,-1.5 1.5,0 0,1.5 m 0,-1.5 0,-1.5 m 0,1.5 1.5,0 m -3,0 -1.5,0 0,-1.5 m 0,1.5 0,1.5 m 0,-1.5 -1.5,0 m 3,0 0,-1.5 1.5,0 m -1.5,0 -1.5,0 m 1.5,0 0,-1.5 1.5,0 0,1.5 m 0,-1.5 0,-1.5 m 0,1.5 1.5,0 0,1.5 -1.5,0 m 1.5,0 1.5,0 m -1.5,0 0,1.5 m 0,-3 0,-1.5 1.5,0 m -1.5,0 -1.5,0 m 1.5,0 0,-1.5 m 0,3 1.5,0 0,1.5 m 0,-1.5 0,-1.5 m 0,1.5 1.5,0 m -6,0 -1.5,0 0,-1.5 m 0,1.5 0,1.5 m 0,-1.5 -1.5,0 0,-1.5 1.5,0 m -1.5,0 -1.5,0 m 1.5,0 0,-1.5 m 0,3 0,1.5 -1.5,0 m 1.5,0 1.5,0 m -1.5,0 0,1.5 m 0,-3 -1.5,0 0,-1.5 m 0,1.5 0,1.5 m 0,-1.5 -1.5,0 m 6,0 0,-1.5 1.5,0 m -1.5,0 -1.5,0 m 1.5,0 0,-1.5 1.5,0 0,1.5 m 0,-1.5 0,-1.5 m 0,1.5 1.5,0 m -3,0 -1.5,0 0,-1.5 m 0,1.5 0,1.5 m 0,-1.5 -1.5,0 m 3,0 0,-1.5 1.5,0 m -1.5,0 -1.5,0 m 1.5,0 0,-1.5 1.5,0 0,1.5 m 0,-1.5 0,-1.5 m 0,1.5 1.5,0 0,1.5 -1.5,0 m 1.5,0 1.5,0 m -1.5,0 0,1.5 m 0,-3 0,-1.5 1.5,0 m -1.5,0 -1.5,0 m 1.5,0 0,-1.5 m 0,3 1.5,0 0,1.5 m 0,-1.5 0,-1.5 m 0,1.5 1.5,0 0,1.5 -1.5,0 m 1.5,0 1.5,0 m -1.5,0 0,1.5 -1.5,0 0,-1.5 m 0,1.5 0,1.5 m 0,-1.5 -1.5,0 m 3,0 1.5,0 0,1.5 m 0,-1.5 0,-1.5 m 0,1.5 1.5,0 m -3,0 0,1.5 -1.5,0 m 1.5,0 1.5,0 m -1.5,0 0,1.5 m 0,-6 0,-1.5 1.5,0 m -1.5,0 -1.5,0 m 1.5,0 0,-1.5 1.5,0 0,1.5 m 0,-1.5 0,-1.5 m 0,1.5 1.5,0 m -3,0 -1.5,0 0,-1.5 m 0,1.5 0,1.5 m 0,-1.5 -1.5,0 m 3,0 0,-1.5 1.5,0 m -1.5,0 -1.5,0 m 1.5,0 0,-1.5 m 0,6 1.5,0 0,1.5 m 0,-1.5 0,-1.5 m 0,1.5 1.5,0 0,1.5 -1.5,0 m 1.5,0 1.5,0 m -1.5,0 0,1.5 m 0,-3 0,-1.5 1.5,0 m -1.5,0 -1.5,0 m 1.5,0 0,-1.5 m 0,3 1.5,0 0,1.5 m 0,-1.5 0,-1.5 m 0,1.5 1.5,0 m -12,0 -1.5,0 0,-1.5 m 0,1.5 0,1.5 m 0,-1.5 -1.5,0 0,-1.5 1.5,0 m -1.5,0 -1.5,0 m 1.5,0 0,-1.5 m 0,3 0,1.5 -1.5,0 m 1.5,0 1.5,0 m -1.5,0 0,1.5 m 0,-3 -1.5,0 0,-1.5 m 0,1.5 0,1.5 m 0,-1.5 -1.5,0 0,-1.5 1.5,0 m -1.5,0 -1.5,0 m 1.5,0 0,-1.5 1.5,0 0,1.5 m 0,-1.5 0,-1.5 m 0,1.5 1.5,0 m -3,0 -1.5,0 0,-1.5 m 0,1.5 0,1.5 m 0,-1.5 -1.5,0 m 3,0 0,-1.5 1.5,0 m -1.5,0 -1.5,0 m 1.5,0 0,-1.5 m 0,6 0,1.5 -1.5,0 m 1.5,0 1.5,0 m -1.5,0 0,1.5 -1.5,0 0,-1.5 m 0,1.5 0,1.5 m 0,-1.5 -1.5,0 m 3,0 1.5,0 0,1.5 m 0,-1.5 0,-1.5 m 0,1.5 1.5,0 m -3,0 0,1.5 -1.5,0 m 1.5,0 1.5,0 m -1.5,0 0,1.5 m 0,-6 -1.5,0 0,-1.5 m 0,1.5 0,1.5 m 0,-1.5 -1.5,0 0,-1.5 1.5,0 m -1.5,0 -1.5,0 m 1.5,0 0,-1.5 m 0,3 0,1.5 -1.5,0 m 1.5,0 1.5,0 m -1.5,0 0,1.5 m 0,-3 -1.5,0 0,-1.5 m 0,1.5 0,1.5 m 0,-1.5 -1.5,0 m 12,0 0,-1.5 1.5,0 m -1.5,0 -1.5,0 m 1.5,0 0,-1.5 1.5,0 0,1.5 m 0,-1.5 0,-1.5 m 0,1.5 1.5,0 m -3,0 -1.5,0 0,-1.5 m 0,1.5 0,1.5 m 0,-1.5 -1.5,0 m 3,0 0,-1.5 1.5,0 m -1.5,0 -1.5,0 m 1.5,0 0,-1.5 1.5,0 0,1.5 m 0,-1.5 0,-1.5 m 0,1.5 1.5,0 0,1.5 -1.5,0 m 1.5,0 1.5,0 m -1.5,0 0,1.5 m 0,-3 0,-1.5 1.5,0 m -1.5,0 -1.5,0 m 1.5,0 0,-1.5 m 0,3 1.5,0 0,1.5 m 0,-1.5 0,-1.5 m 0,1.5 1.5,0 m -6,0 -1.5,0 0,-1.5 m 0,1.5 0,1.5 m 0,-1.5 -1.5,0 0,-1.5 1.5,0 m -1.5,0 -1.5,0 m 1.5,0 0,-1.5 m 0,3 0,1.5 -1.5,0 m 1.5,0 1.5,0 m -1.5,0 0,1.5 m 0,-3 -1.5,0 0,-1.5 m 0,1.5 0,1.5 m 0,-1.5 -1.5,0 m 6,0 0,-1.5 1.5,0 m -1.5,0 -1.5,0 m 1.5,0 0,-1.5 1.5,0 0,1.5 m 0,-1.5 0,-1.5 m 0,1.5 1.5,0 m -3,0 -1.5,0 0,-1.5 m 0,1.5 0,1.5 m 0,-1.5 -1.5,0 m 3,0 0,-1.5 1.5,0 m -1.5,0 -1.5,0 m 1.5,0 0,-1.5 1.5,0 0,1.5 m 0,-1.5 0,-1.5 m 0,1.5 1.5,0 0,1.5 -1.5,0 m 1.5,0 1.5,0 m -1.5,0 0,1.5 m 0,-3 0,-1.5 1.5,0 m -1.5,0 -1.5,0 m 1.5,0 0,-1.5 m 0,3 1.5,0 0,1.5 m 0,-1.5 0,-1.5 m 0,1.5 1.5,0 0,1.5 -1.5,0 m 1.5,0 1.5,0 m -1.5,0 0,1.5 -1.5,0 0,-1.5 m 0,1.5 0,1.5 m 0,-1.5 -1.5,0 m 3,0 1.5,0 0,1.5 m 0,-1.5 0,-1.5 m 0,1.5 1.5,0 m -3,0 0,1.5 -1.5,0 m 1.5,0 1.5,0 m -1.5,0 0,1.5 m 0,-6 0,-1.5 1.5,0 m -1.5,0 -1.5,0 m 1.5,0 0,-1.5 1.5,0 0,1.5 m 0,-1.5 0,-1.5 m 0,1.5 1.5,0 m -3,0 -1.5,0 0,-1.5 m 0,1.5 0,1.5 m 0,-1.5 -1.5,0 m 3,0 0,-1.5 1.5,0 m -1.5,0 -1.5,0 m 1.5,0 0,-1.5 m 0,6 1.5,0 0,1.5 m 0,-1.5 0,-1.5 m 0,1.5 1.5,0 0,1.5 -1.5,0 m 1.5,0 1.5,0 m -1.5,0 0,1.5 m 0,-3 0,-1.5 1.5,0 m -1.5,0 -1.5,0 m 1.5,0 0,-1.5 m 0,3 1.5,0 0,1.5 m 0,-1.5 0,-1.5 m 0,1.5 1.5,0 0,1.5 -1.5,0 m 1.5,0 1.5,0 m -1.5,0 0,1.5 -1.5,0 0,-1.5 m 0,1.5 0,1.5 m 0,-1.5 -1.5,0 m 3,0 1.5,0 0,1.5 m 0,-1.5 0,-1.5 m 0,1.5 1.5,0 m -3,0 0,1.5 -1.5,0 m 1.5,0 1.5,0 m -1.5,0 0,1.5 -1.5,0 0,-1.5 m 0,1.5 0,1.5 m 0,-1.5 -1.5,0 0,-1.5 1.5,0 m -1.5,0 -1.5,0 m 1.5,0 0,-1.5 m 0,3 0,1.5 -1.5,0 m 1.5,0 1.5,0 m -1.5,0 0,1.5 m 0,-3 -1.5,0 0,-1.5 m 0,1.5 0,1.5 m 0,-1.5 -1.5,0 m 6,0 1.5,0 0,1.5 m 0,-1.5 0,-1.5 m 0,1.5 1.5,0 0,1.5 -1.5,0 m 1.5,0 1.5,0 m -1.5,0 0,1.5 m 0,-3 0,-1.5 1.5,0 m -1.5,0 -1.5,0 m 1.5,0 0,-1.5 m 0,3 1.5,0 0,1.5 m 0,-1.5 0,-1.5 m 0,1.5 1.5,0 m -6,0 0,1.5 -1.5,0 m 1.5,0 1.5,0 m -1.5,0 0,1.5 -1.5,0 0,-1.5 m 0,1.5 0,1.5 m 0,-1.5 -1.5,0 m 3,0 1.5,0 0,1.5 m 0,-1.5 0,-1.5 m 0,1.5 1.5,0 m -3,0 0,1.5 -1.5,0 m 1.5,0 1.5,0 m -1.5,0 0,1.5 m 0,-12 0,-1.5 1.5,0 m -1.5,0 -1.5,0 m 1.5,0 0,-1.5 1.5,0 0,1.5 m 0,-1.5 0,-1.5 m 0,1.5 1.5,0 m -3,0 -1.5,0 0,-1.5 m 0,1.5 0,1.5 m 0,-1.5 -1.5,0 m 3,0 0,-1.5 1.5,0 m -1.5,0 -1.5,0 m 1.5,0 0,-1.5 1.5,0 0,1.5 m 0,-1.5 0,-1.5 m 0,1.5 1.5,0 0,1.5 -1.5,0 m 1.5,0 1.5,0 m -1.5,0 0,1.5 m 0,-3 0,-1.5 1.5,0 m -1.5,0 -1.5,0 m 1.5,0 0,-1.5 m 0,3 1.5,0 0,1.5 m 0,-1.5 0,-1.5 m 0,1.5 1.5,0 m -6,0 -1.5,0 0,-1.5 m 0,1.5 0,1.5 m 0,-1.5 -1.5,0 0,-1.5 1.5,0 m -1.5,0 -1.5,0 m 1.5,0 0,-1.5 m 0,3 0,1.5 -1.5,0 m 1.5,0 1.5,0 m -1.5,0 0,1.5 m 0,-3 -1.5,0 0,-1.5 m 0,1.5 0,1.5 m 0,-1.5 -1.5,0 m 6,0 0,-1.5 1.5,0 m -1.5,0 -1.5,0 m 1.5,0 0,-1.5 1.5,0 0,1.5 m 0,-1.5 0,-1.5 m 0,1.5 1.5,0 m -3,0 -1.5,0 0,-1.5 m 0,1.5 0,1.5 m 0,-1.5 -1.5,0 m 3,0 0,-1.5 1.5,0 m -1.5,0 -1.5,0 m 1.5,0 0,-1.5 m 0,12 1.5,0 0,1.5 m 0,-1.5 0,-1.5 m 0,1.5 1.5,0 0,1.5 -1.5,0 m 1.5,0 1.5,0 m -1.5,0 0,1.5 m 0,-3 0,-1.5 1.5,0 m -1.5,0 -1.5,0 m 1.5,0 0,-1.5 m 0,3 1.5,0 0,1.5 m 0,-1.5 0,-1.5 m 0,1.5 1.5,0 0,1.5 -1.5,0 m 1.5,0 1.5,0 m -1.5,0 0,1.5 -1.5,0 0,-1.5 m 0,1.5 0,1.5 m 0,-1.5 -1.5,0 m 3,0 1.5,0 0,1.5 m 0,-1.5 0,-1.5 m 0,1.5 1.5,0 m -3,0 0,1.5 -1.5,0 m 1.5,0 1.5,0 m -1.5,0 0,1.5 m 0,-6 0,-1.5 1.5,0 m -1.5,0 -1.5,0 m 1.5,0 0,-1.5 1.5,0 0,1.5 m 0,-1.5 0,-1.5 m 0,1.5 1.5,0 m -3,0 -1.5,0 0,-1.5 m 0,1.5 0,1.5 m 0,-1.5 -1.5,0 m 3,0 0,-1.5 1.5,0 m -1.5,0 -1.5,0 m 1.5,0 0,-1.5 m 0,6 1.5,0 0,1.5 m 0,-1.5 0,-1.5 m 0,1.5 1.5,0 0,1.5 -1.5,0 m 1.5,0 1.5,0 m -1.5,0 0,1.5 m 0,-3 0,-1.5 1.5,0 m -1.5,0 -1.5,0 m 1.5,0 0,-1.5 m 0,3 1.5,0 0,1.5 m 0,-1.5 0,-1.5 m 0,1.5 1.5,0 m -24,0 -1.5,0 0,-1.5 m 0,1.5 0,1.5 m 0,-1.5 -1.5,0 0,-1.5 1.5,0 m -1.5,0 -1.5,0 m 1.5,0 0,-1.5 m 0,3 0,1.5 -1.5,0 m 1.5,0 1.5,0 m -1.5,0 0,1.5 m 0,-3 -1.5,0 0,-1.5 m 0,1.5 0,1.5 m 0,-1.5 -1.5,0 0,-1.5 1.5,0 m -1.5,0 -1.5,0 m 1.5,0 0,-1.5 1.5,0 0,1.5 m 0,-1.5 0,-1.5 m 0,1.5 1.5,0 m -3,0 -1.5,0 0,-1.5 m 0,1.5 0,1.5 m 0,-1.5 -1.5,0 m 3,0 0,-1.5 1.5,0 m -1.5,0 -1.5,0 m 1.5,0 0,-1.5 m 0,6 0,1.5 -1.5,0 m 1.5,0 1.5,0 m -1.5,0 0,1.5 -1.5,0 0,-1.5 m 0,1.5 0,1.5 m 0,-1.5 -1.5,0 m 3,0 1.5,0 0,1.5 m 0,-1.5 0,-1.5 m 0,1.5 1.5,0 m -3,0 0,1.5 -1.5,0 m 1.5,0 1.5,0 m -1.5,0 0,1.5 m 0,-6 -1.5,0 0,-1.5 m 0,1.5 0,1.5 m 0,-1.5 -1.5,0 0,-1.5 1.5,0 m -1.5,0 -1.5,0 m 1.5,0 0,-1.5 m 0,3 0,1.5 -1.5,0 m 1.5,0 1.5,0 m -1.5,0 0,1.5 m 0,-3 -1.5,0 0,-1.5 m 0,1.5 0,1.5 m 0,-1.5 -1.5,0 0,-1.5 1.5,0 m -1.5,0 -1.5,0 m 1.5,0 0,-1.5 1.5,0 0,1.5 m 0,-1.5 0,-1.5 m 0,1.5 1.5,0 m -3,0 -1.5,0 0,-1.5 m 0,1.5 0,1.5 m 0,-1.5 -1.5,0 m 3,0 0,-1.5 1.5,0 m -1.5,0 -1.5,0 m 1.5,0 0,-1.5 1.5,0 0,1.5 m 0,-1.5 0,-1.5 m 0,1.5 1.5,0 0,1.5 -1.5,0 m 1.5,0 1.5,0 m -1.5,0 0,1.5 m 0,-3 0,-1.5 1.5,0 m -1.5,0 -1.5,0 m 1.5,0 0,-1.5 m 0,3 1.5,0 0,1.5 m 0,-1.5 0,-1.5 m 0,1.5 1.5,0 m -6,0 -1.5,0 0,-1.5 m 0,1.5 0,1.5 m 0,-1.5 -1.5,0 0,-1.5 1.5,0 m -1.5,0 -1.5,0 m 1.5,0 0,-1.5 m 0,3 0,1.5 -1.5,0 m 1.5,0 1.5,0 m -1.5,0 0,1.5 m 0,-3 -1.5,0 0,-1.5 m 0,1.5 0,1.5 m 0,-1.5 -1.5,0 m 6,0 0,-1.5 1.5,0 m -1.5,0 -1.5,0 m 1.5,0 0,-1.5 1.5,0 0,1.5 m 0,-1.5 0,-1.5 m 0,1.5 1.5,0 m -3,0 -1.5,0 0,-1.5 m 0,1.5 0,1.5 m 0,-1.5 -1.5,0 m 3,0 0,-1.5 1.5,0 m -1.5,0 -1.5,0 m 1.5,0 0,-1.5 m 0,12 0,1.5 -1.5,0 m 1.5,0 1.5,0 m -1.5,0 0,1.5 -1.5,0 0,-1.5 m 0,1.5 0,1.5 m 0,-1.5 -1.5,0 m 3,0 1.5,0 0,1.5 m 0,-1.5 0,-1.5 m 0,1.5 1.5,0 m -3,0 0,1.5 -1.5,0 m 1.5,0 1.5,0 m -1.5,0 0,1.5 -1.5,0 0,-1.5 m 0,1.5 0,1.5 m 0,-1.5 -1.5,0 0,-1.5 1.5,0 m -1.5,0 -1.5,0 m 1.5,0 0,-1.5 m 0,3 0,1.5 -1.5,0 m 1.5,0 1.5,0 m -1.5,0 0,1.5 m 0,-3 -1.5,0 0,-1.5 m 0,1.5 0,1.5 m 0,-1.5 -1.5,0 m 6,0 1.5,0 0,1.5 m 0,-1.5 0,-1.5 m 0,1.5 1.5,0 0,1.5 -1.5,0 m 1.5,0 1.5,0 m -1.5,0 0,1.5 m 0,-3 0,-1.5 1.5,0 m -1.5,0 -1.5,0 m 1.5,0 0,-1.5 m 0,3 1.5,0 0,1.5 m 0,-1.5 0,-1.5 m 0,1.5 1.5,0 m -6,0 0,1.5 -1.5,0 m 1.5,0 1.5,0 m -1.5,0 0,1.5 -1.5,0 0,-1.5 m 0,1.5 0,1.5 m 0,-1.5 -1.5,0 m 3,0 1.5,0 0,1.5 m 0,-1.5 0,-1.5 m 0,1.5 1.5,0 m -3,0 0,1.5 -1.5,0 m 1.5,0 1.5,0 m -1.5,0 0,1.5 m 0,-12 -1.5,0 0,-1.5 m 0,1.5 0,1.5 m 0,-1.5 -1.5,0 0,-1.5 1.5,0 m -1.5,0 -1.5,0 m 1.5,0 0,-1.5 m 0,3 0,1.5 -1.5,0 m 1.5,0 1.5,0 m -1.5,0 0,1.5 m 0,-3 -1.5,0 0,-1.5 m 0,1.5 0,1.5 m 0,-1.5 -1.5,0 0,-1.5 1.5,0 m -1.5,0 -1.5,0 m 1.5,0 0,-1.5 1.5,0 0,1.5 m 0,-1.5 0,-1.5 m 0,1.5 1.5,0 m -3,0 -1.5,0 0,-1.5 m 0,1.5 0,1.5 m 0,-1.5 -1.5,0 m 3,0 0,-1.5 1.5,0 m -1.5,0 -1.5,0 m 1.5,0 0,-1.5 m 0,6 0,1.5 -1.5,0 m 1.5,0 1.5,0 m -1.5,0 0,1.5 -1.5,0 0,-1.5 m 0,1.5 0,1.5 m 0,-1.5 -1.5,0 m 3,0 1.5,0 0,1.5 m 0,-1.5 0,-1.5 m 0,1.5 1.5,0 m -3,0 0,1.5 -1.5,0 m 1.5,0 1.5,0 m -1.5,0 0,1.5 m 0,-6 -1.5,0 0,-1.5 m 0,1.5 0,1.5 m 0,-1.5 -1.5,0 0,-1.5 1.5,0 m -1.5,0 -1.5,0 m 1.5,0 0,-1.5 m 0,3 0,1.5 -1.5,0 m 1.5,0 1.5,0 m -1.5,0 0,1.5 m 0,-3 -1.5,0 0,-1.5 m 0,1.5 0,1.5 m 0,-1.5 -1.5,0 m 24,0 0,-1.5 1.5,0 m -1.5,0 -1.5,0 m 1.5,0 0,-1.5 1.5,0 0,1.5 m 0,-1.5 0,-1.5 m 0,1.5 1.5,0 m -3,0 -1.5,0 0,-1.5 m 0,1.5 0,1.5 m 0,-1.5 -1.5,0 m 3,0 0,-1.5 1.5,0 m -1.5,0 -1.5,0 m 1.5,0 0,-1.5 1.5,0 0,1.5 m 0,-1.5 0,-1.5 m 0,1.5 1.5,0 0,1.5 -1.5,0 m 1.5,0 1.5,0 m -1.5,0 0,1.5 m 0,-3 0,-1.5 1.5,0 m -1.5,0 -1.5,0 m 1.5,0 0,-1.5 m 0,3 1.5,0 0,1.5 m 0,-1.5 0,-1.5 m 0,1.5 1.5,0 m -6,0 -1.5,0 0,-1.5 m 0,1.5 0,1.5 m 0,-1.5 -1.5,0 0,-1.5 1.5,0 m -1.5,0 -1.5,0 m 1.5,0 0,-1.5 m 0,3 0,1.5 -1.5,0 m 1.5,0 1.5,0 m -1.5,0 0,1.5 m 0,-3 -1.5,0 0,-1.5 m 0,1.5 0,1.5 m 0,-1.5 -1.5,0 m 6,0 0,-1.5 1.5,0 m -1.5,0 -1.5,0 m 1.5,0 0,-1.5 1.5,0 0,1.5 m 0,-1.5 0,-1.5 m 0,1.5 1.5,0 m -3,0 -1.5,0 0,-1.5 m 0,1.5 0,1.5 m 0,-1.5 -1.5,0 m 3,0 0,-1.5 1.5,0 m -1.5,0 -1.5,0 m 1.5,0 0,-1.5 1.5,0 0,1.5 m 0,-1.5 0,-1.5 m 0,1.5 1.5,0 0,1.5 -1.5,0 m 1.5,0 1.5,0 m -1.5,0 0,1.5 m 0,-3 0,-1.5 1.5,0 m -1.5,0 -1.5,0 m 1.5,0 0,-1.5 m 0,3 1.5,0 0,1.5 m 0,-1.5 0,-1.5 m 0,1.5 1.5,0 0,1.5 -1.5,0 m 1.5,0 1.5,0 m -1.5,0 0,1.5 -1.5,0 0,-1.5 m 0,1.5 0,1.5 m 0,-1.5 -1.5,0 m 3,0 1.5,0 0,1.5 m 0,-1.5 0,-1.5 m 0,1.5 1.5,0 m -3,0 0,1.5 -1.5,0 m 1.5,0 1.5,0 m -1.5,0 0,1.5 m 0,-6 0,-1.5 1.5,0 m -1.5,0 -1.5,0 m 1.5,0 0,-1.5 1.5,0 0,1.5 m 0,-1.5 0,-1.5 m 0,1.5 1.5,0 m -3,0 -1.5,0 0,-1.5 m 0,1.5 0,1.5 m 0,-1.5 -1.5,0 m 3,0 0,-1.5 1.5,0 m -1.5,0 -1.5,0 m 1.5,0 0,-1.5 m 0,6 1.5,0 0,1.5 m 0,-1.5 0,-1.5 m 0,1.5 1.5,0 0,1.5 -1.5,0 m 1.5,0 1.5,0 m -1.5,0 0,1.5 m 0,-3 0,-1.5 1.5,0 m -1.5,0 -1.5,0 m 1.5,0 0,-1.5 m 0,3 1.5,0 0,1.5 m 0,-1.5 0,-1.5 m 0,1.5 1.5,0 m -12,0 -1.5,0 0,-1.5 m 0,1.5 0,1.5 m 0,-1.5 -1.5,0 0,-1.5 1.5,0 m -1.5,0 -1.5,0 m 1.5,0 0,-1.5 m 0,3 0,1.5 -1.5,0 m 1.5,0 1.5,0 m -1.5,0 0,1.5 m 0,-3 -1.5,0 0,-1.5 m 0,1.5 0,1.5 m 0,-1.5 -1.5,0 0,-1.5 1.5,0 m -1.5,0 -1.5,0 m 1.5,0 0,-1.5 1.5,0 0,1.5 m 0,-1.5 0,-1.5 m 0,1.5 1.5,0 m -3,0 -1.5,0 0,-1.5 m 0,1.5 0,1.5 m 0,-1.5 -1.5,0 m 3,0 0,-1.5 1.5,0 m -1.5,0 -1.5,0 m 1.5,0 0,-1.5 m 0,6 0,1.5 -1.5,0 m 1.5,0 1.5,0 m -1.5,0 0,1.5 -1.5,0 0,-1.5 m 0,1.5 0,1.5 m 0,-1.5 -1.5,0 m 3,0 1.5,0 0,1.5 m 0,-1.5 0,-1.5 m 0,1.5 1.5,0 m -3,0 0,1.5 -1.5,0 m 1.5,0 1.5,0 m -1.5,0 0,1.5 m 0,-6 -1.5,0 0,-1.5 m 0,1.5 0,1.5 m 0,-1.5 -1.5,0 0,-1.5 1.5,0 m -1.5,0 -1.5,0 m 1.5,0 0,-1.5 m 0,3 0,1.5 -1.5,0 m 1.5,0 1.5,0 m -1.5,0 0,1.5 m 0,-3 -1.5,0 0,-1.5 m 0,1.5 0,1.5 m 0,-1.5 -1.5,0 m 12,0 0,-1.5 1.5,0 m -1.5,0 -1.5,0 m 1.5,0 0,-1.5 1.5,0 0,1.5 m 0,-1.5 0,-1.5 m 0,1.5 1.5,0 m -3,0 -1.5,0 0,-1.5 m 0,1.5 0,1.5 m 0,-1.5 -1.5,0 m 3,0 0,-1.5 1.5,0 m -1.5,0 -1.5,0 m 1.5,0 0,-1.5 1.5,0 0,1.5 m 0,-1.5 0,-1.5 m 0,1.5 1.5,0 0,1.5 -1.5,0 m 1.5,0 1.5,0 m -1.5,0 0,1.5 m 0,-3 0,-1.5 1.5,0 m -1.5,0 -1.5,0 m 1.5,0 0,-1.5 m 0,3 1.5,0 0,1.5 m 0,-1.5 0,-1.5 m 0,1.5 1.5,0 m -6,0 -1.5,0 0,-1.5 m 0,1.5 0,1.5 m 0,-1.5 -1.5,0 0,-1.5 1.5,0 m -1.5,0 -1.5,0 m 1.5,0 0,-1.5 m 0,3 0,1.5 -1.5,0 m 1.5,0 1.5,0 m -1.5,0 0,1.5 m 0,-3 -1.5,0 0,-1.5 m 0,1.5 0,1.5 m 0,-1.5 -1.5,0 m 6,0 0,-1.5 1.5,0 m -1.5,0 -1.5,0 m 1.5,0 0,-1.5 1.5,0 0,1.5 m 0,-1.5 0,-1.5 m 0,1.5 1.5,0 m -3,0 -1.5,0 0,-1.5 m 0,1.5 0,1.5 m 0,-1.5 -1.5,0 m 3,0 0,-1.5 1.5,0 m -1.5,0 -1.5,0 m 1.5,0 0,-1.5 1.5,0 0,1.5 m 0,-1.5 0,-1.5 m 0,1.5 1.5,0 0,1.5 -1.5,0 m 1.5,0 1.5,0 m -1.5,0 0,1.5 m 0,-3 0,-1.5 1.5,0 m -1.5,0 -1.5,0 m 1.5,0 0,-1.5 m 0,3 1.5,0 0,1.5 m 0,-1.5 0,-1.5 m 0,1.5 1.5,0 0,1.5 -1.5,0 m 1.5,0 1.5,0 m -1.5,0 0,1.5 -1.5,0 0,-1.5 m 0,1.5 0,1.5 m 0,-1.5 -1.5,0 m 3,0 1.5,0 0,1.5 m 0,-1.5 0,-1.5 m 0,1.5 1.5,0 m -3,0 0,1.5 -1.5,0 m 1.5,0 1.5,0 m -1.5,0 0,1.5 m 0,-6 0,-1.5 1.5,0 m -1.5,0 -1.5,0 m 1.5,0 0,-1.5 1.5,0 0,1.5 m 0,-1.5 0,-1.5 m 0,1.5 1.5,0 m -3,0 -1.5,0 0,-1.5 m 0,1.5 0,1.5 m 0,-1.5 -1.5,0 m 3,0 0,-1.5 1.5,0 m -1.5,0 -1.5,0 m 1.5,0 0,-1.5 m 0,6 1.5,0 0,1.5 m 0,-1.5 0,-1.5 m 0,1.5 1.5,0 0,1.5 -1.5,0 m 1.5,0 1.5,0 m -1.5,0 0,1.5 m 0,-3 0,-1.5 1.5,0 m -1.5,0 -1.5,0 m 1.5,0 0,-1.5 m 0,3 1.5,0 0,1.5 m 0,-1.5 0,-1.5 m 0,1.5 1.5,0 0,1.5 -1.5,0 m 1.5,0 1.5,0 m -1.5,0 0,1.5 -1.5,0 0,-1.5 m 0,1.5 0,1.5 m 0,-1.5 -1.5,0 m 3,0 1.5,0 0,1.5 m 0,-1.5 0,-1.5 m 0,1.5 1.5,0 m -3,0 0,1.5 -1.5,0 m 1.5,0 1.5,0 m -1.5,0 0,1.5 -1.5,0 0,-1.5 m 0,1.5 0,1.5 m 0,-1.5 -1.5,0 0,-1.5 1.5,0 m -1.5,0 -1.5,0 m 1.5,0 0,-1.5 m 0,3 0,1.5 -1.5,0 m 1.5,0 1.5,0 m -1.5,0 0,1.5 m 0,-3 -1.5,0 0,-1.5 m 0,1.5 0,1.5 m 0,-1.5 -1.5,0 m 6,0 1.5,0 0,1.5 m 0,-1.5 0,-1.5 m 0,1.5 1.5,0 0,1.5 -1.5,0 m 1.5,0 1.5,0 m -1.5,0 0,1.5 m 0,-3 0,-1.5 1.5,0 m -1.5,0 -1.5,0 m 1.5,0 0,-1.5 m 0,3 1.5,0 0,1.5 m 0,-1.5 0,-1.5 m 0,1.5 1.5,0 m -6,0 0,1.5 -1.5,0 m 1.5,0 1.5,0 m -1.5,0 0,1.5 -1.5,0 0,-1.5 m 0,1.5 0,1.5 m 0,-1.5 -1.5,0 m 3,0 1.5,0 0,1.5 m 0,-1.5 0,-1.5 m 0,1.5 1.5,0 m -3,0 0,1.5 -1.5,0 m 1.5,0 1.5,0 m -1.5,0 0,1.5 m 0,-12 0,-1.5 1.5,0 m -1.5,0 -1.5,0 m 1.5,0 0,-1.5 1.5,0 0,1.5 m 0,-1.5 0,-1.5 m 0,1.5 1.5,0 m -3,0 -1.5,0 0,-1.5 m 0,1.5 0,1.5 m 0,-1.5 -1.5,0 m 3,0 0,-1.5 1.5,0 m -1.5,0 -1.5,0 m 1.5,0 0,-1.5 1.5,0 0,1.5 m 0,-1.5 0,-1.5 m 0,1.5 1.5,0 0,1.5 -1.5,0 m 1.5,0 1.5,0 m -1.5,0 0,1.5 m 0,-3 0,-1.5 1.5,0 m -1.5,0 -1.5,0 m 1.5,0 0,-1.5 m 0,3 1.5,0 0,1.5 m 0,-1.5 0,-1.5 m 0,1.5 1.5,0 m -6,0 -1.5,0 0,-1.5 m 0,1.5 0,1.5 m 0,-1.5 -1.5,0 0,-1.5 1.5,0 m -1.5,0 -1.5,0 m 1.5,0 0,-1.5 m 0,3 0,1.5 -1.5,0 m 1.5,0 1.5,0 m -1.5,0 0,1.5 m 0,-3 -1.5,0 0,-1.5 m 0,1.5 0,1.5 m 0,-1.5 -1.5,0 m 6,0 0,-1.5 1.5,0 m -1.5,0 -1.5,0 m 1.5,0 0,-1.5 1.5,0 0,1.5 m 0,-1.5 0,-1.5 m 0,1.5 1.5,0 m -3,0 -1.5,0 0,-1.5 m 0,1.5 0,1.5 m 0,-1.5 -1.5,0 m 3,0 0,-1.5 1.5,0 m -1.5,0 -1.5,0 m 1.5,0 0,-1.5 m 0,12 1.5,0 0,1.5 m 0,-1.5 0,-1.5 m 0,1.5 1.5,0 0,1.5 -1.5,0 m 1.5,0 1.5,0 m -1.5,0 0,1.5 m 0,-3 0,-1.5 1.5,0 m -1.5,0 -1.5,0 m 1.5,0 0,-1.5 m 0,3 1.5,0 0,1.5 m 0,-1.5 0,-1.5 m 0,1.5 1.5,0 0,1.5 -1.5,0 m 1.5,0 1.5,0 m -1.5,0 0,1.5 -1.5,0 0,-1.5 m 0,1.5 0,1.5 m 0,-1.5 -1.5,0 m 3,0 1.5,0 0,1.5 m 0,-1.5 0,-1.5 m 0,1.5 1.5,0 m -3,0 0,1.5 -1.5,0 m 1.5,0 1.5,0 m -1.5,0 0,1.5 m 0,-6 0,-1.5 1.5,0 m -1.5,0 -1.5,0 m 1.5,0 0,-1.5 1.5,0 0,1.5 m 0,-1.5 0,-1.5 m 0,1.5 1.5,0 m -3,0 -1.5,0 0,-1.5 m 0,1.5 0,1.5 m 0,-1.5 -1.5,0 m 3,0 0,-1.5 1.5,0 m -1.5,0 -1.5,0 m 1.5,0 0,-1.5 m 0,6 1.5,0 0,1.5 m 0,-1.5 0,-1.5 m 0,1.5 1.5,0 0,1.5 -1.5,0 m 1.5,0 1.5,0 m -1.5,0 0,1.5 m 0,-3 0,-1.5 1.5,0 m -1.5,0 -1.5,0 m 1.5,0 0,-1.5 m 0,3 1.5,0 0,1.5 m 0,-1.5 0,-1.5 m 0,1.5 1.5,0 0,1.5 -1.5,0 m 1.5,0 1.5,0 m -1.5,0 0,1.5 -1.5,0 0,-1.5 m 0,1.5 0,1.5 m 0,-1.5 -1.5,0 m 3,0 1.5,0 0,1.5 m 0,-1.5 0,-1.5 m 0,1.5 1.5,0 m -3,0 0,1.5 -1.5,0 m 1.5,0 1.5,0 m -1.5,0 0,1.5 -1.5,0 0,-1.5 m 0,1.5 0,1.5 m 0,-1.5 -1.5,0 0,-1.5 1.5,0 m -1.5,0 -1.5,0 m 1.5,0 0,-1.5 m 0,3 0,1.5 -1.5,0 m 1.5,0 1.5,0 m -1.5,0 0,1.5 m 0,-3 -1.5,0 0,-1.5 m 0,1.5 0,1.5 m 0,-1.5 -1.5,0 m 6,0 1.5,0 0,1.5 m 0,-1.5 0,-1.5 m 0,1.5 1.5,0 0,1.5 -1.5,0 m 1.5,0 1.5,0 m -1.5,0 0,1.5 m 0,-3 0,-1.5 1.5,0 m -1.5,0 -1.5,0 m 1.5,0 0,-1.5 m 0,3 1.5,0 0,1.5 m 0,-1.5 0,-1.5 m 0,1.5 1.5,0 m -6,0 0,1.5 -1.5,0 m 1.5,0 1.5,0 m -1.5,0 0,1.5 -1.5,0 0,-1.5 m 0,1.5 0,1.5 m 0,-1.5 -1.5,0 m 3,0 1.5,0 0,1.5 m 0,-1.5 0,-1.5 m 0,1.5 1.5,0 m -3,0 0,1.5 -1.5,0 m 1.5,0 1.5,0 m -1.5,0 0,1.5 -1.5,0 0,-1.5 m 0,1.5 0,1.5 m 0,-1.5 -1.5,0 0,-1.5 1.5,0 m -1.5,0 -1.5,0 m 1.5,0 0,-1.5 m 0,3 0,1.5 -1.5,0 m 1.5,0 1.5,0 m -1.5,0 0,1.5 m 0,-3 -1.5,0 0,-1.5 m 0,1.5 0,1.5 m 0,-1.5 -1.5,0 0,-1.5 1.5,0 m -1.5,0 -1.5,0 m 1.5,0 0,-1.5 1.5,0 0,1.5 m 0,-1.5 0,-1.5 m 0,1.5 1.5,0 m -3,0 -1.5,0 0,-1.5 m 0,1.5 0,1.5 m 0,-1.5 -1.5,0 m 3,0 0,-1.5 1.5,0 m -1.5,0 -1.5,0 m 1.5,0 0,-1.5 m 0,6 0,1.5 -1.5,0 m 1.5,0 1.5,0 m -1.5,0 0,1.5 -1.5,0 0,-1.5 m 0,1.5 0,1.5 m 0,-1.5 -1.5,0 m 3,0 1.5,0 0,1.5 m 0,-1.5 0,-1.5 m 0,1.5 1.5,0 m -3,0 0,1.5 -1.5,0 m 1.5,0 1.5,0 m -1.5,0 0,1.5 m 0,-6 -1.5,0 0,-1.5 m 0,1.5 0,1.5 m 0,-1.5 -1.5,0 0,-1.5 1.5,0 m -1.5,0 -1.5,0 m 1.5,0 0,-1.5 m 0,3 0,1.5 -1.5,0 m 1.5,0 1.5,0 m -1.5,0 0,1.5 m 0,-3 -1.5,0 0,-1.5 m 0,1.5 0,1.5 m 0,-1.5 -1.5,0 m 12,0 1.5,0 0,1.5 m 0,-1.5 0,-1.5 m 0,1.5 1.5,0 0,1.5 -1.5,0 m 1.5,0 1.5,0 m -1.5,0 0,1.5 m 0,-3 0,-1.5 1.5,0 m -1.5,0 -1.5,0 m 1.5,0 0,-1.5 m 0,3 1.5,0 0,1.5 m 0,-1.5 0,-1.5 m 0,1.5 1.5,0 0,1.5 -1.5,0 m 1.5,0 1.5,0 m -1.5,0 0,1.5 -1.5,0 0,-1.5 m 0,1.5 0,1.5 m 0,-1.5 -1.5,0 m 3,0 1.5,0 0,1.5 m 0,-1.5 0,-1.5 m 0,1.5 1.5,0 m -3,0 0,1.5 -1.5,0 m 1.5,0 1.5,0 m -1.5,0 0,1.5 m 0,-6 0,-1.5 1.5,0 m -1.5,0 -1.5,0 m 1.5,0 0,-1.5 1.5,0 0,1.5 m 0,-1.5 0,-1.5 m 0,1.5 1.5,0 m -3,0 -1.5,0 0,-1.5 m 0,1.5 0,1.5 m 0,-1.5 -1.5,0 m 3,0 0,-1.5 1.5,0 m -1.5,0 -1.5,0 m 1.5,0 0,-1.5 m 0,6 1.5,0 0,1.5 m 0,-1.5 0,-1.5 m 0,1.5 1.5,0 0,1.5 -1.5,0 m 1.5,0 1.5,0 m -1.5,0 0,1.5 m 0,-3 0,-1.5 1.5,0 m -1.5,0 -1.5,0 m 1.5,0 0,-1.5 m 0,3 1.5,0 0,1.5 m 0,-1.5 0,-1.5 m 0,1.5 1.5,0 m -12,0 0,1.5 -1.5,0 m 1.5,0 1.5,0 m -1.5,0 0,1.5 -1.5,0 0,-1.5 m 0,1.5 0,1.5 m 0,-1.5 -1.5,0 m 3,0 1.5,0 0,1.5 m 0,-1.5 0,-1.5 m 0,1.5 1.5,0 m -3,0 0,1.5 -1.5,0 m 1.5,0 1.5,0 m -1.5,0 0,1.5 -1.5,0 0,-1.5 m 0,1.5 0,1.5 m 0,-1.5 -1.5,0 0,-1.5 1.5,0 m -1.5,0 -1.5,0 m 1.5,0 0,-1.5 m 0,3 0,1.5 -1.5,0 m 1.5,0 1.5,0 m -1.5,0 0,1.5 m 0,-3 -1.5,0 0,-1.5 m 0,1.5 0,1.5 m 0,-1.5 -1.5,0 m 6,0 1.5,0 0,1.5 m 0,-1.5 0,-1.5 m 0,1.5 1.5,0 0,1.5 -1.5,0 m 1.5,0 1.5,0 m -1.5,0 0,1.5 m 0,-3 0,-1.5 1.5,0 m -1.5,0 -1.5,0 m 1.5,0 0,-1.5 m 0,3 1.5,0 0,1.5 m 0,-1.5 0,-1.5 m 0,1.5 1.5,0 m -6,0 0,1.5 -1.5,0 m 1.5,0 1.5,0 m -1.5,0 0,1.5 -1.5,0 0,-1.5 m 0,1.5 0,1.5 m 0,-1.5 -1.5,0 m 3,0 1.5,0 0,1.5 m 0,-1.5 0,-1.5 m 0,1.5 1.5,0 m -3,0 0,1.5 -1.5,0 m 1.5,0 1.5,0 m -1.5,0 0,1.5 m 0,-24 0,-1.5 1.5,0 m -1.5,0 -1.5,0 m 1.5,0 0,-1.5 1.5,0 0,1.5 m 0,-1.5 0,-1.5 m 0,1.5 1.5,0 m -3,0 -1.5,0 0,-1.5 m 0,1.5 0,1.5 m 0,-1.5 -1.5,0 m 3,0 0,-1.5 1.5,0 m -1.5,0 -1.5,0 m 1.5,0 0,-1.5 1.5,0 0,1.5 m 0,-1.5 0,-1.5 m 0,1.5 1.5,0 0,1.5 -1.5,0 m 1.5,0 1.5,0 m -1.5,0 0,1.5 m 0,-3 0,-1.5 1.5,0 m -1.5,0 -1.5,0 m 1.5,0 0,-1.5 m 0,3 1.5,0 0,1.5 m 0,-1.5 0,-1.5 m 0,1.5 1.5,0 m -6,0 -1.5,0 0,-1.5 m 0,1.5 0,1.5 m 0,-1.5 -1.5,0 0,-1.5 1.5,0 m -1.5,0 -1.5,0 m 1.5,0 0,-1.5 m 0,3 0,1.5 -1.5,0 m 1.5,0 1.5,0 m -1.5,0 0,1.5 m 0,-3 -1.5,0 0,-1.5 m 0,1.5 0,1.5 m 0,-1.5 -1.5,0 m 6,0 0,-1.5 1.5,0 m -1.5,0 -1.5,0 m 1.5,0 0,-1.5 1.5,0 0,1.5 m 0,-1.5 0,-1.5 m 0,1.5 1.5,0 m -3,0 -1.5,0 0,-1.5 m 0,1.5 0,1.5 m 0,-1.5 -1.5,0 m 3,0 0,-1.5 1.5,0 m -1.5,0 -1.5,0 m 1.5,0 0,-1.5 1.5,0 0,1.5 m 0,-1.5 0,-1.5 m 0,1.5 1.5,0 0,1.5 -1.5,0 m 1.5,0 1.5,0 m -1.5,0 0,1.5 m 0,-3 0,-1.5 1.5,0 m -1.5,0 -1.5,0 m 1.5,0 0,-1.5 m 0,3 1.5,0 0,1.5 m 0,-1.5 0,-1.5 m 0,1.5 1.5,0 0,1.5 -1.5,0 m 1.5,0 1.5,0 m -1.5,0 0,1.5 -1.5,0 0,-1.5 m 0,1.5 0,1.5 m 0,-1.5 -1.5,0 m 3,0 1.5,0 0,1.5 m 0,-1.5 0,-1.5 m 0,1.5 1.5,0 m -3,0 0,1.5 -1.5,0 m 1.5,0 1.5,0 m -1.5,0 0,1.5 m 0,-6 0,-1.5 1.5,0 m -1.5,0 -1.5,0 m 1.5,0 0,-1.5 1.5,0 0,1.5 m 0,-1.5 0,-1.5 m 0,1.5 1.5,0 m -3,0 -1.5,0 0,-1.5 m 0,1.5 0,1.5 m 0,-1.5 -1.5,0 m 3,0 0,-1.5 1.5,0 m -1.5,0 -1.5,0 m 1.5,0 0,-1.5 m 0,6 1.5,0 0,1.5 m 0,-1.5 0,-1.5 m 0,1.5 1.5,0 0,1.5 -1.5,0 m 1.5,0 1.5,0 m -1.5,0 0,1.5 m 0,-3 0,-1.5 1.5,0 m -1.5,0 -1.5,0 m 1.5,0 0,-1.5 m 0,3 1.5,0 0,1.5 m 0,-1.5 0,-1.5 m 0,1.5 1.5,0 m -12,0 -1.5,0 0,-1.5 m 0,1.5 0,1.5 m 0,-1.5 -1.5,0 0,-1.5 1.5,0 m -1.5,0 -1.5,0 m 1.5,0 0,-1.5 m 0,3 0,1.5 -1.5,0 m 1.5,0 1.5,0 m -1.5,0 0,1.5 m 0,-3 -1.5,0 0,-1.5 m 0,1.5 0,1.5 m 0,-1.5 -1.5,0 0,-1.5 1.5,0 m -1.5,0 -1.5,0 m 1.5,0 0,-1.5 1.5,0 0,1.5 m 0,-1.5 0,-1.5 m 0,1.5 1.5,0 m -3,0 -1.5,0 0,-1.5 m 0,1.5 0,1.5 m 0,-1.5 -1.5,0 m 3,0 0,-1.5 1.5,0 m -1.5,0 -1.5,0 m 1.5,0 0,-1.5 m 0,6 0,1.5 -1.5,0 m 1.5,0 1.5,0 m -1.5,0 0,1.5 -1.5,0 0,-1.5 m 0,1.5 0,1.5 m 0,-1.5 -1.5,0 m 3,0 1.5,0 0,1.5 m 0,-1.5 0,-1.5 m 0,1.5 1.5,0 m -3,0 0,1.5 -1.5,0 m 1.5,0 1.5,0 m -1.5,0 0,1.5 m 0,-6 -1.5,0 0,-1.5 m 0,1.5 0,1.5 m 0,-1.5 -1.5,0 0,-1.5 1.5,0 m -1.5,0 -1.5,0 m 1.5,0 0,-1.5 m 0,3 0,1.5 -1.5,0 m 1.5,0 1.5,0 m -1.5,0 0,1.5 m 0,-3 -1.5,0 0,-1.5 m 0,1.5 0,1.5 m 0,-1.5 -1.5,0 m 12,0 0,-1.5 1.5,0 m -1.5,0 -1.5,0 m 1.5,0 0,-1.5 1.5,0 0,1.5 m 0,-1.5 0,-1.5 m 0,1.5 1.5,0 m -3,0 -1.5,0 0,-1.5 m 0,1.5 0,1.5 m 0,-1.5 -1.5,0 m 3,0 0,-1.5 1.5,0 m -1.5,0 -1.5,0 m 1.5,0 0,-1.5 1.5,0 0,1.5 m 0,-1.5 0,-1.5 m 0,1.5 1.5,0 0,1.5 -1.5,0 m 1.5,0 1.5,0 m -1.5,0 0,1.5 m 0,-3 0,-1.5 1.5,0 m -1.5,0 -1.5,0 m 1.5,0 0,-1.5 m 0,3 1.5,0 0,1.5 m 0,-1.5 0,-1.5 m 0,1.5 1.5,0 m -6,0 -1.5,0 0,-1.5 m 0,1.5 0,1.5 m 0,-1.5 -1.5,0 0,-1.5 1.5,0 m -1.5,0 -1.5,0 m 1.5,0 0,-1.5 m 0,3 0,1.5 -1.5,0 m 1.5,0 1.5,0 m -1.5,0 0,1.5 m 0,-3 -1.5,0 0,-1.5 m 0,1.5 0,1.5 m 0,-1.5 -1.5,0 m 6,0 0,-1.5 1.5,0 m -1.5,0 -1.5,0 m 1.5,0 0,-1.5 1.5,0 0,1.5 m 0,-1.5 0,-1.5 m 0,1.5 1.5,0 m -3,0 -1.5,0 0,-1.5 m 0,1.5 0,1.5 m 0,-1.5 -1.5,0 m 3,0 0,-1.5 1.5,0 m -1.5,0 -1.5,0 m 1.5,0 0,-1.5 m 0,24 1.5,0 0,1.5 m 0,-1.5 0,-1.5 m 0,1.5 1.5,0 0,1.5 -1.5,0 m 1.5,0 1.5,0 m -1.5,0 0,1.5 m 0,-3 0,-1.5 1.5,0 m -1.5,0 -1.5,0 m 1.5,0 0,-1.5 m 0,3 1.5,0 0,1.5 m 0,-1.5 0,-1.5 m 0,1.5 1.5,0 0,1.5 -1.5,0 m 1.5,0 1.5,0 m -1.5,0 0,1.5 -1.5,0 0,-1.5 m 0,1.5 0,1.5 m 0,-1.5 -1.5,0 m 3,0 1.5,0 0,1.5 m 0,-1.5 0,-1.5 m 0,1.5 1.5,0 m -3,0 0,1.5 -1.5,0 m 1.5,0 1.5,0 m -1.5,0 0,1.5 m 0,-6 0,-1.5 1.5,0 m -1.5,0 -1.5,0 m 1.5,0 0,-1.5 1.5,0 0,1.5 m 0,-1.5 0,-1.5 m 0,1.5 1.5,0 m -3,0 -1.5,0 0,-1.5 m 0,1.5 0,1.5 m 0,-1.5 -1.5,0 m 3,0 0,-1.5 1.5,0 m -1.5,0 -1.5,0 m 1.5,0 0,-1.5 m 0,6 1.5,0 0,1.5 m 0,-1.5 0,-1.5 m 0,1.5 1.5,0 0,1.5 -1.5,0 m 1.5,0 1.5,0 m -1.5,0 0,1.5 m 0,-3 0,-1.5 1.5,0 m -1.5,0 -1.5,0 m 1.5,0 0,-1.5 m 0,3 1.5,0 0,1.5 m 0,-1.5 0,-1.5 m 0,1.5 1.5,0 0,1.5 -1.5,0 m 1.5,0 1.5,0 m -1.5,0 0,1.5 -1.5,0 0,-1.5 m 0,1.5 0,1.5 m 0,-1.5 -1.5,0 m 3,0 1.5,0 0,1.5 m 0,-1.5 0,-1.5 m 0,1.5 1.5,0 m -3,0 0,1.5 -1.5,0 m 1.5,0 1.5,0 m -1.5,0 0,1.5 -1.5,0 0,-1.5 m 0,1.5 0,1.5 m 0,-1.5 -1.5,0 0,-1.5 1.5,0 m -1.5,0 -1.5,0 m 1.5,0 0,-1.5 m 0,3 0,1.5 -1.5,0 m 1.5,0 1.5,0 m -1.5,0 0,1.5 m 0,-3 -1.5,0 0,-1.5 m 0,1.5 0,1.5 m 0,-1.5 -1.5,0 m 6,0 1.5,0 0,1.5 m 0,-1.5 0,-1.5 m 0,1.5 1.5,0 0,1.5 -1.5,0 m 1.5,0 1.5,0 m -1.5,0 0,1.5 m 0,-3 0,-1.5 1.5,0 m -1.5,0 -1.5,0 m 1.5,0 0,-1.5 m 0,3 1.5,0 0,1.5 m 0,-1.5 0,-1.5 m 0,1.5 1.5,0 m -6,0 0,1.5 -1.5,0 m 1.5,0 1.5,0 m -1.5,0 0,1.5 -1.5,0 0,-1.5 m 0,1.5 0,1.5 m 0,-1.5 -1.5,0 m 3,0 1.5,0 0,1.5 m 0,-1.5 0,-1.5 m 0,1.5 1.5,0 m -3,0 0,1.5 -1.5,0 m 1.5,0 1.5,0 m -1.5,0 0,1.5 m 0,-12 0,-1.5 1.5,0 m -1.5,0 -1.5,0 m 1.5,0 0,-1.5 1.5,0 0,1.5 m 0,-1.5 0,-1.5 m 0,1.5 1.5,0 m -3,0 -1.5,0 0,-1.5 m 0,1.5 0,1.5 m 0,-1.5 -1.5,0 m 3,0 0,-1.5 1.5,0 m -1.5,0 -1.5,0 m 1.5,0 0,-1.5 1.5,0 0,1.5 m 0,-1.5 0,-1.5 m 0,1.5 1.5,0 0,1.5 -1.5,0 m 1.5,0 1.5,0 m -1.5,0 0,1.5 m 0,-3 0,-1.5 1.5,0 m -1.5,0 -1.5,0 m 1.5,0 0,-1.5 m 0,3 1.5,0 0,1.5 m 0,-1.5 0,-1.5 m 0,1.5 1.5,0 m -6,0 -1.5,0 0,-1.5 m 0,1.5 0,1.5 m 0,-1.5 -1.5,0 0,-1.5 1.5,0 m -1.5,0 -1.5,0 m 1.5,0 0,-1.5 m 0,3 0,1.5 -1.5,0 m 1.5,0 1.5,0 m -1.5,0 0,1.5 m 0,-3 -1.5,0 0,-1.5 m 0,1.5 0,1.5 m 0,-1.5 -1.5,0 m 6,0 0,-1.5 1.5,0 m -1.5,0 -1.5,0 m 1.5,0 0,-1.5 1.5,0 0,1.5 m 0,-1.5 0,-1.5 m 0,1.5 1.5,0 m -3,0 -1.5,0 0,-1.5 m 0,1.5 0,1.5 m 0,-1.5 -1.5,0 m 3,0 0,-1.5 1.5,0 m -1.5,0 -1.5,0 m 1.5,0 0,-1.5 m 0,12 1.5,0 0,1.5 m 0,-1.5 0,-1.5 m 0,1.5 1.5,0 0,1.5 -1.5,0 m 1.5,0 1.5,0 m -1.5,0 0,1.5 m 0,-3 0,-1.5 1.5,0 m -1.5,0 -1.5,0 m 1.5,0 0,-1.5 m 0,3 1.5,0 0,1.5 m 0,-1.5 0,-1.5 m 0,1.5 1.5,0 0,1.5 -1.5,0 m 1.5,0 1.5,0 m -1.5,0 0,1.5 -1.5,0 0,-1.5 m 0,1.5 0,1.5 m 0,-1.5 -1.5,0 m 3,0 1.5,0 0,1.5 m 0,-1.5 0,-1.5 m 0,1.5 1.5,0 m -3,0 0,1.5 -1.5,0 m 1.5,0 1.5,0 m -1.5,0 0,1.5 m 0,-6 0,-1.5 1.5,0 m -1.5,0 -1.5,0 m 1.5,0 0,-1.5 1.5,0 0,1.5 m 0,-1.5 0,-1.5 m 0,1.5 1.5,0 m -3,0 -1.5,0 0,-1.5 m 0,1.5 0,1.5 m 0,-1.5 -1.5,0 m 3,0 0,-1.5 1.5,0 m -1.5,0 -1.5,0 m 1.5,0 0,-1.5 m 0,6 1.5,0 0,1.5 m 0,-1.5 0,-1.5 m 0,1.5 1.5,0 0,1.5 -1.5,0 m 1.5,0 1.5,0 m -1.5,0 0,1.5 m 0,-3 0,-1.5 1.5,0 m -1.5,0 -1.5,0 m 1.5,0 0,-1.5 m 0,3 1.5,0 0,1.5 m 0,-1.5 0,-1.5 m 0,1.5 1.5,0 m -48,0 -1.5,0 0,-1.5 m 0,1.5 0,1.5 m 0,-1.5 -1.5,0 0,-1.5 1.5,0 m -1.5,0 -1.5,0 m 1.5,0 0,-1.5 m 0,3 0,1.5 -1.5,0 m 1.5,0 1.5,0 m -1.5,0 0,1.5 m 0,-3 -1.5,0 0,-1.5 m 0,1.5 0,1.5 m 0,-1.5 -1.5,0 0,-1.5 1.5,0 m -1.5,0 -1.5,0 m 1.5,0 0,-1.5 1.5,0 0,1.5 m 0,-1.5 0,-1.5 m 0,1.5 1.5,0 m -3,0 -1.5,0 0,-1.5 m 0,1.5 0,1.5 m 0,-1.5 -1.5,0 m 3,0 0,-1.5 1.5,0 m -1.5,0 -1.5,0 m 1.5,0 0,-1.5 m 0,6 0,1.5 -1.5,0 m 1.5,0 1.5,0 m -1.5,0 0,1.5 -1.5,0 0,-1.5 m 0,1.5 0,1.5 m 0,-1.5 -1.5,0 m 3,0 1.5,0 0,1.5 m 0,-1.5 0,-1.5 m 0,1.5 1.5,0 m -3,0 0,1.5 -1.5,0 m 1.5,0 1.5,0 m -1.5,0 0,1.5 m 0,-6 -1.5,0 0,-1.5 m 0,1.5 0,1.5 m 0,-1.5 -1.5,0 0,-1.5 1.5,0 m -1.5,0 -1.5,0 m 1.5,0 0,-1.5 m 0,3 0,1.5 -1.5,0 m 1.5,0 1.5,0 m -1.5,0 0,1.5 m 0,-3 -1.5,0 0,-1.5 m 0,1.5 0,1.5 m 0,-1.5 -1.5,0 0,-1.5 1.5,0 m -1.5,0 -1.5,0 m 1.5,0 0,-1.5 1.5,0 0,1.5 m 0,-1.5 0,-1.5 m 0,1.5 1.5,0 m -3,0 -1.5,0 0,-1.5 m 0,1.5 0,1.5 m 0,-1.5 -1.5,0 m 3,0 0,-1.5 1.5,0 m -1.5,0 -1.5,0 m 1.5,0 0,-1.5 1.5,0 0,1.5 m 0,-1.5 0,-1.5 m 0,1.5 1.5,0 0,1.5 -1.5,0 m 1.5,0 1.5,0 m -1.5,0 0,1.5 m 0,-3 0,-1.5 1.5,0 m -1.5,0 -1.5,0 m 1.5,0 0,-1.5 m 0,3 1.5,0 0,1.5 m 0,-1.5 0,-1.5 m 0,1.5 1.5,0 m -6,0 -1.5,0 0,-1.5 m 0,1.5 0,1.5 m 0,-1.5 -1.5,0 0,-1.5 1.5,0 m -1.5,0 -1.5,0 m 1.5,0 0,-1.5 m 0,3 0,1.5 -1.5,0 m 1.5,0 1.5,0 m -1.5,0 0,1.5 m 0,-3 -1.5,0 0,-1.5 m 0,1.5 0,1.5 m 0,-1.5 -1.5,0 m 6,0 0,-1.5 1.5,0 m -1.5,0 -1.5,0 m 1.5,0 0,-1.5 1.5,0 0,1.5 m 0,-1.5 0,-1.5 m 0,1.5 1.5,0 m -3,0 -1.5,0 0,-1.5 m 0,1.5 0,1.5 m 0,-1.5 -1.5,0 m 3,0 0,-1.5 1.5,0 m -1.5,0 -1.5,0 m 1.5,0 0,-1.5 m 0,12 0,1.5 -1.5,0 m 1.5,0 1.5,0 m -1.5,0 0,1.5 -1.5,0 0,-1.5 m 0,1.5 0,1.5 m 0,-1.5 -1.5,0 m 3,0 1.5,0 0,1.5 m 0,-1.5 0,-1.5 m 0,1.5 1.5,0 m -3,0 0,1.5 -1.5,0 m 1.5,0 1.5,0 m -1.5,0 0,1.5 -1.5,0 0,-1.5 m 0,1.5 0,1.5 m 0,-1.5 -1.5,0 0,-1.5 1.5,0 m -1.5,0 -1.5,0 m 1.5,0 0,-1.5 m 0,3 0,1.5 -1.5,0 m 1.5,0 1.5,0 m -1.5,0 0,1.5 m 0,-3 -1.5,0 0,-1.5 m 0,1.5 0,1.5 m 0,-1.5 -1.5,0 m 6,0 1.5,0 0,1.5 m 0,-1.5 0,-1.5 m 0,1.5 1.5,0 0,1.5 -1.5,0 m 1.5,0 1.5,0 m -1.5,0 0,1.5 m 0,-3 0,-1.5 1.5,0 m -1.5,0 -1.5,0 m 1.5,0 0,-1.5 m 0,3 1.5,0 0,1.5 m 0,-1.5 0,-1.5 m 0,1.5 1.5,0 m -6,0 0,1.5 -1.5,0 m 1.5,0 1.5,0 m -1.5,0 0,1.5 -1.5,0 0,-1.5 m 0,1.5 0,1.5 m 0,-1.5 -1.5,0 m 3,0 1.5,0 0,1.5 m 0,-1.5 0,-1.5 m 0,1.5 1.5,0 m -3,0 0,1.5 -1.5,0 m 1.5,0 1.5,0 m -1.5,0 0,1.5 m 0,-12 -1.5,0 0,-1.5 m 0,1.5 0,1.5 m 0,-1.5 -1.5,0 0,-1.5 1.5,0 m -1.5,0 -1.5,0 m 1.5,0 0,-1.5 m 0,3 0,1.5 -1.5,0 m 1.5,0 1.5,0 m -1.5,0 0,1.5 m 0,-3 -1.5,0 0,-1.5 m 0,1.5 0,1.5 m 0,-1.5 -1.5,0 0,-1.5 1.5,0 m -1.5,0 -1.5,0 m 1.5,0 0,-1.5 1.5,0 0,1.5 m 0,-1.5 0,-1.5 m 0,1.5 1.5,0 m -3,0 -1.5,0 0,-1.5 m 0,1.5 0,1.5 m 0,-1.5 -1.5,0 m 3,0 0,-1.5 1.5,0 m -1.5,0 -1.5,0 m 1.5,0 0,-1.5 m 0,6 0,1.5 -1.5,0 m 1.5,0 1.5,0 m -1.5,0 0,1.5 -1.5,0 0,-1.5 m 0,1.5 0,1.5 m 0,-1.5 -1.5,0 m 3,0 1.5,0 0,1.5 m 0,-1.5 0,-1.5 m 0,1.5 1.5,0 m -3,0 0,1.5 -1.5,0 m 1.5,0 1.5,0 m -1.5,0 0,1.5 m 0,-6 -1.5,0 0,-1.5 m 0,1.5 0,1.5 m 0,-1.5 -1.5,0 0,-1.5 1.5,0 m -1.5,0 -1.5,0 m 1.5,0 0,-1.5 m 0,3 0,1.5 -1.5,0 m 1.5,0 1.5,0 m -1.5,0 0,1.5 m 0,-3 -1.5,0 0,-1.5 m 0,1.5 0,1.5 m 0,-1.5 -1.5,0 0,-1.5 1.5,0 m -1.5,0 -1.5,0 m 1.5,0 0,-1.5 1.5,0 0,1.5 m 0,-1.5 0,-1.5 m 0,1.5 1.5,0 m -3,0 -1.5,0 0,-1.5 m 0,1.5 0,1.5 m 0,-1.5 -1.5,0 m 3,0 0,-1.5 1.5,0 m -1.5,0 -1.5,0 m 1.5,0 0,-1.5 1.5,0 0,1.5 m 0,-1.5 0,-1.5 m 0,1.5 1.5,0 0,1.5 -1.5,0 m 1.5,0 1.5,0 m -1.5,0 0,1.5 m 0,-3 0,-1.5 1.5,0 m -1.5,0 -1.5,0 m 1.5,0 0,-1.5 m 0,3 1.5,0 0,1.5 m 0,-1.5 0,-1.5 m 0,1.5 1.5,0 m -6,0 -1.5,0 0,-1.5 m 0,1.5 0,1.5 m 0,-1.5 -1.5,0 0,-1.5 1.5,0 m -1.5,0 -1.5,0 m 1.5,0 0,-1.5 m 0,3 0,1.5 -1.5,0 m 1.5,0 1.5,0 m -1.5,0 0,1.5 m 0,-3 -1.5,0 0,-1.5 m 0,1.5 0,1.5 m 0,-1.5 -1.5,0 m 6,0 0,-1.5 1.5,0 m -1.5,0 -1.5,0 m 1.5,0 0,-1.5 1.5,0 0,1.5 m 0,-1.5 0,-1.5 m 0,1.5 1.5,0 m -3,0 -1.5,0 0,-1.5 m 0,1.5 0,1.5 m 0,-1.5 -1.5,0 m 3,0 0,-1.5 1.5,0 m -1.5,0 -1.5,0 m 1.5,0 0,-1.5 1.5,0 0,1.5 m 0,-1.5 0,-1.5 m 0,1.5 1.5,0 0,1.5 -1.5,0 m 1.5,0 1.5,0 m -1.5,0 0,1.5 m 0,-3 0,-1.5 1.5,0 m -1.5,0 -1.5,0 m 1.5,0 0,-1.5 m 0,3 1.5,0 0,1.5 m 0,-1.5 0,-1.5 m 0,1.5 1.5,0 0,1.5 -1.5,0 m 1.5,0 1.5,0 m -1.5,0 0,1.5 -1.5,0 0,-1.5 m 0,1.5 0,1.5 m 0,-1.5 -1.5,0 m 3,0 1.5,0 0,1.5 m 0,-1.5 0,-1.5 m 0,1.5 1.5,0 m -3,0 0,1.5 -1.5,0 m 1.5,0 1.5,0 m -1.5,0 0,1.5 m 0,-6 0,-1.5 1.5,0 m -1.5,0 -1.5,0 m 1.5,0 0,-1.5 1.5,0 0,1.5 m 0,-1.5 0,-1.5 m 0,1.5 1.5,0 m -3,0 -1.5,0 0,-1.5 m 0,1.5 0,1.5 m 0,-1.5 -1.5,0 m 3,0 0,-1.5 1.5,0 m -1.5,0 -1.5,0 m 1.5,0 0,-1.5 m 0,6 1.5,0 0,1.5 m 0,-1.5 0,-1.5 m 0,1.5 1.5,0 0,1.5 -1.5,0 m 1.5,0 1.5,0 m -1.5,0 0,1.5 m 0,-3 0,-1.5 1.5,0 m -1.5,0 -1.5,0 m 1.5,0 0,-1.5 m 0,3 1.5,0 0,1.5 m 0,-1.5 0,-1.5 m 0,1.5 1.5,0 m -12,0 -1.5,0 0,-1.5 m 0,1.5 0,1.5 m 0,-1.5 -1.5,0 0,-1.5 1.5,0 m -1.5,0 -1.5,0 m 1.5,0 0,-1.5 m 0,3 0,1.5 -1.5,0 m 1.5,0 1.5,0 m -1.5,0 0,1.5 m 0,-3 -1.5,0 0,-1.5 m 0,1.5 0,1.5 m 0,-1.5 -1.5,0 0,-1.5 1.5,0 m -1.5,0 -1.5,0 m 1.5,0 0,-1.5 1.5,0 0,1.5 m 0,-1.5 0,-1.5 m 0,1.5 1.5,0 m -3,0 -1.5,0 0,-1.5 m 0,1.5 0,1.5 m 0,-1.5 -1.5,0 m 3,0 0,-1.5 1.5,0 m -1.5,0 -1.5,0 m 1.5,0 0,-1.5 m 0,6 0,1.5 -1.5,0 m 1.5,0 1.5,0 m -1.5,0 0,1.5 -1.5,0 0,-1.5 m 0,1.5 0,1.5 m 0,-1.5 -1.5,0 m 3,0 1.5,0 0,1.5 m 0,-1.5 0,-1.5 m 0,1.5 1.5,0 m -3,0 0,1.5 -1.5,0 m 1.5,0 1.5,0 m -1.5,0 0,1.5 m 0,-6 -1.5,0 0,-1.5 m 0,1.5 0,1.5 m 0,-1.5 -1.5,0 0,-1.5 1.5,0 m -1.5,0 -1.5,0 m 1.5,0 0,-1.5 m 0,3 0,1.5 -1.5,0 m 1.5,0 1.5,0 m -1.5,0 0,1.5 m 0,-3 -1.5,0 0,-1.5 m 0,1.5 0,1.5 m 0,-1.5 -1.5,0 m 12,0 0,-1.5 1.5,0 m -1.5,0 -1.5,0 m 1.5,0 0,-1.5 1.5,0 0,1.5 m 0,-1.5 0,-1.5 m 0,1.5 1.5,0 m -3,0 -1.5,0 0,-1.5 m 0,1.5 0,1.5 m 0,-1.5 -1.5,0 m 3,0 0,-1.5 1.5,0 m -1.5,0 -1.5,0 m 1.5,0 0,-1.5 1.5,0 0,1.5 m 0,-1.5 0,-1.5 m 0,1.5 1.5,0 0,1.5 -1.5,0 m 1.5,0 1.5,0 m -1.5,0 0,1.5 m 0,-3 0,-1.5 1.5,0 m -1.5,0 -1.5,0 m 1.5,0 0,-1.5 m 0,3 1.5,0 0,1.5 m 0,-1.5 0,-1.5 m 0,1.5 1.5,0 m -6,0 -1.5,0 0,-1.5 m 0,1.5 0,1.5 m 0,-1.5 -1.5,0 0,-1.5 1.5,0 m -1.5,0 -1.5,0 m 1.5,0 0,-1.5 m 0,3 0,1.5 -1.5,0 m 1.5,0 1.5,0 m -1.5,0 0,1.5 m 0,-3 -1.5,0 0,-1.5 m 0,1.5 0,1.5 m 0,-1.5 -1.5,0 m 6,0 0,-1.5 1.5,0 m -1.5,0 -1.5,0 m 1.5,0 0,-1.5 1.5,0 0,1.5 m 0,-1.5 0,-1.5 m 0,1.5 1.5,0 m -3,0 -1.5,0 0,-1.5 m 0,1.5 0,1.5 m 0,-1.5 -1.5,0 m 3,0 0,-1.5 1.5,0 m -1.5,0 -1.5,0 m 1.5,0 0,-1.5 m 0,24 0,1.5 -1.5,0 m 1.5,0 1.5,0 m -1.5,0 0,1.5 -1.5,0 0,-1.5 m 0,1.5 0,1.5 m 0,-1.5 -1.5,0 m 3,0 1.5,0 0,1.5 m 0,-1.5 0,-1.5 m 0,1.5 1.5,0 m -3,0 0,1.5 -1.5,0 m 1.5,0 1.5,0 m -1.5,0 0,1.5 -1.5,0 0,-1.5 m 0,1.5 0,1.5 m 0,-1.5 -1.5,0 0,-1.5 1.5,0 m -1.5,0 -1.5,0 m 1.5,0 0,-1.5 m 0,3 0,1.5 -1.5,0 m 1.5,0 1.5,0 m -1.5,0 0,1.5 m 0,-3 -1.5,0 0,-1.5 m 0,1.5 0,1.5 m 0,-1.5 -1.5,0 m 6,0 1.5,0 0,1.5 m 0,-1.5 0,-1.5 m 0,1.5 1.5,0 0,1.5 -1.5,0 m 1.5,0 1.5,0 m -1.5,0 0,1.5 m 0,-3 0,-1.5 1.5,0 m -1.5,0 -1.5,0 m 1.5,0 0,-1.5 m 0,3 1.5,0 0,1.5 m 0,-1.5 0,-1.5 m 0,1.5 1.5,0 m -6,0 0,1.5 -1.5,0 m 1.5,0 1.5,0 m -1.5,0 0,1.5 -1.5,0 0,-1.5 m 0,1.5 0,1.5 m 0,-1.5 -1.5,0 m 3,0 1.5,0 0,1.5 m 0,-1.5 0,-1.5 m 0,1.5 1.5,0 m -3,0 0,1.5 -1.5,0 m 1.5,0 1.5,0 m -1.5,0 0,1.5 -1.5,0 0,-1.5 m 0,1.5 0,1.5 m 0,-1.5 -1.5,0 0,-1.5 1.5,0 m -1.5,0 -1.5,0 m 1.5,0 0,-1.5 m 0,3 0,1.5 -1.5,0 m 1.5,0 1.5,0 m -1.5,0 0,1.5 m 0,-3 -1.5,0 0,-1.5 m 0,1.5 0,1.5 m 0,-1.5 -1.5,0 0,-1.5 1.5,0 m -1.5,0 -1.5,0 m 1.5,0 0,-1.5 1.5,0 0,1.5 m 0,-1.5 0,-1.5 m 0,1.5 1.5,0 m -3,0 -1.5,0 0,-1.5 m 0,1.5 0,1.5 m 0,-1.5 -1.5,0 m 3,0 0,-1.5 1.5,0 m -1.5,0 -1.5,0 m 1.5,0 0,-1.5 m 0,6 0,1.5 -1.5,0 m 1.5,0 1.5,0 m -1.5,0 0,1.5 -1.5,0 0,-1.5 m 0,1.5 0,1.5 m 0,-1.5 -1.5,0 m 3,0 1.5,0 0,1.5 m 0,-1.5 0,-1.5 m 0,1.5 1.5,0 m -3,0 0,1.5 -1.5,0 m 1.5,0 1.5,0 m -1.5,0 0,1.5 m 0,-6 -1.5,0 0,-1.5 m 0,1.5 0,1.5 m 0,-1.5 -1.5,0 0,-1.5 1.5,0 m -1.5,0 -1.5,0 m 1.5,0 0,-1.5 m 0,3 0,1.5 -1.5,0 m 1.5,0 1.5,0 m -1.5,0 0,1.5 m 0,-3 -1.5,0 0,-1.5 m 0,1.5 0,1.5 m 0,-1.5 -1.5,0 m 12,0 1.5,0 0,1.5 m 0,-1.5 0,-1.5 m 0,1.5 1.5,0 0,1.5 -1.5,0 m 1.5,0 1.5,0 m -1.5,0 0,1.5 m 0,-3 0,-1.5 1.5,0 m -1.5,0 -1.5,0 m 1.5,0 0,-1.5 m 0,3 1.5,0 0,1.5 m 0,-1.5 0,-1.5 m 0,1.5 1.5,0 0,1.5 -1.5,0 m 1.5,0 1.5,0 m -1.5,0 0,1.5 -1.5,0 0,-1.5 m 0,1.5 0,1.5 m 0,-1.5 -1.5,0 m 3,0 1.5,0 0,1.5 m 0,-1.5 0,-1.5 m 0,1.5 1.5,0 m -3,0 0,1.5 -1.5,0 m 1.5,0 1.5,0 m -1.5,0 0,1.5 m 0,-6 0,-1.5 1.5,0 m -1.5,0 -1.5,0 m 1.5,0 0,-1.5 1.5,0 0,1.5 m 0,-1.5 0,-1.5 m 0,1.5 1.5,0 m -3,0 -1.5,0 0,-1.5 m 0,1.5 0,1.5 m 0,-1.5 -1.5,0 m 3,0 0,-1.5 1.5,0 m -1.5,0 -1.5,0 m 1.5,0 0,-1.5 m 0,6 1.5,0 0,1.5 m 0,-1.5 0,-1.5 m 0,1.5 1.5,0 0,1.5 -1.5,0 m 1.5,0 1.5,0 m -1.5,0 0,1.5 m 0,-3 0,-1.5 1.5,0 m -1.5,0 -1.5,0 m 1.5,0 0,-1.5 m 0,3 1.5,0 0,1.5 m 0,-1.5 0,-1.5 m 0,1.5 1.5,0 m -12,0 0,1.5 -1.5,0 m 1.5,0 1.5,0 m -1.5,0 0,1.5 -1.5,0 0,-1.5 m 0,1.5 0,1.5 m 0,-1.5 -1.5,0 m 3,0 1.5,0 0,1.5 m 0,-1.5 0,-1.5 m 0,1.5 1.5,0 m -3,0 0,1.5 -1.5,0 m 1.5,0 1.5,0 m -1.5,0 0,1.5 -1.5,0 0,-1.5 m 0,1.5 0,1.5 m 0,-1.5 -1.5,0 0,-1.5 1.5,0 m -1.5,0 -1.5,0 m 1.5,0 0,-1.5 m 0,3 0,1.5 -1.5,0 m 1.5,0 1.5,0 m -1.5,0 0,1.5 m 0,-3 -1.5,0 0,-1.5 m 0,1.5 0,1.5 m 0,-1.5 -1.5,0 m 6,0 1.5,0 0,1.5 m 0,-1.5 0,-1.5 m 0,1.5 1.5,0 0,1.5 -1.5,0 m 1.5,0 1.5,0 m -1.5,0 0,1.5 m 0,-3 0,-1.5 1.5,0 m -1.5,0 -1.5,0 m 1.5,0 0,-1.5 m 0,3 1.5,0 0,1.5 m 0,-1.5 0,-1.5 m 0,1.5 1.5,0 m -6,0 0,1.5 -1.5,0 m 1.5,0 1.5,0 m -1.5,0 0,1.5 -1.5,0 0,-1.5 m 0,1.5 0,1.5 m 0,-1.5 -1.5,0 m 3,0 1.5,0 0,1.5 m 0,-1.5 0,-1.5 m 0,1.5 1.5,0 m -3,0 0,1.5 -1.5,0 m 1.5,0 1.5,0 m -1.5,0 0,1.5 m 0,-24 -1.5,0 0,-1.5 m 0,1.5 0,1.5 m 0,-1.5 -1.5,0 0,-1.5 1.5,0 m -1.5,0 -1.5,0 m 1.5,0 0,-1.5 m 0,3 0,1.5 -1.5,0 m 1.5,0 1.5,0 m -1.5,0 0,1.5 m 0,-3 -1.5,0 0,-1.5 m 0,1.5 0,1.5 m 0,-1.5 -1.5,0 0,-1.5 1.5,0 m -1.5,0 -1.5,0 m 1.5,0 0,-1.5 1.5,0 0,1.5 m 0,-1.5 0,-1.5 m 0,1.5 1.5,0 m -3,0 -1.5,0 0,-1.5 m 0,1.5 0,1.5 m 0,-1.5 -1.5,0 m 3,0 0,-1.5 1.5,0 m -1.5,0 -1.5,0 m 1.5,0 0,-1.5 m 0,6 0,1.5 -1.5,0 m 1.5,0 1.5,0 m -1.5,0 0,1.5 -1.5,0 0,-1.5 m 0,1.5 0,1.5 m 0,-1.5 -1.5,0 m 3,0 1.5,0 0,1.5 m 0,-1.5 0,-1.5 m 0,1.5 1.5,0 m -3,0 0,1.5 -1.5,0 m 1.5,0 1.5,0 m -1.5,0 0,1.5 m 0,-6 -1.5,0 0,-1.5 m 0,1.5 0,1.5 m 0,-1.5 -1.5,0 0,-1.5 1.5,0 m -1.5,0 -1.5,0 m 1.5,0 0,-1.5 m 0,3 0,1.5 -1.5,0 m 1.5,0 1.5,0 m -1.5,0 0,1.5 m 0,-3 -1.5,0 0,-1.5 m 0,1.5 0,1.5 m 0,-1.5 -1.5,0 0,-1.5 1.5,0 m -1.5,0 -1.5,0 m 1.5,0 0,-1.5 1.5,0 0,1.5 m 0,-1.5 0,-1.5 m 0,1.5 1.5,0 m -3,0 -1.5,0 0,-1.5 m 0,1.5 0,1.5 m 0,-1.5 -1.5,0 m 3,0 0,-1.5 1.5,0 m -1.5,0 -1.5,0 m 1.5,0 0,-1.5 1.5,0 0,1.5 m 0,-1.5 0,-1.5 m 0,1.5 1.5,0 0,1.5 -1.5,0 m 1.5,0 1.5,0 m -1.5,0 0,1.5 m 0,-3 0,-1.5 1.5,0 m -1.5,0 -1.5,0 m 1.5,0 0,-1.5 m 0,3 1.5,0 0,1.5 m 0,-1.5 0,-1.5 m 0,1.5 1.5,0 m -6,0 -1.5,0 0,-1.5 m 0,1.5 0,1.5 m 0,-1.5 -1.5,0 0,-1.5 1.5,0 m -1.5,0 -1.5,0 m 1.5,0 0,-1.5 m 0,3 0,1.5 -1.5,0 m 1.5,0 1.5,0 m -1.5,0 0,1.5 m 0,-3 -1.5,0 0,-1.5 m 0,1.5 0,1.5 m 0,-1.5 -1.5,0 m 6,0 0,-1.5 1.5,0 m -1.5,0 -1.5,0 m 1.5,0 0,-1.5 1.5,0 0,1.5 m 0,-1.5 0,-1.5 m 0,1.5 1.5,0 m -3,0 -1.5,0 0,-1.5 m 0,1.5 0,1.5 m 0,-1.5 -1.5,0 m 3,0 0,-1.5 1.5,0 m -1.5,0 -1.5,0 m 1.5,0 0,-1.5 m 0,12 0,1.5 -1.5,0 m 1.5,0 1.5,0 m -1.5,0 0,1.5 -1.5,0 0,-1.5 m 0,1.5 0,1.5 m 0,-1.5 -1.5,0 m 3,0 1.5,0 0,1.5 m 0,-1.5 0,-1.5 m 0,1.5 1.5,0 m -3,0 0,1.5 -1.5,0 m 1.5,0 1.5,0 m -1.5,0 0,1.5 -1.5,0 0,-1.5 m 0,1.5 0,1.5 m 0,-1.5 -1.5,0 0,-1.5 1.5,0 m -1.5,0 -1.5,0 m 1.5,0 0,-1.5 m 0,3 0,1.5 -1.5,0 m 1.5,0 1.5,0 m -1.5,0 0,1.5 m 0,-3 -1.5,0 0,-1.5 m 0,1.5 0,1.5 m 0,-1.5 -1.5,0 m 6,0 1.5,0 0,1.5 m 0,-1.5 0,-1.5 m 0,1.5 1.5,0 0,1.5 -1.5,0 m 1.5,0 1.5,0 m -1.5,0 0,1.5 m 0,-3 0,-1.5 1.5,0 m -1.5,0 -1.5,0 m 1.5,0 0,-1.5 m 0,3 1.5,0 0,1.5 m 0,-1.5 0,-1.5 m 0,1.5 1.5,0 m -6,0 0,1.5 -1.5,0 m 1.5,0 1.5,0 m -1.5,0 0,1.5 -1.5,0 0,-1.5 m 0,1.5 0,1.5 m 0,-1.5 -1.5,0 m 3,0 1.5,0 0,1.5 m 0,-1.5 0,-1.5 m 0,1.5 1.5,0 m -3,0 0,1.5 -1.5,0 m 1.5,0 1.5,0 m -1.5,0 0,1.5 m 0,-12 -1.5,0 0,-1.5 m 0,1.5 0,1.5 m 0,-1.5 -1.5,0 0,-1.5 1.5,0 m -1.5,0 -1.5,0 m 1.5,0 0,-1.5 m 0,3 0,1.5 -1.5,0 m 1.5,0 1.5,0 m -1.5,0 0,1.5 m 0,-3 -1.5,0 0,-1.5 m 0,1.5 0,1.5 m 0,-1.5 -1.5,0 0,-1.5 1.5,0 m -1.5,0 -1.5,0 m 1.5,0 0,-1.5 1.5,0 0,1.5 m 0,-1.5 0,-1.5 m 0,1.5 1.5,0 m -3,0 -1.5,0 0,-1.5 m 0,1.5 0,1.5 m 0,-1.5 -1.5,0 m 3,0 0,-1.5 1.5,0 m -1.5,0 -1.5,0 m 1.5,0 0,-1.5 m 0,6 0,1.5 -1.5,0 m 1.5,0 1.5,0 m -1.5,0 0,1.5 -1.5,0 0,-1.5 m 0,1.5 0,1.5 m 0,-1.5 -1.5,0 m 3,0 1.5,0 0,1.5 m 0,-1.5 0,-1.5 m 0,1.5 1.5,0 m -3,0 0,1.5 -1.5,0 m 1.5,0 1.5,0 m -1.5,0 0,1.5 m 0,-6 -1.5,0 0,-1.5 m 0,1.5 0,1.5 m 0,-1.5 -1.5,0 0,-1.5 1.5,0 m -1.5,0 -1.5,0 m 1.5,0 0,-1.5 m 0,3 0,1.5 -1.5,0 m 1.5,0 1.5,0 m -1.5,0 0,1.5 m 0,-3 -1.5,0 0,-1.5 m 0,1.5 0,1.5 m 0,-1.5 -1.5,0 m 48,0 0,-1.5 1.5,0 m -1.5,0 -1.5,0 m 1.5,0 0,-1.5 1.5,0 0,1.5 m 0,-1.5 0,-1.5 m 0,1.5 1.5,0 m -3,0 -1.5,0 0,-1.5 m 0,1.5 0,1.5 m 0,-1.5 -1.5,0 m 3,0 0,-1.5 1.5,0 m -1.5,0 -1.5,0 m 1.5,0 0,-1.5 1.5,0 0,1.5 m 0,-1.5 0,-1.5 m 0,1.5 1.5,0 0,1.5 -1.5,0 m 1.5,0 1.5,0 m -1.5,0 0,1.5 m 0,-3 0,-1.5 1.5,0 m -1.5,0 -1.5,0 m 1.5,0 0,-1.5 m 0,3 1.5,0 0,1.5 m 0,-1.5 0,-1.5 m 0,1.5 1.5,0 m -6,0 -1.5,0 0,-1.5 m 0,1.5 0,1.5 m 0,-1.5 -1.5,0 0,-1.5 1.5,0 m -1.5,0 -1.5,0 m 1.5,0 0,-1.5 m 0,3 0,1.5 -1.5,0 m 1.5,0 1.5,0 m -1.5,0 0,1.5 m 0,-3 -1.5,0 0,-1.5 m 0,1.5 0,1.5 m 0,-1.5 -1.5,0 m 6,0 0,-1.5 1.5,0 m -1.5,0 -1.5,0 m 1.5,0 0,-1.5 1.5,0 0,1.5 m 0,-1.5 0,-1.5 m 0,1.5 1.5,0 m -3,0 -1.5,0 0,-1.5 m 0,1.5 0,1.5 m 0,-1.5 -1.5,0 m 3,0 0,-1.5 1.5,0 m -1.5,0 -1.5,0 m 1.5,0 0,-1.5 1.5,0 0,1.5 m 0,-1.5 0,-1.5 m 0,1.5 1.5,0 0,1.5 -1.5,0 m 1.5,0 1.5,0 m -1.5,0 0,1.5 m 0,-3 0,-1.5 1.5,0 m -1.5,0 -1.5,0 m 1.5,0 0,-1.5 m 0,3 1.5,0 0,1.5 m 0,-1.5 0,-1.5 m 0,1.5 1.5,0 0,1.5 -1.5,0 m 1.5,0 1.5,0 m -1.5,0 0,1.5 -1.5,0 0,-1.5 m 0,1.5 0,1.5 m 0,-1.5 -1.5,0 m 3,0 1.5,0 0,1.5 m 0,-1.5 0,-1.5 m 0,1.5 1.5,0 m -3,0 0,1.5 -1.5,0 m 1.5,0 1.5,0 m -1.5,0 0,1.5 m 0,-6 0,-1.5 1.5,0 m -1.5,0 -1.5,0 m 1.5,0 0,-1.5 1.5,0 0,1.5 m 0,-1.5 0,-1.5 m 0,1.5 1.5,0 m -3,0 -1.5,0 0,-1.5 m 0,1.5 0,1.5 m 0,-1.5 -1.5,0 m 3,0 0,-1.5 1.5,0 m -1.5,0 -1.5,0 m 1.5,0 0,-1.5 m 0,6 1.5,0 0,1.5 m 0,-1.5 0,-1.5 m 0,1.5 1.5,0 0,1.5 -1.5,0 m 1.5,0 1.5,0 m -1.5,0 0,1.5 m 0,-3 0,-1.5 1.5,0 m -1.5,0 -1.5,0 m 1.5,0 0,-1.5 m 0,3 1.5,0 0,1.5 m 0,-1.5 0,-1.5 m 0,1.5 1.5,0 m -12,0 -1.5,0 0,-1.5 m 0,1.5 0,1.5 m 0,-1.5 -1.5,0 0,-1.5 1.5,0 m -1.5,0 -1.5,0 m 1.5,0 0,-1.5 m 0,3 0,1.5 -1.5,0 m 1.5,0 1.5,0 m -1.5,0 0,1.5 m 0,-3 -1.5,0 0,-1.5 m 0,1.5 0,1.5 m 0,-1.5 -1.5,0 0,-1.5 1.5,0 m -1.5,0 -1.5,0 m 1.5,0 0,-1.5 1.5,0 0,1.5 m 0,-1.5 0,-1.5 m 0,1.5 1.5,0 m -3,0 -1.5,0 0,-1.5 m 0,1.5 0,1.5 m 0,-1.5 -1.5,0 m 3,0 0,-1.5 1.5,0 m -1.5,0 -1.5,0 m 1.5,0 0,-1.5 m 0,6 0,1.5 -1.5,0 m 1.5,0 1.5,0 m -1.5,0 0,1.5 -1.5,0 0,-1.5 m 0,1.5 0,1.5 m 0,-1.5 -1.5,0 m 3,0 1.5,0 0,1.5 m 0,-1.5 0,-1.5 m 0,1.5 1.5,0 m -3,0 0,1.5 -1.5,0 m 1.5,0 1.5,0 m -1.5,0 0,1.5 m 0,-6 -1.5,0 0,-1.5 m 0,1.5 0,1.5 m 0,-1.5 -1.5,0 0,-1.5 1.5,0 m -1.5,0 -1.5,0 m 1.5,0 0,-1.5 m 0,3 0,1.5 -1.5,0 m 1.5,0 1.5,0 m -1.5,0 0,1.5 m 0,-3 -1.5,0 0,-1.5 m 0,1.5 0,1.5 m 0,-1.5 -1.5,0 m 12,0 0,-1.5 1.5,0 m -1.5,0 -1.5,0 m 1.5,0 0,-1.5 1.5,0 0,1.5 m 0,-1.5 0,-1.5 m 0,1.5 1.5,0 m -3,0 -1.5,0 0,-1.5 m 0,1.5 0,1.5 m 0,-1.5 -1.5,0 m 3,0 0,-1.5 1.5,0 m -1.5,0 -1.5,0 m 1.5,0 0,-1.5 1.5,0 0,1.5 m 0,-1.5 0,-1.5 m 0,1.5 1.5,0 0,1.5 -1.5,0 m 1.5,0 1.5,0 m -1.5,0 0,1.5 m 0,-3 0,-1.5 1.5,0 m -1.5,0 -1.5,0 m 1.5,0 0,-1.5 m 0,3 1.5,0 0,1.5 m 0,-1.5 0,-1.5 m 0,1.5 1.5,0 m -6,0 -1.5,0 0,-1.5 m 0,1.5 0,1.5 m 0,-1.5 -1.5,0 0,-1.5 1.5,0 m -1.5,0 -1.5,0 m 1.5,0 0,-1.5 m 0,3 0,1.5 -1.5,0 m 1.5,0 1.5,0 m -1.5,0 0,1.5 m 0,-3 -1.5,0 0,-1.5 m 0,1.5 0,1.5 m 0,-1.5 -1.5,0 m 6,0 0,-1.5 1.5,0 m -1.5,0 -1.5,0 m 1.5,0 0,-1.5 1.5,0 0,1.5 m 0,-1.5 0,-1.5 m 0,1.5 1.5,0 m -3,0 -1.5,0 0,-1.5 m 0,1.5 0,1.5 m 0,-1.5 -1.5,0 m 3,0 0,-1.5 1.5,0 m -1.5,0 -1.5,0 m 1.5,0 0,-1.5 1.5,0 0,1.5 m 0,-1.5 0,-1.5 m 0,1.5 1.5,0 0,1.5 -1.5,0 m 1.5,0 1.5,0 m -1.5,0 0,1.5 m 0,-3 0,-1.5 1.5,0 m -1.5,0 -1.5,0 m 1.5,0 0,-1.5 m 0,3 1.5,0 0,1.5 m 0,-1.5 0,-1.5 m 0,1.5 1.5,0 0,1.5 -1.5,0 m 1.5,0 1.5,0 m -1.5,0 0,1.5 -1.5,0 0,-1.5 m 0,1.5 0,1.5 m 0,-1.5 -1.5,0 m 3,0 1.5,0 0,1.5 m 0,-1.5 0,-1.5 m 0,1.5 1.5,0 m -3,0 0,1.5 -1.5,0 m 1.5,0 1.5,0 m -1.5,0 0,1.5 m 0,-6 0,-1.5 1.5,0 m -1.5,0 -1.5,0 m 1.5,0 0,-1.5 1.5,0 0,1.5 m 0,-1.5 0,-1.5 m 0,1.5 1.5,0 m -3,0 -1.5,0 0,-1.5 m 0,1.5 0,1.5 m 0,-1.5 -1.5,0 m 3,0 0,-1.5 1.5,0 m -1.5,0 -1.5,0 m 1.5,0 0,-1.5 m 0,6 1.5,0 0,1.5 m 0,-1.5 0,-1.5 m 0,1.5 1.5,0 0,1.5 -1.5,0 m 1.5,0 1.5,0 m -1.5,0 0,1.5 m 0,-3 0,-1.5 1.5,0 m -1.5,0 -1.5,0 m 1.5,0 0,-1.5 m 0,3 1.5,0 0,1.5 m 0,-1.5 0,-1.5 m 0,1.5 1.5,0 0,1.5 -1.5,0 m 1.5,0 1.5,0 m -1.5,0 0,1.5 -1.5,0 0,-1.5 m 0,1.5 0,1.5 m 0,-1.5 -1.5,0 m 3,0 1.5,0 0,1.5 m 0,-1.5 0,-1.5 m 0,1.5 1.5,0 m -3,0 0,1.5 -1.5,0 m 1.5,0 1.5,0 m -1.5,0 0,1.5 -1.5,0 0,-1.5 m 0,1.5 0,1.5 m 0,-1.5 -1.5,0 0,-1.5 1.5,0 m -1.5,0 -1.5,0 m 1.5,0 0,-1.5 m 0,3 0,1.5 -1.5,0 m 1.5,0 1.5,0 m -1.5,0 0,1.5 m 0,-3 -1.5,0 0,-1.5 m 0,1.5 0,1.5 m 0,-1.5 -1.5,0 m 6,0 1.5,0 0,1.5 m 0,-1.5 0,-1.5 m 0,1.5 1.5,0 0,1.5 -1.5,0 m 1.5,0 1.5,0 m -1.5,0 0,1.5 m 0,-3 0,-1.5 1.5,0 m -1.5,0 -1.5,0 m 1.5,0 0,-1.5 m 0,3 1.5,0 0,1.5 m 0,-1.5 0,-1.5 m 0,1.5 1.5,0 m -6,0 0,1.5 -1.5,0 m 1.5,0 1.5,0 m -1.5,0 0,1.5 -1.5,0 0,-1.5 m 0,1.5 0,1.5 m 0,-1.5 -1.5,0 m 3,0 1.5,0 0,1.5 m 0,-1.5 0,-1.5 m 0,1.5 1.5,0 m -3,0 0,1.5 -1.5,0 m 1.5,0 1.5,0 m -1.5,0 0,1.5 m 0,-12 0,-1.5 1.5,0 m -1.5,0 -1.5,0 m 1.5,0 0,-1.5 1.5,0 0,1.5 m 0,-1.5 0,-1.5 m 0,1.5 1.5,0 m -3,0 -1.5,0 0,-1.5 m 0,1.5 0,1.5 m 0,-1.5 -1.5,0 m 3,0 0,-1.5 1.5,0 m -1.5,0 -1.5,0 m 1.5,0 0,-1.5 1.5,0 0,1.5 m 0,-1.5 0,-1.5 m 0,1.5 1.5,0 0,1.5 -1.5,0 m 1.5,0 1.5,0 m -1.5,0 0,1.5 m 0,-3 0,-1.5 1.5,0 m -1.5,0 -1.5,0 m 1.5,0 0,-1.5 m 0,3 1.5,0 0,1.5 m 0,-1.5 0,-1.5 m 0,1.5 1.5,0 m -6,0 -1.5,0 0,-1.5 m 0,1.5 0,1.5 m 0,-1.5 -1.5,0 0,-1.5 1.5,0 m -1.5,0 -1.5,0 m 1.5,0 0,-1.5 m 0,3 0,1.5 -1.5,0 m 1.5,0 1.5,0 m -1.5,0 0,1.5 m 0,-3 -1.5,0 0,-1.5 m 0,1.5 0,1.5 m 0,-1.5 -1.5,0 m 6,0 0,-1.5 1.5,0 m -1.5,0 -1.5,0 m 1.5,0 0,-1.5 1.5,0 0,1.5 m 0,-1.5 0,-1.5 m 0,1.5 1.5,0 m -3,0 -1.5,0 0,-1.5 m 0,1.5 0,1.5 m 0,-1.5 -1.5,0 m 3,0 0,-1.5 1.5,0 m -1.5,0 -1.5,0 m 1.5,0 0,-1.5 m 0,12 1.5,0 0,1.5 m 0,-1.5 0,-1.5 m 0,1.5 1.5,0 0,1.5 -1.5,0 m 1.5,0 1.5,0 m -1.5,0 0,1.5 m 0,-3 0,-1.5 1.5,0 m -1.5,0 -1.5,0 m 1.5,0 0,-1.5 m 0,3 1.5,0 0,1.5 m 0,-1.5 0,-1.5 m 0,1.5 1.5,0 0,1.5 -1.5,0 m 1.5,0 1.5,0 m -1.5,0 0,1.5 -1.5,0 0,-1.5 m 0,1.5 0,1.5 m 0,-1.5 -1.5,0 m 3,0 1.5,0 0,1.5 m 0,-1.5 0,-1.5 m 0,1.5 1.5,0 m -3,0 0,1.5 -1.5,0 m 1.5,0 1.5,0 m -1.5,0 0,1.5 m 0,-6 0,-1.5 1.5,0 m -1.5,0 -1.5,0 m 1.5,0 0,-1.5 1.5,0 0,1.5 m 0,-1.5 0,-1.5 m 0,1.5 1.5,0 m -3,0 -1.5,0 0,-1.5 m 0,1.5 0,1.5 m 0,-1.5 -1.5,0 m 3,0 0,-1.5 1.5,0 m -1.5,0 -1.5,0 m 1.5,0 0,-1.5 m 0,6 1.5,0 0,1.5 m 0,-1.5 0,-1.5 m 0,1.5 1.5,0 0,1.5 -1.5,0 m 1.5,0 1.5,0 m -1.5,0 0,1.5 m 0,-3 0,-1.5 1.5,0 m -1.5,0 -1.5,0 m 1.5,0 0,-1.5 m 0,3 1.5,0 0,1.5 m 0,-1.5 0,-1.5 m 0,1.5 1.5,0 m -24,0 -1.5,0 0,-1.5 m 0,1.5 0,1.5 m 0,-1.5 -1.5,0 0,-1.5 1.5,0 m -1.5,0 -1.5,0 m 1.5,0 0,-1.5 m 0,3 0,1.5 -1.5,0 m 1.5,0 1.5,0 m -1.5,0 0,1.5 m 0,-3 -1.5,0 0,-1.5 m 0,1.5 0,1.5 m 0,-1.5 -1.5,0 0,-1.5 1.5,0 m -1.5,0 -1.5,0 m 1.5,0 0,-1.5 1.5,0 0,1.5 m 0,-1.5 0,-1.5 m 0,1.5 1.5,0 m -3,0 -1.5,0 0,-1.5 m 0,1.5 0,1.5 m 0,-1.5 -1.5,0 m 3,0 0,-1.5 1.5,0 m -1.5,0 -1.5,0 m 1.5,0 0,-1.5 m 0,6 0,1.5 -1.5,0 m 1.5,0 1.5,0 m -1.5,0 0,1.5 -1.5,0 0,-1.5 m 0,1.5 0,1.5 m 0,-1.5 -1.5,0 m 3,0 1.5,0 0,1.5 m 0,-1.5 0,-1.5 m 0,1.5 1.5,0 m -3,0 0,1.5 -1.5,0 m 1.5,0 1.5,0 m -1.5,0 0,1.5 m 0,-6 -1.5,0 0,-1.5 m 0,1.5 0,1.5 m 0,-1.5 -1.5,0 0,-1.5 1.5,0 m -1.5,0 -1.5,0 m 1.5,0 0,-1.5 m 0,3 0,1.5 -1.5,0 m 1.5,0 1.5,0 m -1.5,0 0,1.5 m 0,-3 -1.5,0 0,-1.5 m 0,1.5 0,1.5 m 0,-1.5 -1.5,0 0,-1.5 1.5,0 m -1.5,0 -1.5,0 m 1.5,0 0,-1.5 1.5,0 0,1.5 m 0,-1.5 0,-1.5 m 0,1.5 1.5,0 m -3,0 -1.5,0 0,-1.5 m 0,1.5 0,1.5 m 0,-1.5 -1.5,0 m 3,0 0,-1.5 1.5,0 m -1.5,0 -1.5,0 m 1.5,0 0,-1.5 1.5,0 0,1.5 m 0,-1.5 0,-1.5 m 0,1.5 1.5,0 0,1.5 -1.5,0 m 1.5,0 1.5,0 m -1.5,0 0,1.5 m 0,-3 0,-1.5 1.5,0 m -1.5,0 -1.5,0 m 1.5,0 0,-1.5 m 0,3 1.5,0 0,1.5 m 0,-1.5 0,-1.5 m 0,1.5 1.5,0 m -6,0 -1.5,0 0,-1.5 m 0,1.5 0,1.5 m 0,-1.5 -1.5,0 0,-1.5 1.5,0 m -1.5,0 -1.5,0 m 1.5,0 0,-1.5 m 0,3 0,1.5 -1.5,0 m 1.5,0 1.5,0 m -1.5,0 0,1.5 m 0,-3 -1.5,0 0,-1.5 m 0,1.5 0,1.5 m 0,-1.5 -1.5,0 m 6,0 0,-1.5 1.5,0 m -1.5,0 -1.5,0 m 1.5,0 0,-1.5 1.5,0 0,1.5 m 0,-1.5 0,-1.5 m 0,1.5 1.5,0 m -3,0 -1.5,0 0,-1.5 m 0,1.5 0,1.5 m 0,-1.5 -1.5,0 m 3,0 0,-1.5 1.5,0 m -1.5,0 -1.5,0 m 1.5,0 0,-1.5 m 0,12 0,1.5 -1.5,0 m 1.5,0 1.5,0 m -1.5,0 0,1.5 -1.5,0 0,-1.5 m 0,1.5 0,1.5 m 0,-1.5 -1.5,0 m 3,0 1.5,0 0,1.5 m 0,-1.5 0,-1.5 m 0,1.5 1.5,0 m -3,0 0,1.5 -1.5,0 m 1.5,0 1.5,0 m -1.5,0 0,1.5 -1.5,0 0,-1.5 m 0,1.5 0,1.5 m 0,-1.5 -1.5,0 0,-1.5 1.5,0 m -1.5,0 -1.5,0 m 1.5,0 0,-1.5 m 0,3 0,1.5 -1.5,0 m 1.5,0 1.5,0 m -1.5,0 0,1.5 m 0,-3 -1.5,0 0,-1.5 m 0,1.5 0,1.5 m 0,-1.5 -1.5,0 m 6,0 1.5,0 0,1.5 m 0,-1.5 0,-1.5 m 0,1.5 1.5,0 0,1.5 -1.5,0 m 1.5,0 1.5,0 m -1.5,0 0,1.5 m 0,-3 0,-1.5 1.5,0 m -1.5,0 -1.5,0 m 1.5,0 0,-1.5 m 0,3 1.5,0 0,1.5 m 0,-1.5 0,-1.5 m 0,1.5 1.5,0 m -6,0 0,1.5 -1.5,0 m 1.5,0 1.5,0 m -1.5,0 0,1.5 -1.5,0 0,-1.5 m 0,1.5 0,1.5 m 0,-1.5 -1.5,0 m 3,0 1.5,0 0,1.5 m 0,-1.5 0,-1.5 m 0,1.5 1.5,0 m -3,0 0,1.5 -1.5,0 m 1.5,0 1.5,0 m -1.5,0 0,1.5 m 0,-12 -1.5,0 0,-1.5 m 0,1.5 0,1.5 m 0,-1.5 -1.5,0 0,-1.5 1.5,0 m -1.5,0 -1.5,0 m 1.5,0 0,-1.5 m 0,3 0,1.5 -1.5,0 m 1.5,0 1.5,0 m -1.5,0 0,1.5 m 0,-3 -1.5,0 0,-1.5 m 0,1.5 0,1.5 m 0,-1.5 -1.5,0 0,-1.5 1.5,0 m -1.5,0 -1.5,0 m 1.5,0 0,-1.5 1.5,0 0,1.5 m 0,-1.5 0,-1.5 m 0,1.5 1.5,0 m -3,0 -1.5,0 0,-1.5 m 0,1.5 0,1.5 m 0,-1.5 -1.5,0 m 3,0 0,-1.5 1.5,0 m -1.5,0 -1.5,0 m 1.5,0 0,-1.5 m 0,6 0,1.5 -1.5,0 m 1.5,0 1.5,0 m -1.5,0 0,1.5 -1.5,0 0,-1.5 m 0,1.5 0,1.5 m 0,-1.5 -1.5,0 m 3,0 1.5,0 0,1.5 m 0,-1.5 0,-1.5 m 0,1.5 1.5,0 m -3,0 0,1.5 -1.5,0 m 1.5,0 1.5,0 m -1.5,0 0,1.5 m 0,-6 -1.5,0 0,-1.5 m 0,1.5 0,1.5 m 0,-1.5 -1.5,0 0,-1.5 1.5,0 m -1.5,0 -1.5,0 m 1.5,0 0,-1.5 m 0,3 0,1.5 -1.5,0 m 1.5,0 1.5,0 m -1.5,0 0,1.5 m 0,-3 -1.5,0 0,-1.5 m 0,1.5 0,1.5 m 0,-1.5 -1.5,0 m 24,0 0,-1.5 1.5,0 m -1.5,0 -1.5,0 m 1.5,0 0,-1.5 1.5,0 0,1.5 m 0,-1.5 0,-1.5 m 0,1.5 1.5,0 m -3,0 -1.5,0 0,-1.5 m 0,1.5 0,1.5 m 0,-1.5 -1.5,0 m 3,0 0,-1.5 1.5,0 m -1.5,0 -1.5,0 m 1.5,0 0,-1.5 1.5,0 0,1.5 m 0,-1.5 0,-1.5 m 0,1.5 1.5,0 0,1.5 -1.5,0 m 1.5,0 1.5,0 m -1.5,0 0,1.5 m 0,-3 0,-1.5 1.5,0 m -1.5,0 -1.5,0 m 1.5,0 0,-1.5 m 0,3 1.5,0 0,1.5 m 0,-1.5 0,-1.5 m 0,1.5 1.5,0 m -6,0 -1.5,0 0,-1.5 m 0,1.5 0,1.5 m 0,-1.5 -1.5,0 0,-1.5 1.5,0 m -1.5,0 -1.5,0 m 1.5,0 0,-1.5 m 0,3 0,1.5 -1.5,0 m 1.5,0 1.5,0 m -1.5,0 0,1.5 m 0,-3 -1.5,0 0,-1.5 m 0,1.5 0,1.5 m 0,-1.5 -1.5,0 m 6,0 0,-1.5 1.5,0 m -1.5,0 -1.5,0 m 1.5,0 0,-1.5 1.5,0 0,1.5 m 0,-1.5 0,-1.5 m 0,1.5 1.5,0 m -3,0 -1.5,0 0,-1.5 m 0,1.5 0,1.5 m 0,-1.5 -1.5,0 m 3,0 0,-1.5 1.5,0 m -1.5,0 -1.5,0 m 1.5,0 0,-1.5 1.5,0 0,1.5 m 0,-1.5 0,-1.5 m 0,1.5 1.5,0 0,1.5 -1.5,0 m 1.5,0 1.5,0 m -1.5,0 0,1.5 m 0,-3 0,-1.5 1.5,0 m -1.5,0 -1.5,0 m 1.5,0 0,-1.5 m 0,3 1.5,0 0,1.5 m 0,-1.5 0,-1.5 m 0,1.5 1.5,0 0,1.5 -1.5,0 m 1.5,0 1.5,0 m -1.5,0 0,1.5 -1.5,0 0,-1.5 m 0,1.5 0,1.5 m 0,-1.5 -1.5,0 m 3,0 1.5,0 0,1.5 m 0,-1.5 0,-1.5 m 0,1.5 1.5,0 m -3,0 0,1.5 -1.5,0 m 1.5,0 1.5,0 m -1.5,0 0,1.5 m 0,-6 0,-1.5 1.5,0 m -1.5,0 -1.5,0 m 1.5,0 0,-1.5 1.5,0 0,1.5 m 0,-1.5 0,-1.5 m 0,1.5 1.5,0 m -3,0 -1.5,0 0,-1.5 m 0,1.5 0,1.5 m 0,-1.5 -1.5,0 m 3,0 0,-1.5 1.5,0 m -1.5,0 -1.5,0 m 1.5,0 0,-1.5 m 0,6 1.5,0 0,1.5 m 0,-1.5 0,-1.5 m 0,1.5 1.5,0 0,1.5 -1.5,0 m 1.5,0 1.5,0 m -1.5,0 0,1.5 m 0,-3 0,-1.5 1.5,0 m -1.5,0 -1.5,0 m 1.5,0 0,-1.5 m 0,3 1.5,0 0,1.5 m 0,-1.5 0,-1.5 m 0,1.5 1.5,0 m -12,0 -1.5,0 0,-1.5 m 0,1.5 0,1.5 m 0,-1.5 -1.5,0 0,-1.5 1.5,0 m -1.5,0 -1.5,0 m 1.5,0 0,-1.5 m 0,3 0,1.5 -1.5,0 m 1.5,0 1.5,0 m -1.5,0 0,1.5 m 0,-3 -1.5,0 0,-1.5 m 0,1.5 0,1.5 m 0,-1.5 -1.5,0 0,-1.5 1.5,0 m -1.5,0 -1.5,0 m 1.5,0 0,-1.5 1.5,0 0,1.5 m 0,-1.5 0,-1.5 m 0,1.5 1.5,0 m -3,0 -1.5,0 0,-1.5 m 0,1.5 0,1.5 m 0,-1.5 -1.5,0 m 3,0 0,-1.5 1.5,0 m -1.5,0 -1.5,0 m 1.5,0 0,-1.5 m 0,6 0,1.5 -1.5,0 m 1.5,0 1.5,0 m -1.5,0 0,1.5 -1.5,0 0,-1.5 m 0,1.5 0,1.5 m 0,-1.5 -1.5,0 m 3,0 1.5,0 0,1.5 m 0,-1.5 0,-1.5 m 0,1.5 1.5,0 m -3,0 0,1.5 -1.5,0 m 1.5,0 1.5,0 m -1.5,0 0,1.5 m 0,-6 -1.5,0 0,-1.5 m 0,1.5 0,1.5 m 0,-1.5 -1.5,0 0,-1.5 1.5,0 m -1.5,0 -1.5,0 m 1.5,0 0,-1.5 m 0,3 0,1.5 -1.5,0 m 1.5,0 1.5,0 m -1.5,0 0,1.5 m 0,-3 -1.5,0 0,-1.5 m 0,1.5 0,1.5 m 0,-1.5 -1.5,0 m 12,0 0,-1.5 1.5,0 m -1.5,0 -1.5,0 m 1.5,0 0,-1.5 1.5,0 0,1.5 m 0,-1.5 0,-1.5 m 0,1.5 1.5,0 m -3,0 -1.5,0 0,-1.5 m 0,1.5 0,1.5 m 0,-1.5 -1.5,0 m 3,0 0,-1.5 1.5,0 m -1.5,0 -1.5,0 m 1.5,0 0,-1.5 1.5,0 0,1.5 m 0,-1.5 0,-1.5 m 0,1.5 1.5,0 0,1.5 -1.5,0 m 1.5,0 1.5,0 m -1.5,0 0,1.5 m 0,-3 0,-1.5 1.5,0 m -1.5,0 -1.5,0 m 1.5,0 0,-1.5 m 0,3 1.5,0 0,1.5 m 0,-1.5 0,-1.5 m 0,1.5 1.5,0 m -6,0 -1.5,0 0,-1.5 m 0,1.5 0,1.5 m 0,-1.5 -1.5,0 0,-1.5 1.5,0 m -1.5,0 -1.5,0 m 1.5,0 0,-1.5 m 0,3 0,1.5 -1.5,0 m 1.5,0 1.5,0 m -1.5,0 0,1.5 m 0,-3 -1.5,0 0,-1.5 m 0,1.5 0,1.5 m 0,-1.5 -1.5,0 m 6,0 0,-1.5 1.5,0 m -1.5,0 -1.5,0 m 1.5,0 0,-1.5 1.5,0 0,1.5 m 0,-1.5 0,-1.5 m 0,1.5 1.5,0 m -3,0 -1.5,0 0,-1.5 m 0,1.5 0,1.5 m 0,-1.5 -1.5,0 m 3,0 0,-1.5 1.5,0 m -1.5,0 -1.5,0 m 1.5,0 0,-1.5"
       style="fill:none;fill-opacity:1;stroke:#000000;stroke-width:1;stroke-linecap:butt;stroke-linejoin:miter;stroke-opacity:1"
       inkscape:connector-curvature="0" />
  </g>
</svg>
