<?xml version="1.0" encoding="UTF-8" standalone="no"?>
<!-- Created with Inkscape (http://www.inkscape.org/) -->

<svg
   xmlns:dc="http://purl.org/dc/elements/1.1/"
   xmlns:cc="http://creativecommons.org/ns#"
   xmlns:rdf="http://www.w3.org/1999/02/22-rdf-syntax-ns#"
   xmlns:svg="http://www.w3.org/2000/svg"
   xmlns="http://www.w3.org/2000/svg"
   xmlns:sodipodi="http://sodipodi.sourceforge.net/DTD/sodipodi-0.dtd"
   xmlns:inkscape="http://www.inkscape.org/namespaces/inkscape"
   width="92.174301mm"
   height="48.031479mm"
   viewBox="0 0 326.60185 170.19028"
   id="svg2"
   version="1.1"
   inkscape:version="0.91 r13725"
   sodipodi:docname="Schneeflocken.svg">
  <sodipodi:namedview
     id="base"
     pagecolor="#ffffff"
     bordercolor="#666666"
     borderopacity="1.0"
     inkscape:pageopacity="0.0"
     inkscape:pageshadow="2"
     inkscape:zoom="0.98994949"
     inkscape:cx="176.08726"
     inkscape:cy="84.736837"
     inkscape:document-units="px"
     inkscape:current-layer="layer1"
     showgrid="false"
     inkscape:window-width="1205"
     inkscape:window-height="697"
     inkscape:window-x="67"
     inkscape:window-y="675"
     inkscape:window-maximized="1"
     inkscape:snap-bbox="true"
     inkscape:object-paths="true"
     inkscape:snap-intersection-paths="true"
     inkscape:object-nodes="true"
     inkscape:snap-smooth-nodes="true"
     inkscape:snap-midpoints="true"
     inkscape:bbox-paths="true"
     inkscape:bbox-nodes="true"
     inkscape:snap-bbox-edge-midpoints="true"
     inkscape:snap-bbox-midpoints="true"
     fit-margin-top="0.5"
     fit-margin-left="0.5"
     fit-margin-right="0.5"
     fit-margin-bottom="0.5" />
  <defs
     id="defs4" />
  <metadata
     id="metadata7">
    <rdf:RDF>
      <cc:Work
         rdf:about="">
        <dc:format>image/svg+xml</dc:format>
        <dc:type
           rdf:resource="http://purl.org/dc/dcmitype/StillImage" />
        <dc:title></dc:title>
      </cc:Work>
    </rdf:RDF>
  </metadata>
  <g
     transform="translate(-270.57041,-264.4808)"
     id="layer1"
     inkscape:groupmode="layer"
     inkscape:label="Ebene 1">
    <path
       id="path5556"
       d="m 354.20809,296.88671 -3,0 -1.5,-2.59807 -1.5,2.59807 -3,0 -1.5,-2.59807 1.5,-2.59808 -3,0 -1.5,-2.59807 -1.5,2.59807 -3,0 1.5,2.59808 -1.5,2.59807 -3,0 -1.5,-2.59807 -1.5,2.59807 -3,0 -1.5,-2.59807 1.5,-2.59808 -3,0 -1.5,-2.59807 1.5,-2.59808 3,0 -1.5,-2.59808 1.5,-2.59807 -3,0 -1.5,-2.59808 -1.5,2.59808 -3,0 -1.5,-2.59808 1.5,-2.59808 -3,0 -1.5,-2.59807 -1.5,2.59807 -3,0 1.5,2.59808 -1.5,2.59808 -3,0 -1.5,-2.59808 -1.5,2.59808 -3,0 1.5,2.59807 -1.5,2.59808 3,0 1.5,2.59808 -1.5,2.59807 -3,0 1.5,2.59808 -1.5,2.59807 -3,0 -1.5,-2.59807 -1.5,2.59807 -3,0 -1.5,-2.59807 1.5,-2.59808 -3,0 -1.5,-2.59807 -1.5,2.59807 -3,0 1.5,2.59808 -1.5,2.59807 -3,0 -1.5,-2.59807 -1.5,2.59807 -3,0 1.5,2.59808 -1.5,2.59808 3,0 1.5,2.59807 -1.5,2.59808 -3,0 1.5,2.59808 -1.5,2.59807 3,0 1.5,2.59808 1.5,-2.59808 3,0 1.5,2.59808 -1.5,2.59807 3,0 1.5,2.59808 -1.5,2.59808 -3,0 1.5,2.59807 -1.5,2.59808 -3,0 -1.5,-2.59808 -1.5,2.59808 -3,0 1.5,2.59808 -1.5,2.59807 3,0 1.5,2.59808 -1.5,2.59807 -3,0 1.5,2.59808 -1.5,2.59808 3,0 1.5,2.59807 1.5,-2.59807 3,0 1.5,2.59807 -1.5,2.59808 3,0 1.5,2.59808 1.5,-2.59808 3,0 -1.5,-2.59808 1.5,-2.59807 3,0 1.5,2.59807 1.5,-2.59807 3,0 1.5,2.59807 -1.5,2.59808 3,0 1.5,2.59808 -1.5,2.59807 -3,0 1.5,2.59808 -1.5,2.59807 3,0 1.5,2.59808 1.5,-2.59808 3,0 1.5,2.59808 -1.5,2.59808 3,0 1.5,2.59807 1.5,-2.59807 3,0 -1.5,-2.59808 1.5,-2.59808 3,0 1.5,2.59808 1.5,-2.59808 3,0 -1.5,-2.59807 1.5,-2.59808 -3,0 -1.5,-2.59807 1.5,-2.59808 3,0 -1.5,-2.59808 1.5,-2.59807 3,0 1.5,2.59807 1.5,-2.59807 3,0 1.5,2.59807 -1.5,2.59808 3,0 1.5,2.59808 1.5,-2.59808 3,0 -1.5,-2.59808 1.5,-2.59807 3,0 1.5,2.59807 1.5,-2.59807 3,0 -1.5,-2.59808 1.5,-2.59808 -3,0 -1.5,-2.59807 1.5,-2.59808 3,0 -1.5,-2.59807 1.5,-2.59808 -3,0 -1.5,-2.59808 -1.5,2.59808 -3,0 -1.5,-2.59808 1.5,-2.59807 -3,0 -1.5,-2.59808 1.5,-2.59808 3,0 -1.5,-2.59807 1.5,-2.59808 3,0 1.5,2.59808 1.5,-2.59808 3,0 -1.5,-2.59807 1.5,-2.59808 -3,0 -1.5,-2.59808 1.5,-2.59807 3,0 -1.5,-2.59808 1.5,-2.59808"
       style="fill:none;fill-opacity:1;stroke:#000000;stroke-width:1;stroke-linecap:butt;stroke-linejoin:miter;stroke-opacity:1"
       inkscape:connector-curvature="0" />
    <path
       id="path5556-5"
       d="m 493.81545,376.77554 -2.86782,-0.88069 -0.67121,-2.92394 -2.19661,2.04325 -2.86782,-0.88069 -0.67121,-2.92395 2.19661,-2.04326 -2.86781,-0.88069 -0.67121,-2.92394 -2.19661,2.04325 -2.86782,-0.8807 0.67121,2.92396 -2.19661,2.04325 -2.86782,-0.88069 -0.67121,-2.92395 -2.19661,2.04325 -2.86782,-0.88069 -0.67121,-2.92394 2.19662,-2.04326 -2.86782,-0.88069 -0.67121,-2.92395 2.19661,-2.04326 2.86782,0.88069 -0.67121,-2.92395 2.19661,-2.04325 -2.86782,-0.88069 -0.6712,-2.92396 -2.19661,2.04326 -2.86782,-0.88069 -0.67121,-2.92395 2.19661,-2.04326 -2.86781,-0.88069 -0.67121,-2.92395 -2.19661,2.04325 -2.86782,-0.88069 0.67121,2.92395 -2.19662,2.04326 -2.86781,-0.88069 -0.67121,-2.92395 -2.19661,2.04326 -2.86782,-0.88069 0.67121,2.92394 -2.19661,2.04326 2.86781,0.88069 0.67121,2.92396 -2.19661,2.04325 -2.86782,-0.88069 0.67121,2.92395 -2.19661,2.04325 -2.86782,-0.88069 -0.67121,-2.92395 -2.19661,2.04326 -2.86782,-0.8807 -0.6712,-2.92394 2.19661,-2.04326 -2.86782,-0.88069 -0.67121,-2.92395 -2.19661,2.04325 -2.86782,-0.88069 0.67121,2.92395 -2.19661,2.04326 -2.86782,-0.8807 -0.67121,-2.92394 -2.19661,2.04325 -2.86781,-0.88069 0.6712,2.92395 -2.19661,2.04326 2.86782,0.8807 0.67121,2.92394 -2.19662,2.04326 -2.86781,-0.88069 0.6712,2.92395 -2.19661,2.04325 2.86782,0.88069 0.67121,2.92396 2.19661,-2.04326 2.86782,0.88069 0.6712,2.92395 -2.19661,2.04325 2.86782,0.8807 0.67121,2.92395 -2.19661,2.04326 -2.86782,-0.88069 0.67121,2.92394 -2.19661,2.04326 -2.86782,-0.88069 -0.67121,-2.92395 -2.19661,2.04326 -2.86782,-0.8807 0.67121,2.92396 -2.19661,2.04325 2.86782,0.88069 0.6712,2.92395 -2.19661,2.04326 -2.86782,-0.8807 0.67121,2.92396 -2.19661,2.04326 2.86782,0.88069 0.67121,2.92394 2.1966,-2.04325 2.86782,0.88069 0.67121,2.92395 -2.19661,2.04326 2.86782,0.88069 0.6712,2.92395 2.19662,-2.04326 2.86781,0.8807 -0.6712,-2.92396 2.19661,-2.04325 2.86781,0.88069 0.67121,2.92395 2.19661,-2.04325 2.86782,0.88069 0.67121,2.92394 -2.19661,2.04326 2.86782,0.8807 0.6712,2.92395 -2.19661,2.04325 -2.86782,-0.88069 0.67121,2.92395 -2.19661,2.04325 2.86782,0.88069 0.67121,2.92396 2.19661,-2.04326 2.86782,0.88069 0.6712,2.92395 -2.19661,2.04326 2.86782,0.8807 0.67121,2.92394 2.19661,-2.04325 2.86781,0.88069 -0.6712,-2.92395 2.19661,-2.04326 2.86782,0.88069 0.6712,2.92395 2.19662,-2.04326 2.86781,0.88069 -0.6712,-2.92394 2.19661,-2.04326 -2.86782,-0.88069 -0.67121,-2.92395 2.19661,-2.04326 2.86782,0.88069 -0.6712,-2.92395 2.1966,-2.04325 2.86782,0.88069 0.67121,2.92395 2.19661,-2.04325 2.86782,0.88069 0.67121,2.92394 -2.19661,2.04326 2.86781,0.88069 0.67121,2.92396 2.19661,-2.04326 2.86782,0.88069 -0.67121,-2.92395 2.19661,-2.04326 2.86782,0.8807 0.67121,2.92394 2.19661,-2.04325 2.86782,0.88069 -0.67121,-2.92395 2.19661,-2.04326 -2.86781,-0.88069 -0.67121,-2.92395 2.19661,-2.04326 2.86782,0.88069 -0.67121,-2.92394 2.19661,-2.04326 -2.86782,-0.88069 -0.6712,-2.92396 -2.19662,2.04326 -2.86781,-0.88069 -0.67121,-2.92395 2.19661,-2.04325 -2.86782,-0.8807 -0.6712,-2.92395 2.19661,-2.04326 2.86782,0.88069 -0.67121,-2.92394 2.19661,-2.04326 2.86782,0.88069 0.6712,2.92395 2.19662,-2.04326 2.86781,0.8807 -0.67121,-2.92395 2.19662,-2.04326 -2.86782,-0.88069 -0.67121,-2.92395 2.19661,-2.04326 2.86782,0.8807 -0.67121,-2.92396 2.19662,-2.04326"
       style="fill:none;fill-opacity:1;stroke:#000000;stroke-width:1;stroke-linecap:butt;stroke-linejoin:miter;stroke-opacity:1"
       inkscape:connector-curvature="0" />
    <path
       id="path5556-3"
       d="m 588.82468,285.55809 -2.97798,0.36282 -1.8032,-2.39759 -1.17478,2.76041 -2.97798,0.36282 -1.8032,-2.39759 1.17478,-2.76042 -2.97798,0.36282 -1.8032,-2.39759 -1.17478,2.76041 -2.97798,0.36282 1.8032,2.3976 -1.17478,2.7604 -2.97797,0.36282 -1.80321,-2.39759 -1.17477,2.76041 -2.97798,0.36282 -1.8032,-2.39759 1.17477,-2.76042 -2.97798,0.36282 -1.8032,-2.39759 1.17478,-2.76041 2.97798,-0.36282 -1.8032,-2.3976 1.17478,-2.76041 -2.97798,0.36282 -1.8032,-2.3976 -1.17478,2.76042 -2.97798,0.36282 -1.8032,-2.3976 1.17478,-2.76042 -2.97798,0.36282 -1.8032,-2.39759 -1.17478,2.76041 -2.97798,0.36282 1.8032,2.3976 -1.17478,2.76041 -2.97798,0.36282 -1.8032,-2.3976 -1.17478,2.76042 -2.97798,0.36282 1.8032,2.39759 -1.17477,2.76042 2.97798,-0.36282 1.8032,2.3976 -1.17478,2.76041 -2.97798,0.36282 1.8032,2.3976 -1.17478,2.76041 -2.97798,0.36282 -1.8032,-2.39759 -1.17478,2.76041 -2.97798,0.36282 -1.8032,-2.39759 1.17478,-2.76042 -2.97798,0.36282 -1.8032,-2.39759 -1.17478,2.76041 -2.97798,0.36282 1.8032,2.3976 -1.17478,2.76041 -2.97798,0.36282 -1.8032,-2.39759 -1.17478,2.76041 -2.97797,0.36282 1.8032,2.3976 -1.17478,2.76042 2.97798,-0.36282 1.8032,2.39759 -1.17478,2.76042 -2.97798,0.36282 1.8032,2.3976 -1.17478,2.76041 2.97798,-0.36282 1.8032,2.3976 1.17478,-2.76042 2.97798,-0.36282 1.8032,2.3976 -1.17478,2.76041 2.97798,-0.36282 1.8032,2.3976 -1.17477,2.76042 -2.97798,0.36282 1.8032,2.39759 -1.17478,2.76042 -2.97798,0.36282 -1.8032,-2.3976 -1.17478,2.76042 -2.97798,0.36282 1.8032,2.3976 -1.17478,2.76041 2.97798,-0.36282 1.8032,2.3976 -1.17478,2.76041 -2.97798,0.36281 1.80321,2.3976 -1.17478,2.76042 2.97798,-0.36282 1.8032,2.39759 1.17478,-2.76041 2.97798,-0.36282 1.8032,2.39759 -1.17478,2.76042 2.97798,-0.36282 1.8032,2.3976 1.17478,-2.76042 2.97798,-0.36282 -1.80321,-2.39759 1.17478,-2.76041 2.97798,-0.36282 1.8032,2.39759 1.17478,-2.76041 2.97798,-0.36282 1.8032,2.39759 -1.17478,2.76042 2.97798,-0.36282 1.80321,2.3976 -1.17478,2.76041 -2.97798,0.36281 1.8032,2.3976 -1.17478,2.76041 2.97798,-0.36282 1.8032,2.3976 1.17478,-2.76042 2.97798,-0.36282 1.8032,2.3976 -1.17478,2.76042 2.97798,-0.36282 1.8032,2.39759 1.17478,-2.76041 2.97798,-0.36282 -1.8032,-2.39759 1.17478,-2.76042 2.97797,-0.36282 1.80321,2.3976 1.17477,-2.76042 2.97798,-0.36282 -1.8032,-2.39759 1.17478,-2.76042 -2.97798,0.36282 -1.8032,-2.39759 1.17478,-2.76042 2.97798,-0.36282 -1.8032,-2.3976 1.17478,-2.76041 2.97798,-0.36282 1.8032,2.39759 1.17478,-2.76041 2.97798,-0.36282 1.8032,2.39759 -1.17478,2.76042 2.97798,-0.36282 1.8032,2.3976 1.17478,-2.76042 2.97798,-0.36282 -1.8032,-2.3976 1.17477,-2.76041 2.97798,-0.36282 1.8032,2.39759 1.17478,-2.76041 2.97798,-0.36282 -1.8032,-2.3976 1.17478,-2.76042 -2.97798,0.36282 -1.8032,-2.39759 1.17478,-2.76042 2.97798,-0.36282 -1.8032,-2.39759 1.17478,-2.76042 -2.97798,0.36282 -1.80321,-2.3976 -1.17477,2.76042 -2.97798,0.36282 -1.8032,-2.3976 1.17478,-2.76041 -2.97798,0.36282 -1.80321,-2.3976 1.17478,-2.76042 2.97798,-0.36282 -1.8032,-2.39759 1.17478,-2.76042 2.97798,-0.36282 1.8032,2.3976 1.17478,-2.76042 2.97798,-0.36282 -1.8032,-2.39759 1.17478,-2.76042 -2.97798,0.36282 -1.8032,-2.3976 1.17478,-2.7604 2.97797,-0.36282 -1.8032,-2.3976 1.17478,-2.76042"
       style="fill:none;fill-opacity:1;stroke:#000000;stroke-width:1;stroke-linecap:butt;stroke-linejoin:miter;stroke-opacity:1"
       inkscape:connector-curvature="0" />
  </g>
</svg>
