<?xml version="1.0" encoding="UTF-8" standalone="no"?>
<!-- Created with Inkscape (http://www.inkscape.org/) -->

<svg
   xmlns:dc="http://purl.org/dc/elements/1.1/"
   xmlns:cc="http://creativecommons.org/ns#"
   xmlns:rdf="http://www.w3.org/1999/02/22-rdf-syntax-ns#"
   xmlns:svg="http://www.w3.org/2000/svg"
   xmlns="http://www.w3.org/2000/svg"
   xmlns:sodipodi="http://sodipodi.sourceforge.net/DTD/sodipodi-0.dtd"
   xmlns:inkscape="http://www.inkscape.org/namespaces/inkscape"
   width="114.3mm"
   height="132.54672mm"
   viewBox="0 0 405.00001 469.65374"
   id="svg2"
   version="1.1"
   inkscape:version="0.91 r13725"
   sodipodi:docname="Schneeflocke.svg">
  <sodipodi:namedview
     id="base"
     pagecolor="#ffffff"
     bordercolor="#666666"
     borderopacity="1.0"
     inkscape:pageopacity="0.0"
     inkscape:pageshadow="2"
     inkscape:zoom="0.98994949"
     inkscape:cx="211.22257"
     inkscape:cy="219.43709"
     inkscape:document-units="px"
     inkscape:current-layer="layer1"
     showgrid="false"
     inkscape:window-width="1205"
     inkscape:window-height="697"
     inkscape:window-x="67"
     inkscape:window-y="-8"
     inkscape:window-maximized="1"
     inkscape:snap-bbox="true"
     inkscape:object-paths="true"
     inkscape:snap-intersection-paths="true"
     inkscape:object-nodes="true"
     inkscape:snap-smooth-nodes="true"
     inkscape:snap-midpoints="true"
     inkscape:bbox-paths="true"
     inkscape:bbox-nodes="true"
     inkscape:snap-bbox-edge-midpoints="true"
     inkscape:snap-bbox-midpoints="true"
     fit-margin-top="0"
     fit-margin-left="0"
     fit-margin-right="0"
     fit-margin-bottom="0" />
  <defs
     id="defs4" />
  <metadata
     id="metadata7">
    <rdf:RDF>
      <cc:Work
         rdf:about="">
        <dc:format>image/svg+xml</dc:format>
        <dc:type
           rdf:resource="http://purl.org/dc/dcmitype/StillImage" />
        <dc:title></dc:title>
      </cc:Work>
    </rdf:RDF>
  </metadata>
  <g
     inkscape:label="Ebene 1"
     inkscape:groupmode="layer"
     id="layer1"
     transform="translate(-257.52129,-235.79919)">
    <path
       id="path4177"
       d="m 257.52129,353.71262 5,0 2.5,-4.33013 2.5,4.33013 5,0 2.5,-4.33013 -2.5,-4.33013 5,0 2.5,-4.33012 2.5,4.33012 5,0 -2.5,4.33013 2.5,4.33013 5,0 2.5,-4.33013 2.5,4.33013 5,0 2.5,-4.33013 -2.5,-4.33013 5,0 2.5,-4.33012 -2.5,-4.33013 -5,0 2.5,-4.33013 -2.5,-4.33012 5,0 2.5,-4.33013 2.5,4.33013 5,0 2.5,-4.33013 -2.5,-4.33013 5,0 2.5,-4.33013 2.5,4.33013 5,0 -2.5,4.33013 2.5,4.33013 5,0 2.5,-4.33013 2.5,4.33013 5,0 -2.5,4.33012 2.5,4.33013 -5,0 -2.5,4.33013 2.5,4.33012 5,0 -2.5,4.33013 2.5,4.33013 5,0 2.5,-4.33013 2.5,4.33013 5,0 2.5,-4.33013 -2.5,-4.33013 5,0 2.5,-4.33012 2.5,4.33012 5,0 -2.5,4.33013 2.5,4.33013 5,0 2.5,-4.33013 2.5,4.33013 5,0 2.5,-4.33013 -2.5,-4.33013 5,0 2.5,-4.33012 -2.5,-4.33013 -5,0 2.5,-4.33013 -2.5,-4.33012 5,0 2.5,-4.33013 2.5,4.33013 5,0 2.5,-4.33013 -2.5,-4.33013 5,0 2.5,-4.33013 -2.5,-4.33012 -5,0 2.5,-4.33013 -2.5,-4.33013 -5,0 -2.5,4.33013 -2.5,-4.33013 -5,0 2.5,-4.33012 -2.5,-4.33013 5,0 2.5,-4.33013 -2.5,-4.33012 -5,0 2.5,-4.33013 -2.5,-4.33013 5,0 2.5,-4.33013 2.5,4.33013 5,0 2.5,-4.33013 -2.5,-4.33012 5,0 2.5,-4.33013 2.5,4.33013 5,0 -2.5,4.33012 2.5,4.33013 5,0 2.5,-4.33013 2.5,4.33013 5,0 2.5,-4.33013 -2.5,-4.33012 5,0 2.5,-4.33013 -2.5,-4.33013 -5,0 2.5,-4.33012 -2.5,-4.33013 5,0 2.5,-4.33013 2.5,4.33013 5,0 2.5,-4.33013 -2.5,-4.33013 5,0 2.5,-4.33012 2.5,4.33012 5,0 -2.5,4.33013 2.5,4.33013 5,0 2.5,-4.33013 2.5,4.33013 5,0 -2.5,4.33013 2.5,4.33012 -5,0 -2.5,4.33013 2.5,4.33013 5,0 -2.5,4.33012 2.5,4.33013 5,0 2.5,-4.33013 2.5,4.33013 5,0 2.5,-4.33013 -2.5,-4.33012 5,0 2.5,-4.33013 2.5,4.33013 5,0 -2.5,4.33012 2.5,4.33013 5,0 2.5,-4.33013 2.5,4.33013 5,0 -2.5,4.33013 2.5,4.33013 -5,0 -2.5,4.33012 2.5,4.33013 5,0 -2.5,4.33013 2.5,4.33012 -5,0 -2.5,4.33013 -2.5,-4.33013 -5,0 -2.5,4.33013 2.5,4.33013 -5,0 -2.5,4.33012 2.5,4.33013 5,0 -2.5,4.33013 2.5,4.33013 5,0 2.5,-4.33013 2.5,4.33013 5,0 -2.5,4.33012 2.5,4.33013 -5,0 -2.5,4.33013 2.5,4.33012 5,0 -2.5,4.33013 2.5,4.33013 5,0 2.5,-4.33013 2.5,4.33013 5,0 2.5,-4.33013 -2.5,-4.33013 5,0 2.5,-4.33012 2.5,4.33012 5,0 -2.5,4.33013 2.5,4.33013 5,0 2.5,-4.33013 2.5,4.33013 5,0 2.5,-4.33013 -2.5,-4.33013 5,0 2.5,-4.33012 -2.5,-4.33013 -5,0 2.5,-4.33013 -2.5,-4.33012 5,0 2.5,-4.33013 2.5,4.33013 5,0 2.5,-4.33013 -2.5,-4.33013 5,0 2.5,-4.33013 2.5,4.33013 5,0 -2.5,4.33013 2.5,4.33013 5,0 2.5,-4.33013 2.5,4.33013 5,0 -2.5,4.33012 2.5,4.33013 -5,0 -2.5,4.33013 2.5,4.33012 5,0 -2.5,4.33013 2.5,4.33013 5,0 2.5,-4.33013 2.5,4.33013 5,0 2.5,-4.33013 -2.5,-4.33013 5,0 2.5,-4.33012 2.5,4.33012 5,0 -2.5,4.33013 2.5,4.33013 5,0 2.5,-4.33013 2.5,4.33013 5,0"
       style="fill:none;fill-opacity:1;stroke:#000000;stroke-width:1;stroke-linecap:butt;stroke-linejoin:miter;stroke-opacity:1"
       inkscape:connector-curvature="0" />
    <path
       id="path4177-8"
       d="m 460.88734,705.20291 -2.5,-4.33013 -5,10e-6 2.5,-4.33013 -2.5,-4.33013 -5,0 -2.50001,4.33013 -2.5,-4.33013 -4.99999,0 2.49999,-4.33012 -2.5,-4.33013 5.00001,0 2.5,-4.33013 -2.5,-4.33013 -5,0 2.5,-4.33012 -2.5,-4.33013 -5,0 -2.50001,4.33013 -2.5,-4.33013 -4.99999,0 -2.5,4.33013 2.5,4.33012 -5,10e-6 -2.5,4.33012 -2.5,-4.33013 -5,0 2.5,-4.33013 -2.5,-4.33012 -5,0 -2.5,4.33013 -2.5,-4.33013 -5.00001,0 2.50001,-4.33013 -2.5,-4.33012 5,0 2.5,-4.33013 -2.5,-4.33013 -5,0 2.5,-4.33013 -2.5,-4.33012 5,0 2.5,-4.33013 2.5,4.33013 5,0 2.49999,-4.33013 -2.5,-4.33012 5.00001,-1e-5 2.5,-4.33012 -2.5,-4.33013 -5,0 2.5,-4.33013 -2.5,-4.33013 -5,1e-5 -2.50001,4.33012 -2.5,-4.33012 -4.99999,-1e-5 2.49999,-4.33012 -2.5,-4.33013 5.00001,0 2.5,-4.33013 -2.5,-4.33012 -5,0 2.5,-4.33013 -2.5,-4.33013 -5,0 -2.50001,4.33013 -2.5,-4.33012 -4.99999,-10e-6 -2.5,4.33013 2.5,4.33013 -5,0 -2.5,4.33012 -2.5,-4.33012 -5,0 2.5,-4.33013 -2.5,-4.33013 -5,0 -2.5,4.33013 -2.5,-4.33013 -5.00001,10e-6 -2.49999,4.33012 2.5,4.33013 -5,0 -2.50001,4.33013 2.5,4.33012 5.00001,0 -2.50001,4.33013 2.5,4.33013 -4.99999,-1e-5 -2.5,4.33013 -2.5,-4.33012 -5,0 -2.5,4.33012 2.5,4.33013 -5,0 -2.5,4.33013 -2.5,-4.33013 -5.00001,0 2.50001,-4.33013 -2.5,-4.33012 -5.00001,0 -2.49999,4.33012 -2.5,-4.33013 -5,1e-5 2.5,-4.33013 -2.5,-4.33013 4.99999,0 2.50001,-4.33012 -2.5,-4.33013 -5.00001,0 2.50001,-4.33013 -2.5,-4.33013 -5.00001,10e-6 -2.49999,4.33012 -2.5,-4.33013 -5,0 -2.50001,4.33013 2.5,4.33013 -4.99999,0 -2.5,4.33012 -2.5,-4.33012 -5.00001,0 2.50001,-4.33013 -2.5,-4.33013 -5.00001,10e-6 -2.50001,4.33013 -2.5,-4.33013 -4.99999,0 2.49999,-4.33013 -2.5,-4.33012 5.00001,0 2.50001,-4.33014 -2.5,-4.33012 -5.00001,0 2.50001,-4.33013 -2.5,-4.33013 5,0 2.49999,-4.33012 2.5,4.33012 5.00001,0 2.5,-4.33013 -2.5,-4.33012 4.99999,0 2.50001,-4.33013 -2.5,-4.33013 -5.00001,10e-6 2.50001,-4.33013 -2.5,-4.33013 -5.00001,0 -2.49999,4.33013 -2.5,-4.33013 -5,0 2.5,-4.33013 -2.5,-4.33013 4.99999,1e-5 2.50001,-4.33013 -2.5,-4.33013 -5.00001,0 2.50001,-4.33012 -2.5,-4.33013 5,0 2.5,-4.33013 2.5,4.33013 5,0 2.5,-4.33013 -2.5,-4.33013 5,0 2.49999,-4.33012 2.5,4.33013 5.00001,-1e-5 -2.50001,4.33013 2.5,4.33013 5.00001,0 2.5,-4.33013 2.5,4.33013 4.99999,0 2.50001,-4.33013 -2.5,-4.33013 5,0 2.5,-4.33013 -2.5,-4.33012 -5,0 2.5,-4.33013 -2.5,-4.33013 5,1e-5 2.5,-4.33013 2.5,4.33013 5,-1e-5 2.49999,-4.33012 -2.5,-4.33013 5.00001,0 2.5,-4.33013 -2.5,-4.33012 -5,0 2.5,-4.33013 -2.5,-4.33013 -5,0 -2.50001,4.33013 -2.5,-4.33013 -4.99999,0 2.49999,-4.33012 -2.5,-4.33013 5.00001,0 2.5,-4.33013 -2.5,-4.33013 -5,1e-5 2.5,-4.33013 -2.5,-4.33013 -5,0 -2.50001,4.33013 -2.5,-4.33013 -4.99999,0 -2.5,4.33013 2.5,4.33012 -5,1e-5 -2.5,4.33012 -2.5,-4.33013 -5,0 2.5,-4.33012 -2.5,-4.33013 -5,0 -2.5,4.33013 -2.5,-4.33013 -5.00001,0 2.50001,-4.33013 -2.5,-4.33012 5,0 2.5,-4.33013 -2.5,-4.33013 -5,0 2.5,-4.33013 -2.5,-4.33012 5,0 2.5,-4.33013 2.5,4.33013 5,0 2.49999,-4.33013 -2.5,-4.33012 5.00001,0 2.5,-4.33013 -2.5,-4.33013 -5,0 2.5,-4.33013 -2.5,-4.33012 -5,0 -2.50001,4.33013 -2.5,-4.33013 -4.99999,0 2.49999,-4.33013 -2.5,-4.33013 5.00001,0 2.5,-4.33013 -2.5,-4.33012 -5,0 2.5,-4.33013 -2.5,-4.33013"
       style="fill:none;fill-opacity:1;stroke:#000000;stroke-width:1;stroke-linecap:butt;stroke-linejoin:miter;stroke-opacity:1"
       inkscape:connector-curvature="0" />
    <path
       id="path4177-8-2"
       d="m 459.15524,705.20291 2.5,-4.33013 5,10e-6 -2.5,-4.33013 2.5,-4.33013 5,0 2.50001,4.33013 2.5,-4.33013 4.99999,0 -2.49999,-4.33012 2.5,-4.33013 -5.00001,0 -2.5,-4.33013 2.5,-4.33013 5,0 -2.5,-4.33012 2.5,-4.33013 5,0 2.50001,4.33013 2.5,-4.33013 4.99999,0 2.5,4.33013 -2.5,4.33012 5,10e-6 2.5,4.33012 2.5,-4.33013 5,0 -2.5,-4.33013 2.5,-4.33012 5,0 2.5,4.33013 2.5,-4.33013 5.00001,0 -2.50001,-4.33013 2.5,-4.33012 -5,0 -2.5,-4.33013 2.5,-4.33013 5,0 -2.5,-4.33013 2.5,-4.33012 -5,0 -2.5,-4.33013 -2.5,4.33013 -5,0 -2.49999,-4.33013 2.5,-4.33012 -5.00001,-1e-5 -2.5,-4.33012 2.5,-4.33013 5,0 -2.5,-4.33013 2.5,-4.33013 5,1e-5 2.50001,4.33012 2.5,-4.33012 4.99999,-1e-5 -2.49999,-4.33012 2.5,-4.33013 -5.00001,0 -2.5,-4.33013 2.5,-4.33012 5,0 -2.5,-4.33013 2.5,-4.33013 5,0 2.50001,4.33013 2.5,-4.33012 4.99999,-10e-6 2.5,4.33013 -2.5,4.33013 5,0 2.5,4.33012 2.5,-4.33012 5,0 -2.5,-4.33013 2.5,-4.33013 5,0 2.5,4.33013 2.5,-4.33013 5.00001,10e-6 2.49999,4.33012 -2.5,4.33013 5,0 2.50001,4.33013 -2.5,4.33012 -5.00001,0 2.50001,4.33013 -2.5,4.33013 4.99999,-1e-5 2.5,4.33013 2.5,-4.33012 5,0 2.5,4.33012 -2.5,4.33013 5,0 2.5,4.33013 2.5,-4.33013 5.00001,0 -2.50001,-4.33013 2.5,-4.33012 5.00001,0 2.49999,4.33012 2.5,-4.33013 5,1e-5 -2.5,-4.33013 2.5,-4.33013 -4.99999,0 -2.50001,-4.33012 2.5,-4.33013 5.00001,0 -2.50001,-4.33013 2.5,-4.33013 5.00001,10e-6 2.49999,4.33012 2.5,-4.33013 5,0 2.50001,4.33013 -2.5,4.33013 4.99999,0 2.5,4.33012 2.5,-4.33012 5.00001,0 -2.50001,-4.33013 2.5,-4.33013 5.00001,10e-6 2.50001,4.33013 2.5,-4.33013 4.99999,0 -2.49999,-4.33013 2.5,-4.33012 -5.00001,0 -2.50001,-4.33014 2.5,-4.33012 5.00001,0 -2.50001,-4.33013 2.5,-4.33013 -5,0 -2.49999,-4.33012 -2.5,4.33012 -5.00001,0 -2.5,-4.33013 2.5,-4.33012 -4.99999,0 -2.50001,-4.33013 2.5,-4.33013 5.00001,10e-6 -2.50001,-4.33013 2.5,-4.33013 5.00001,0 2.49999,4.33013 2.5,-4.33013 5,0 -2.5,-4.33013 2.5,-4.33013 -4.99999,1e-5 -2.50001,-4.33013 2.5,-4.33013 5.00001,0 -2.50001,-4.33012 2.5,-4.33013 -5,0 -2.5,-4.33013 -2.5,4.33013 -5,0 -2.5,-4.33013 2.5,-4.33013 -5,0 -2.49999,-4.33012 -2.5,4.33013 -5.00001,-1e-5 2.50001,4.33013 -2.5,4.33013 -5.00001,0 -2.5,-4.33013 -2.5,4.33013 -4.99999,0 -2.50001,-4.33013 2.5,-4.33013 -5,0 -2.5,-4.33013 2.5,-4.33012 5,0 -2.5,-4.33013 2.5,-4.33013 -5,1e-5 -2.5,-4.33013 -2.5,4.33013 -5,-1e-5 -2.49999,-4.33012 2.5,-4.33013 -5.00001,0 -2.5,-4.33013 2.5,-4.33012 5,0 -2.5,-4.33013 2.5,-4.33013 5,0 2.50001,4.33013 2.5,-4.33013 4.99999,0 -2.49999,-4.33012 2.5,-4.33013 -5.00001,0 -2.5,-4.33013 2.5,-4.33013 5,1e-5 -2.5,-4.33013 2.5,-4.33013 5,0 2.50001,4.33013 2.5,-4.33013 4.99999,0 2.5,4.33013 -2.5,4.33012 5,1e-5 2.5,4.33012 2.5,-4.33013 5,0 -2.5,-4.33012 2.5,-4.33013 5,0 2.5,4.33013 2.5,-4.33013 5.00001,0 -2.50001,-4.33013 2.5,-4.33012 -5,0 -2.5,-4.33013 2.5,-4.33013 5,0 -2.5,-4.33013 2.5,-4.33012 -5,0 -2.5,-4.33013 -2.5,4.33013 -5,0 -2.49999,-4.33013 2.5,-4.33012 -5.00001,0 -2.5,-4.33013 2.5,-4.33013 5,0 -2.5,-4.33013 2.5,-4.33012 5,0 2.50001,4.33013 2.5,-4.33013 4.99999,0 -2.49999,-4.33013 2.5,-4.33013 -5.00001,0 -2.5,-4.33013 2.5,-4.33012 5,0 -2.5,-4.33013 2.5,-4.33013"
       style="fill:none;fill-opacity:1;stroke:#000000;stroke-width:1;stroke-linecap:butt;stroke-linejoin:miter;stroke-opacity:1"
       inkscape:connector-curvature="0" />
  </g>
</svg>
