<?xml version="1.0" encoding="UTF-8" standalone="no"?>
<!-- Created with Inkscape (http://www.inkscape.org/) -->

<svg
   xmlns:dc="http://purl.org/dc/elements/1.1/"
   xmlns:cc="http://creativecommons.org/ns#"
   xmlns:rdf="http://www.w3.org/1999/02/22-rdf-syntax-ns#"
   xmlns:svg="http://www.w3.org/2000/svg"
   xmlns="http://www.w3.org/2000/svg"
   xmlns:sodipodi="http://sodipodi.sourceforge.net/DTD/sodipodi-0.dtd"
   xmlns:inkscape="http://www.inkscape.org/namespaces/inkscape"
   width="180.98883mm"
   height="156.98788mm"
   viewBox="0 0 641.29901 556.25629"
   id="svg2"
   version="1.1"
   inkscape:version="0.91 r13725"
   sodipodi:docname="Sierpinski-Dreieck.svg">
  <sodipodi:namedview
     id="base"
     pagecolor="#ffffff"
     bordercolor="#666666"
     borderopacity="1.0"
     inkscape:pageopacity="0.0"
     inkscape:pageshadow="2"
     inkscape:zoom="0.7"
     inkscape:cx="393.43383"
     inkscape:cy="290.31719"
     inkscape:document-units="px"
     inkscape:current-layer="layer1"
     showgrid="false"
     inkscape:window-width="1205"
     inkscape:window-height="697"
     inkscape:window-x="67"
     inkscape:window-y="-8"
     inkscape:window-maximized="1"
     inkscape:snap-bbox="true"
     inkscape:object-paths="true"
     inkscape:snap-intersection-paths="true"
     inkscape:object-nodes="true"
     inkscape:snap-smooth-nodes="true"
     inkscape:snap-midpoints="true"
     inkscape:bbox-paths="true"
     inkscape:bbox-nodes="true"
     inkscape:snap-bbox-edge-midpoints="true"
     inkscape:snap-bbox-midpoints="true"
     fit-margin-top="0"
     fit-margin-left="0"
     fit-margin-right="0"
     fit-margin-bottom="0"
     inkscape:snap-global="false" />
  <defs
     id="defs4" />
  <metadata
     id="metadata7">
    <rdf:RDF>
      <cc:Work
         rdf:about="">
        <dc:format>image/svg+xml</dc:format>
        <dc:type
           rdf:resource="http://purl.org/dc/dcmitype/StillImage" />
        <dc:title></dc:title>
      </cc:Work>
    </rdf:RDF>
  </metadata>
  <g
     inkscape:label="Ebene 1"
     inkscape:groupmode="layer"
     id="layer1"
     transform="translate(-70.110472,-19.59261)">
    <path
       id="path4362"
       d="m 710.97649,574.84887 -5,-8.66025 -5,-8.66026 -5,-8.66025 -5,-8.66026 -5,-8.66025 -5,-8.66025 -5,-8.66026 -5,-8.66025 -5,-8.66026 -5,-8.66025 -5,-8.66025 -5,-8.66026 -5,-8.66025 -5,-8.66026 -5,-8.66025 -5,-8.66026 -5,-8.66025 -5,-8.66025 -5,-8.66026 -5,-8.66025 -5,-8.66026 -5,-8.66025 -5,-8.66025 -5,-8.66026 -5,-8.66025 -5,-8.66026 -5,-8.66025 -5,-8.66025 -5,-8.66026 -5,-8.66025 -5,-8.66026 -5,-8.66025 -4.99999,8.66025 -5,8.66025 -5,8.66026 -5,8.66025 -5.00001,8.66026 -4.99999,8.66025 -5,8.66025 -5,8.66026 -5,8.66025 -5.00001,8.66026 -4.99999,8.66025 -5,8.66025 -5,8.66026 -5,8.66025 -5.00001,8.66026 -4.99999,8.66025 9.99999,0 10.00001,0 10,0 10,0 10,0 9.99999,0 10.00001,0 10,0 -5,-8.66025 -5,-8.66025 -5,-8.66026 -5,-8.66025 -5,8.66025 -5.00001,8.66026 10.00001,-10e-6 10,10e-6 -5,8.66025 -5.00001,8.66025 -5,-8.66025 -5,-8.66025 -4.99999,8.66025 -5,8.66025 -5,-8.66025 -5,-8.66026 -5,8.66026 -5,8.66025 -5,-8.66025 -5,-8.66026 10,10e-6 10,-10e-6 -5,-8.66025 -5,-8.66026 10,1e-5 9.99999,0 -5,-8.66026 -5,-8.66025 10.00001,0 10,0 -5,8.66025 -5.00001,8.66026 10.00001,0 10,0 -5,-8.66026 -5,-8.66025 -5,-8.66025 -5,-8.66026 10,0 10,0 9.99999,0 10.00001,0 -5,-8.66025 -5,-8.66026 -5.00001,8.66026 -4.99999,8.66025 -5,-8.66025 -5,-8.66026 9.99999,0 10.00001,0 -5,-8.66025 -5,-8.66026 10,1e-5 10,-1e-5 -5,-8.66025 -5,-8.66026 10,10e-6 9.99999,0 -4.99999,8.66025 -5,8.66025 10,0 9.99999,1e-5 -4.99999,8.66025 -5,8.66025 10,0 9.99999,0 -4.99999,8.66026 -5,8.66025 -5,-8.66026 -5,-8.66025 -5,8.66026 -5,8.66025 10,0 10,0 10,0 9.99999,0 -4.99999,8.66025 -5,8.66026 -5,8.66025 -5,8.66026 10,0 10,-1e-5 -5,-8.66025 -5,-8.66025 10,0 9.99999,0 -4.99999,8.66025 -5,8.66025 10,1e-5 9.99999,0 -4.99999,8.66025 -5,8.66025 10,0 9.99999,10e-6 -4.99999,8.66025 -5,8.66025 -5,-8.66025 -5,-8.66026 -5,8.66026 -5,8.66025 -5,-8.66025 -5,-8.66026 -5.00001,8.66026 -4.99999,8.66025 -5,-8.66025 -5,-8.66026 9.99999,10e-6 10.00001,-10e-6 -5,-8.66025 -5,-8.66025 -5.00001,8.66025 -4.99999,8.66025 -5,8.66026 -5,8.66025 10,0 10,0 9.99999,0 10.00001,0 10,0 10,0 10,0 9.99999,0 -4.99999,8.66026 -5,8.66025 -5,8.66026 -5,8.66025 -5.00001,8.66025 -4.99999,8.66026 -5,8.66025 -5,8.66026 10,-1e-5 10,1e-5 9.99999,0 10.00001,-1e-5 -5,-8.66025 -5,-8.66025 -5.00001,8.66025 -4.99999,8.66026 -5,-8.66026 -5,-8.66025 9.99999,0 10.00001,0 -5,-8.66026 -5,-8.66025 10,0 10,0 -5,-8.66026 -5,-8.66025 10,0 9.99999,0 -4.99999,8.66025 -5,8.66026 10,0 9.99999,0 -4.99999,8.66025 -5,8.66026 10,0 9.99999,0 -4.99999,8.66025 -5,8.66025 -5,-8.66025 -5,-8.66025 -5,8.66025 -5,8.66025 10,1e-5 10,-1e-5 10,1e-5 9.99999,0 -4.99999,8.66025 -5,8.66025 -5,8.66026 -5,8.66025 10,0 10,0 -5,-8.66025 -5,-8.66026 10,0 9.99999,10e-6 -4.99999,8.66025 -5,8.66025 10,0 9.99999,0 -4.99999,8.66026 -5,8.66025 10,0 9.99999,0 -4.99999,8.66025 -5,8.66026 -5,-8.66026 -5,-8.66025 -5,8.66025 -5,8.66026 -5,-8.66026 -5,-8.66025 -5.00001,8.66026 -4.99999,8.66025 -5,-8.66026 -5,-8.66025 9.99999,0 10.00001,0 -5,-8.66026 -5,-8.66025 -5.00001,8.66026 -4.99999,8.66025 -5,8.66025 -5,8.66026 -5,-8.66026 -5,-8.66025 -5,-8.66025 -5,-8.66026 -5,8.66025 -5.00001,8.66026 10.00001,0 10,0 -5,8.66025 -5.00001,8.66026 -5,-8.66025 -5,-8.66026 -4.99999,8.66025 -5,8.66026 -5,-8.66026 -5,-8.66025 -5,8.66025 -5,8.66026 -5,-8.66026 -5,-8.66025 10,0 10,0 -5,-8.66026 -5,-8.66025 10,0 9.99999,0 -5,-8.66025 -5,-8.66025 10.00001,-10e-6 10,0 -5,8.66026 -5.00001,8.66025 10.00001,0 10,0 -5,-8.66025 -5,-8.66026 -5,-8.66025 -5,-8.66025 -5,8.66025 -5.00001,8.66026 -4.99999,8.66025 -5,8.66025 -5,8.66026 -5,8.66025 -5.00001,8.66026 -4.99999,8.66025 -5,-8.66026 -5,-8.66025 -5,-8.66025 -5,-8.66026 -5,-8.66025 -5,-8.66026 -5,-8.66025 -5,-8.66026 -5,8.66026 -5,8.66025 -5,8.66026 -5.00001,8.66025 10.00001,0 10,0 -5,-8.66025 -5,-8.66026 10,0 10,0 -5,8.66025 -5,8.66026 10,0 10,0 -5,8.66025 -5,8.66026 10,0 10,0 -5,8.66025 -5,8.66026 -5,-8.66026 -5,-8.66025 -5,8.66025 -5.00001,8.66026 -5,-8.66025 -5,-8.66026 -4.99999,8.66025 -5,8.66026 -5,-8.66026 -5,-8.66025 10,0 9.99999,0 -5,-8.66025 -5,-8.66026 -4.99999,8.66025 -5,8.66026 -5,8.66025 -5,8.66026 -5,-8.66026 -5,-8.66025 -5,-8.66026 -5,-8.66025 -5.00001,8.66026 -4.99999,8.66025 9.99999,0 10.00001,0 -5.00001,8.66025 -4.99999,8.66026 -5,-8.66026 -5,-8.66025 -5,8.66025 -5,8.66026 -5,-8.66026 -5,-8.66025 -5,8.66025 -5.00001,8.66026 -5,-8.66026 -5,-8.66025 10.00001,0 10,0 -5,-8.66025 -5,-8.66026 10,0 10,0 -5,-8.66025 -5,-8.66026 9.99999,0 10.00001,0 -5.00001,8.66026 -4.99999,8.66025 9.99999,0 10.00001,0 -5,-8.66025 -5,-8.66026 -5,-8.66025 -5,-8.66026 10,1e-5 10,-1e-5 10,0 9.99999,1e-5 -5,-8.66026 -5,-8.66025 -4.99999,8.66025 -5,8.66025 -5,-8.66025 -5,-8.66026 10,10e-6 9.99999,0 -5,-8.66026 -5,-8.66025 10.00001,0 10,0 -5,-8.66025 -5,-8.66026 10,0 10,0 -5,8.66025 -5,8.66026 10,0 10,0 -5,8.66025 -5,8.66026 10,-10e-6 10,10e-6 -5,8.66025 -5,8.66026 -5,-8.66026 -5,-8.66025 -5,8.66025 -5.00001,8.66026 10.00001,-1e-5 10,1e-5 10,-1e-5 10,0 -5,-8.66025 -5,-8.66025 -5,-8.66026 -5,-8.66025 -5,-8.66026 -5,-8.66025 -5,-8.66025 -5,-8.66026 -5,8.66025 -5,8.66026 -5,8.66025 -5.00001,8.66026 -4.99999,8.66025 -5,8.66025 -5,8.66026 -5,8.66025 -5.00001,8.66026 -4.99999,8.66025 -5,8.66025 -5,8.66026 -5,8.66025 -5.00001,8.66026 -4.99999,8.66025 -5,8.66025 -5,-8.66025 -5,-8.66025 -5,-8.66026 -5,-8.66025 -5,-8.66026 -5,-8.66025 -5,-8.66025 -5,-8.66026 -5,-8.66025 -5,-8.66026 -5,-8.66025 -5,-8.66025 -5,-8.66026 -5,-8.66025 -5,-8.66026 -5,-8.66025 -5,8.66026 -5,8.66025 -5.00001,8.66026 -4.99999,8.66025 -5,8.66025 -5,8.66026 -5,8.66025 -5.00001,8.66026 10.00001,-1e-5 10,1e-5 10,-1e-5 10,0 -5,-8.66025 -5,-8.66025 -5,8.66025 -5,8.66026 -5,-8.66026 -5,-8.66025 10,-10e-6 10,10e-6 -5,-8.66026 -5,-8.66025 9.99999,0 10.00001,0 -5,-8.66026 -5,-8.66025 10,0 10,0 -5,8.66026 -5,8.66025 10,0 10,0 -5,8.66025 -5,8.66026 10,0 10,-10e-6 -5,8.66026 -5,8.66025 -5,-8.66025 -5,-8.66025 -5.00001,8.66025 -4.99999,8.66025 9.99999,1e-5 10.00001,-1e-5 10,1e-5 10,-1e-5 -5,8.66026 -5,8.66025 -5.00001,8.66026 -4.99999,8.66025 9.99999,0 10.00001,0 -5,-8.66025 -5,-8.66026 10,0 10,0 -5,8.66026 -5,8.66025 10,0 10,0 -5,8.66026 -5,8.66025 10,0 10,0 -5,8.66025 -5,8.66026 -5,-8.66026 -5,-8.66025 -5.00001,8.66025 -4.99999,8.66026 -5,-8.66026 -5,-8.66025 -5,8.66025 -5,8.66026 -5,-8.66026 -5,-8.66025 10,0 10,0 -5,-8.66026 -5,-8.66025 -5,8.66025 -5,8.66026 -5,8.66025 -5.00001,8.66026 -5,-8.66026 -5,-8.66025 -5,-8.66025 -5,-8.66026 -4.99999,8.66025 -5.00001,8.66026 10.00001,0 9.99999,0 -4.99999,8.66025 -5.00001,8.66026 -5,-8.66025 -5,-8.66026 -4.99999,8.66025 -5,8.66026 -5,-8.66026 -5,-8.66025 -5,8.66025 -5,8.66026 -5,-8.66026 -5,-8.66025 10,0 10,0 -5,-8.66026 -5,-8.66025 10,0 9.99999,0 -5,-8.66025 -5,-8.66025 10.00001,-10e-6 9.99999,0 -4.99999,8.66026 -5.00001,8.66025 10.00001,0 9.99999,0 -5,-8.66025 -5,-8.66026 -5,-8.66025 -5,-8.66025 -4.99999,8.66025 -5.00001,8.66026 -4.99999,8.66025 -5,8.66025 -5,8.66026 -5,8.66025 -5.00001,8.66026 -4.99999,8.66025 -5,-8.66026 -5,-8.66025 -5,-8.66025 -5,-8.66026 -5,-8.66025 -5,-8.66026 -5,-8.66025 -5,-8.66025 -5,8.66025 -5,8.66025 -5,8.66026 -5.00001,8.66025 10.00001,0 10,0 -5,-8.66025 -5,-8.66026 10,0 10,0 -5,8.66026 -5,8.66025 10,0 10,0 -5,8.66025 -5,8.66026 10,0 10,0 -5,8.66025 -5,8.66026 -5,-8.66026 -5,-8.66025 -5,8.66025 -5.00001,8.66026 -5,-8.66025 -5,-8.66026 -4.99999,8.66025 -5,8.66026 -5,-8.66026 -5,-8.66025 10,0 9.99999,0 -5,-8.66025 -5,-8.66026 -4.99999,8.66026 -5,8.66025 -5,8.66025 -5,8.66026 -5,-8.66026 -5,-8.66025 -5,-8.66026 -5,-8.66025 -5,8.66026 -5,8.66025 10,0 10,0 -5,8.66025 -5,8.66026 -5,-8.66026 -5,-8.66025 -5,8.66025 -5,8.66026 -5,-8.66026 -5,-8.66025 -5.000003,8.66025 -5,8.66026 -5,-8.66026 -5,-8.66025 10,0 10.000003,0 -5.000003,-8.66025 -5,-8.66026 10.000003,0 10,0 -5,-8.66025 -5,-8.66026 10,0 10,0 -5,8.66026 -5,8.66025 10,0 10,0 -5,-8.66025 -5,-8.66026 -5,-8.66025 -5,-8.66026 10,1e-5 10,-1e-5 10,1e-5 9.99999,0 -5,-8.66026 -5,-8.66025 -4.99999,8.66025 -5,8.66025 -5,-8.66025 -5,-8.66025 10,0 9.99999,0 -5,-8.66025 -5,-8.66026 10.00001,0 10,0 -5,-8.66025 -5,-8.66026 10,0 10,0 -5,8.66025 -5,8.66026 10,0 10,0 -5,8.66025 -5,8.66026 10,0 10,0 -5,8.66025 -5,8.66026 -5,-8.66026 -5,-8.66025 -5,8.66025 -5.00001,8.66026 10.00001,-1e-5 10,1e-5 10,-1e-5 10,1e-5 -5,-8.66026 -5,-8.66025 -5,-8.66026 -5,-8.66025 -5,-8.66025 -5,-8.66026 -5,-8.66025 -5,-8.66026 9.99999,0 10.00001,0 10,0 10,0 10,0 9.99999,10e-6 10.00001,-10e-6 9.99999,0 -5,-8.66025 -5,-8.66025 -5,-8.66026 -5,-8.66025 -4.99999,8.66025 -5.00001,8.66026 10.00001,-10e-6 9.99999,10e-6 -4.99999,8.66025 -5.00001,8.66026 -5,-8.66026 -5,-8.66025 -4.99999,8.66025 -5,8.66025 -5,-8.66025 -5,-8.66026 -5,8.66026 -5,8.66025 -5,-8.66025 -5,-8.66026 10,10e-6 10,-10e-6 -5,-8.66025 -5,-8.66026 10,1e-5 9.99999,0 -5,-8.66026 -5,-8.66025 10.00001,0 9.99999,0 -4.99999,8.66025 -5.00001,8.66026 10.00001,0 9.99999,0 -5,-8.66026 -5,-8.66025 -5,-8.66025 -5,-8.66026 10.00001,0 10,0 10,0 10,0 -5,-8.66025 -5,-8.66026 -5,8.66025 -5,8.66026 -5,-8.66025 -5,-8.66026 10,0 10,0 -5,-8.66025 -5,-8.66026 9.99999,1e-5 10.00001,-1e-5 -5,-8.66025 -5,-8.66026 10,10e-6 10,-10e-6 -5,8.66026 -5,8.66025 10,0 10,0 -5,8.66026 -5,8.66025 10,0 10,0 -5,8.66026 -5,8.66025 -5,-8.66026 -5,-8.66025 -5.00001,8.66026 -4.99999,8.66025 9.99999,0 10.00001,0 10,0 10,0 -5,8.66025 -5,8.66026 -5.00001,8.66025 -4.99999,8.66026 9.99999,0 10.00001,0 -5,-8.66026 -5,-8.66025 10,0 10,0 -5,8.66025 -5,8.66026 10,0 10,-1e-5 -5,8.66026 -5,8.66025 10,10e-6 10,-10e-6 -5,8.66026 -5,8.66025 -5,-8.66025 -5,-8.66026 -5.00001,8.66026 -4.99999,8.66025 -5,-8.66025 -5,-8.66026 -5,8.66026 -5,8.66025 -5,-8.66025 -5,-8.66025 10,-10e-6 10,0 -5,-8.66025 -5,-8.66025 -5,8.66025 -5,8.66026 -5,8.66025 -5.00001,8.66025 10.00001,0 10,0 10,0 10,0 9.99999,0 10.00001,0 10,0 10,0 -5,-8.66025 -5,-8.66026 -5,-8.66025 -5,-8.66026 -5,-8.66025 -5,-8.66025 -5,-8.66026 -5,-8.66025 -5,-8.66026 -5,-8.66025 -5,-8.66025 -5,-8.66026 -5,-8.66025 -5,-8.66026 -5,-8.66025 -5,-8.66025 10,0 9.99999,0 10.00001,0 10,0 10,0 10,0 9.99999,0 10.00001,0 10,0 10,0 10,0 9.99999,0 10.00001,0 10,0 10,0 10,0 -5,-8.66026 -5,-8.66025 -5,-8.66025 -5,-8.66026 -5,-8.66025 -5,-8.66026 -5,-8.66025 -5,-8.66025 -5,8.66025 -5,8.66025 -5,8.66026 -5.00001,8.66025 10.00001,0 10,0 -5,-8.66025 -5,-8.66026 10,0 10,0 -5,8.66026 -5,8.66025 10,0 10,0 -5,8.66025 -5,8.66026 10,0 10,0 -5,8.66025 -5,8.66026 -5,-8.66026 -5,-8.66025 -5,8.66025 -5.00001,8.66026 -5,-8.66025 -5,-8.66026 -4.99999,8.66025 -5,8.66026 -5,-8.66026 -5,-8.66025 10,0 9.99999,0 -5,-8.66025 -5,-8.66026 -4.99999,8.66026 -5,8.66025 -5,8.66025 -5,8.66026 -5,-8.66026 -5,-8.66025 -5,-8.66026 -5,-8.66025 -5.00001,8.66026 -4.99999,8.66025 9.99999,0 10.00001,0 -5.00001,8.66026 -4.99999,8.66025 -5,-8.66026 -5,-8.66025 -5,8.66025 -5,8.66026 -5,-8.66026 -5,-8.66025 -5,8.66025 -5.00001,8.66026 -5,-8.66025 -5,-8.66026 10.00001,0 10,0 -5,-8.66025 -5,-8.66026 10,0 10,0 -5,-8.66025 -5,-8.66026 9.99999,1e-5 10.00001,-1e-5 -5.00001,8.66026 -4.99999,8.66025 9.99999,0 10.00001,0 -5,-8.66025 -5,-8.66026 -5,-8.66025 -5,-8.66026 10,10e-6 10,-10e-6 10,10e-6 9.99999,0 -5,-8.66026 -5,-8.66025 -4.99999,8.66025 -5,8.66025 -5,-8.66025 -5,-8.66025 10,0 9.99999,0 -5,-8.66025 -5,-8.66026 10.00001,0 10,0 -5,-8.66025 -5,-8.66026 10,0 10,0 -5,8.66025 -5,8.66026 10,0 10,0 -5,8.66025 -5,8.66026 10,0 10,0 -5,8.66025 -5,8.66026 -5,-8.66026 -5,-8.66025 -5,8.66025 -5.00001,8.66026 10.00001,-10e-6 10,10e-6 10,-10e-6 10,10e-6 -5,-8.66026 -5,-8.66025 -5,-8.66026 -5,-8.66025 -5,-8.66025 -5,-8.66026 -5,-8.66025 -5,-8.66026 9.99999,1e-5 10.00001,-1e-5 10,0 10,0 10,0 9.99999,1e-5 10.00001,-1e-5 10,0 -5,-8.66025 -5,-8.66025 -5,-8.66026 -5,-8.66025 -5,8.66025 -5.00001,8.66026 10.00001,-1e-5 10,1e-5 -5,8.66025 -5.00001,8.66026 -5,-8.66026 -5,-8.66025 -4.99999,8.66025 -5,8.66025 -5,-8.66025 -5,-8.66026 -5,8.66026 -5,8.66025 -5,-8.66025 -5,-8.66026 10,1e-5 10,-1e-5 -5,-8.66025 -5,-8.66025 10,0 9.99999,0 -5,-8.66025 -5,-8.66026 10.00001,0 10,0 -5,8.66025 -5.00001,8.66026 10.00001,0 10,0 -5,-8.66026 -5,-8.66025 -5,-8.660254 -5,-8.660254 10,-3e-6 10,2e-6 9.99999,2e-6 10.00001,-3e-6 -5,-8.660254 -5,-8.660254 -5.00001,8.660257 -4.99999,8.660252 -5,-8.660254 -5,-8.660254 9.99999,2e-6 10.00001,-3e-6 -5,-8.660254 -5,-8.660254 10,2e-6 10,-3e-6 -5,-8.660254 -5,-8.660254 10,2e-6 9.99999,2e-6 -4.99999,8.660252 -5,8.660252 10,2e-6 9.99999,2e-6 -4.99999,8.660252 -5,8.660252 10,2e-6 9.99999,2e-6 -4.99999,8.660252 -5,8.660252 -5,-8.660254 -5,-8.660254 -5,8.660257 -5,8.660252 10,2e-6 10,-3e-6 10,2e-6 9.99999,2e-6 -4.99999,8.660252 -5,8.660255 -5,8.66025 -5,8.66026 10,0 10,0 -5,-8.66026 -5,-8.66025 10,0 9.99999,0 -4.99999,8.66025 -5,8.66026 10,0 9.99999,0 -4.99999,8.66025 -5,8.66025 10,1e-5 9.99999,0 -4.99999,8.66025 -5,8.66025 -5,-8.66025 -5,-8.66026 -5,8.66026 -5,8.66025 -5,-8.66025 -5,-8.66026 -5.00001,8.66026 -4.99999,8.66025 -5,-8.66025 -5,-8.66025 9.99999,0 10.00001,-1e-5 -5,-8.66025 -5,-8.66025 -5.00001,8.66025 -4.99999,8.66026 -5,8.66025 -5,8.66025 10,0 10,0 9.99999,1e-5 10.00001,-1e-5 10,0 10,0 10,0 9.99999,1e-5 -4.99999,8.66025 -5,8.66025 -5,8.66026 -5,8.66025 -5.00001,8.66026 -4.99999,8.66025 -5,8.66025 -5,8.66026 10,-10e-6 10,10e-6 9.99999,0 10.00001,-10e-6 -5,-8.66025 -5,-8.66025 -5.00001,8.66025 -4.99999,8.66026 -5,-8.66026 -5,-8.66025 9.99999,0 10.00001,0 -5,-8.66026 -5,-8.66025 10,0 10,0 -5,-8.66026 -5,-8.66025 10,0 9.99999,0 -4.99999,8.66026 -5,8.66025 10,0 9.99999,0 -4.99999,8.66025 -5,8.66026 10,0 9.99999,0 -4.99999,8.66025 -5,8.66025 -5,-8.66025 -5,-8.66025 -5,8.66025 -5,8.66025 10,10e-6 10,-10e-6 10,10e-6 9.99999,0 -4.99999,8.66025 -5,8.66025 -5,8.66026 -5,8.66025 10,0 10,0 -5,-8.66025 -5,-8.66026 10,0 9.99999,1e-5 -4.99999,8.66025 -5,8.66025 10,0 9.99999,0 -4.99999,8.66026 -5,8.66025 10,0 9.99999,0 -4.99999,8.66025 -5,8.66026 -5,-8.66026 -5,-8.66025 -5,8.66026 -5,8.66025 -5,-8.66026 -5,-8.66025 -5.00001,8.66026 -4.99999,8.66025 -5,-8.66026 -5,-8.66025 9.99999,0 10.00001,0 -5,-8.66025 -5,-8.66026 -5.00001,8.66026 -4.99999,8.66025 -5,8.66025 -5,8.66026 -5,-8.66025 -5,-8.66026 -5,-8.66025 -5,-8.66026 -5,8.66025 -5.00001,8.66026 10.00001,0 10,0 -5,8.66025 -5.00001,8.66026 -5,-8.66025 -5,-8.66026 -4.99999,8.66025 -5,8.66026 -5,-8.66026 -5,-8.66025 -5,8.66025 -5,8.66026 -5,-8.66026 -5,-8.66025 10,0 10,0 -5,-8.66026 -5,-8.66025 10,0 9.99999,0 -5,-8.66025 -5,-8.66025 10.00001,-1e-5 10,0 -5,8.66026 -5.00001,8.66025 10.00001,0 10,0 -5,-8.66025 -5,-8.66026 -5,-8.66025 -5,-8.66025 -5,8.66025 -5.00001,8.66026 -4.99999,8.66025 -5,8.66025 -5,8.66026 -5,8.66025 -5.00001,8.66026 -4.99999,8.66025 9.99999,0 10.00001,0 10,0 10,0 10,0 9.99999,0 10.00001,0 10,0 10,0 10,0 9.99999,0 10.00001,0 10,0 10,0 10,0 9.99999,0 -5,-8.66025 -5,-8.66026 -5,-8.66025 -5,-8.66026 -5,-8.66025 -5,-8.66025 -5,-8.66026 -5,-8.66025 -5,-8.66026 -5,-8.66025 -5,-8.66025 -5,-8.66026 -5,-8.66025 -5,-8.66026 -5,-8.66025 -5,-8.66025 -5,-8.66026 -5,-8.66025 -5,-8.66026 -5,-8.66025 -5,-8.66025 -5,-8.66026 -5,-8.660253 -5,-8.660254 -5,-8.660254 -5,-8.660254 -5,-8.660254 -5,-8.660254 -5,-8.660254 -5,-8.660254 -5,-8.660254 -5,-8.660254 -4.99999,8.660252 -5,8.660252 -5,8.660257 -5,8.660252 -5.00001,8.660257 -4.99999,8.660252 -5,8.660252 -5,8.660257 -5,8.660252 -5.00001,8.660256 -4.99999,8.66025 -5,8.66026 -5,8.66025 -5,8.66025 -5.00001,8.66026 -4.99999,8.66025 -5,8.66026 -5,8.66025 -5,8.66025 -5.00001,8.66026 -4.99999,8.66025 -5,8.66026 -5,8.66025 -5,8.66025 -5.00001,8.66026 -4.99999,8.66025 -5,8.66026 -5,8.66025 -5,8.66025 -5.00001,8.66026 -4.99999,8.66025 -5,8.66026 -5,8.66025 -5,8.66025 -5.00001,8.66026 -4.99999,8.66025 -5,8.66026 -5,8.66025 -5,8.66025 -5.00001,8.66026 -4.99999,8.66025 -5.00001,8.66026 -4.99999,8.66025 -5,8.66025 -5,8.66026 -5,8.66025 -5.00001,8.66026 -4.99999,8.66025 -5,8.66025 -5,8.66026 -5,8.66025 -5.00001,8.66026 -4.99999,8.66025 -5,8.66026 -5,8.66025 -5,8.66025 -5,8.66026 -5,8.66025 -5.000003,8.66026 -5,8.66025 -5,8.66026 -5,8.66025 -5,8.66025 -5,8.66026 10,0 10,0 10.000003,0 10,0 10,0 10,0 10,0 10,0 10,0 10,0 10,0 9.99999,0 10.00001,0 10,0 10,0 10,0 9.99999,0 10.00001,0 10,0 10,0 10,0 9.99999,0 10.00001,0 9.99999,0 10.00001,0 10,0 10,-1e-5 10,1e-5 9.99999,0 10.00001,0 10,0 10,-1e-5 10,1e-5 9.99999,0 10.00001,0 10,0 10,-1e-5 10,1e-5 9.99999,0 10.00001,0 10,0 10,0 10,0 9.99999,0 10.00001,0 10,0 10,0 10,0 9.99999,0 10.00001,0 10,0 10,0 10,0 9.99999,0 10.00001,0 10,0 10,0 10,0 9.99999,0 10.00001,0 10,0 10,0 10,0 9.99999,0"
       style="fill:none;fill-opacity:1;stroke:#000000;stroke-width:1;stroke-linecap:butt;stroke-linejoin:miter;stroke-opacity:1"
       inkscape:connector-curvature="0" />
  </g>
</svg>
